<svg width="172" height="60" viewBox="0 0 172 60" fill="none" xmlns="http://www.w3.org/2000/svg">
<path fill-rule="evenodd" clip-rule="evenodd" d="M97.1627 41.1606H98.7979V0H97.1627V41.1606ZM119.194 11.6175C116.621 11.8944 114.13 13.0555 112.465 14.7537C110.272 16.9899 109.14 20.2659 109.455 23.4615C110.007 29.07 114.067 32.9247 119.84 33.3207C122.187 33.4818 124.935 32.7866 126.746 31.5736C127.662 30.9597 128.537 30.1467 128.47 29.9712C128.443 29.901 128.011 29.4611 127.51 28.9936L126.598 28.1437L126.007 28.6947C124.994 29.6376 123.773 30.2347 122.214 30.5503C121.164 30.7629 119.443 30.6864 118.334 30.3779C116.761 29.9406 115.649 29.2725 114.539 28.0994C113.08 26.558 112.395 24.7361 112.395 22.3982C112.395 20.1422 113.096 18.3126 114.547 16.7783C115.646 15.6161 116.62 15.0227 118.223 14.5378C119.123 14.2654 119.198 14.2571 120.7 14.26C122.144 14.2628 122.302 14.2793 123.024 14.5026C124.296 14.8962 125.326 15.4905 126.3 16.3923L126.649 16.7163L128.532 14.8078L127.939 14.2388C125.871 12.2548 122.543 11.2571 119.194 11.6175ZM162.569 11.6175C157.895 12.1205 154.204 15.2448 153.144 19.5952C152.661 21.5753 152.671 23.3984 153.173 25.3896C153.62 27.1608 154.434 28.6218 155.725 29.9709C157.282 31.5977 159.02 32.5513 161.364 33.0639C162.839 33.3864 164.791 33.4057 166.27 33.1121C168.412 32.6868 170.396 31.6584 171.669 30.3137L171.948 30.0191L171.368 29.4582C171.049 29.1497 170.607 28.7267 170.385 28.518L169.983 28.1388L169.543 28.5583C168.615 29.4426 167.469 30.081 166.184 30.43C165.562 30.5988 165.239 30.6288 164.032 30.63C162.74 30.6314 162.534 30.6096 161.751 30.3906C160.195 29.9551 159.062 29.2951 158.03 28.2226C156.504 26.6383 155.77 24.7606 155.77 22.4433C155.77 20.1455 156.46 18.3386 157.935 16.7693C159.018 15.6168 160.144 14.9463 161.751 14.4957C162.547 14.2728 162.726 14.2549 164.118 14.2595C165.502 14.2641 165.687 14.2837 166.399 14.5001C167.637 14.8771 168.708 15.49 169.631 16.351L170.023 16.7169L171.902 14.8193L171.431 14.3346C169.497 12.3447 165.941 11.2545 162.569 11.6175ZM138.677 12.5431C138.508 12.9125 138.126 13.7606 137.829 14.4279C137.531 15.0951 137.075 16.109 136.816 16.6809C136.556 17.2528 136.064 18.3446 135.722 19.1072C135.379 19.8697 135.01 20.6886 134.902 20.9269C134.793 21.1652 134.406 22.0231 134.041 22.8333C133.677 23.6435 133.114 24.8913 132.791 25.6062C132.467 26.3211 131.615 28.2123 130.897 29.8089C130.178 31.4055 129.554 32.7801 129.51 32.8635C129.435 33.0052 129.529 33.0151 130.965 33.0151H132.501L132.701 32.5602C132.81 32.31 133.227 31.3449 133.627 30.4155C134.027 29.4861 134.466 28.4817 134.602 28.1836L134.849 27.6413L146.084 27.6859L146.702 29.1157C147.042 29.9021 147.438 30.8184 147.582 31.1521C147.726 31.4857 147.967 32.0413 148.118 32.3869L148.392 33.0151H149.93C150.775 33.0151 151.467 33.001 151.467 32.9837C151.467 32.9665 151.347 32.6838 151.2 32.3555C151.053 32.0273 150.855 31.5832 150.76 31.3687C150.598 31.005 149.46 28.4875 149.016 27.5126C148.697 26.811 147.594 24.3716 146.606 22.1834C146.1 21.0634 145.422 19.5621 145.1 18.8472C143.66 15.6597 142.572 13.2463 142.277 12.5873L141.957 11.8731L138.984 11.8716L138.677 12.5431ZM140.046 15.7927C139.362 17.3166 138.491 19.2887 137.568 21.4035C137.058 22.5712 136.472 23.9069 136.266 24.3719C136.059 24.8369 135.89 25.2366 135.89 25.2601C135.89 25.2837 137.943 25.3029 140.451 25.3029C142.96 25.3029 145.013 25.2846 145.013 25.2622C145.013 25.2261 144.223 23.4158 143.292 21.3168C143.112 20.9117 142.82 20.2488 142.642 19.8437C142.465 19.4386 142.214 18.8732 142.086 18.5873C141.958 18.3013 141.55 17.3751 141.18 16.5292C140.81 15.6833 140.484 14.9911 140.456 14.9911C140.428 14.9911 140.243 15.3518 140.046 15.7927ZM87.8615 50.4259C87.3153 50.9759 87.741 51.819 88.565 51.819C89.3724 51.819 89.7914 50.9692 89.2517 50.4259C89.0387 50.2115 88.9321 50.1726 88.5566 50.1726C88.1811 50.1726 88.0745 50.2115 87.8615 50.4259ZM134.606 50.3969C134.323 50.6365 134.249 51.0515 134.43 51.3905C134.672 51.8457 135.533 51.9372 135.942 51.5511C136.234 51.2742 136.232 50.6822 135.937 50.3853C135.632 50.078 134.975 50.0837 134.606 50.3969ZM144.7 50.3261C144.08 50.832 144.348 51.6824 145.162 51.7923C145.544 51.8439 145.985 51.6605 146.129 51.3905C146.248 51.1659 146.236 50.6811 146.107 50.5117C145.834 50.1537 145.04 50.0489 144.7 50.3261ZM150.763 50.4215C150.395 50.752 150.379 51.1956 150.72 51.5397C150.919 51.74 151.027 51.7757 151.433 51.7757C151.851 51.7757 151.939 51.7447 152.12 51.5325C152.407 51.197 152.405 50.6759 152.116 50.3853C151.798 50.0646 151.14 50.0822 150.763 50.4215ZM158.259 50.4259C157.713 50.9759 158.139 51.819 158.963 51.819C159.77 51.819 160.189 50.9692 159.65 50.4259C159.437 50.2115 159.33 50.1726 158.954 50.1726C158.579 50.1726 158.472 50.2115 158.259 50.4259ZM18.6752 57.9714H20.2243V56.43C20.2243 55.0039 20.2388 54.8597 20.4179 54.502C20.7425 53.8539 21.5703 53.6088 22.1767 53.981C22.6435 54.2676 22.6731 54.3953 22.7057 56.26L22.7356 57.9714H24.1831V56.2935C24.1831 55.3707 24.1452 54.4145 24.0989 54.1687C23.9334 53.2896 23.2708 52.659 22.3973 52.5491C21.7616 52.4692 20.9605 52.6237 20.5739 52.9008L20.2673 53.1205L20.2197 50.6059H18.6752V57.9714ZM39.3298 57.9714H40.7929V50.6059H39.3298V57.9714ZM137.525 57.9714H138.959L138.921 57.7115C138.88 57.436 138.988 57.3717 139.153 57.572C139.207 57.6382 139.453 57.7797 139.699 57.8863C140.903 58.4076 142.485 57.855 143.029 56.723C143.417 55.9166 143.431 54.708 143.063 53.9256C142.855 53.4851 142.32 52.963 141.871 52.763C141.062 52.4028 139.934 52.4683 139.36 52.9087C139.209 53.0243 139.064 53.1188 139.037 53.1188C139.01 53.1188 138.988 52.5534 138.988 51.8623V50.6059H137.525V57.9714ZM147.551 57.9714H149.057V50.6059H147.551V57.9714ZM0 52.2523H2.23758V57.9714H3.78668V52.2523H6.02426V50.9525H0V52.2523ZM65.2341 57.9714H66.7832V50.9525H65.2341V57.9714ZM109.9 57.9714H111.443L111.492 56.1084L112.697 56.0512C113.993 55.9896 114.279 55.9293 114.834 55.6007C115.578 55.16 115.95 54.4776 115.949 53.5541C115.948 52.4697 115.355 51.6137 114.325 51.209C113.859 51.0262 113.648 51.0058 111.858 50.9714L109.9 50.9339V57.9714ZM153.963 52.6855H153.188V53.8987H153.943L153.977 55.3501C154.008 56.6982 154.026 56.8292 154.223 57.1882C154.487 57.6678 154.867 57.9323 155.474 58.0592C155.98 58.1649 156.729 58.0651 157.016 57.8536C157.158 57.7489 157.158 57.7181 157.01 57.2453C156.875 56.8137 156.831 56.7542 156.678 56.7994C156.143 56.958 155.971 56.9481 155.738 56.7454C155.504 56.5417 155.504 56.5409 155.487 55.2233L155.469 53.9049L156.846 53.8554L156.897 52.6926L155.483 52.6422L155.524 51.3857H153.963V52.6855ZM111.513 52.3031C111.478 52.3387 111.449 52.9065 111.449 53.5649V54.7619L111.669 54.8175C112.082 54.9218 113.28 54.8042 113.693 54.6189C114.583 54.2186 114.601 52.8815 113.722 52.4257C113.453 52.2862 111.63 52.185 111.513 52.3031ZM7.99944 52.6245C7.17266 52.8611 6.44734 53.5321 6.16566 54.3209C5.9462 54.9355 5.99345 55.9507 6.26781 56.5155C6.67075 57.3449 7.43936 57.8711 8.52149 58.0584C8.97778 58.1374 9.2018 58.1303 9.72376 58.0208C10.3474 57.8899 11.0954 57.517 11.1661 57.3018C11.1852 57.2433 11.0307 57.0139 10.8225 56.7921L10.4441 56.3888L10.075 56.6347C9.76145 56.8436 9.61997 56.8803 9.1345 56.8786C8.47175 56.8764 8.1121 56.7207 7.80572 56.3034C7.35227 55.6859 7.25442 55.7184 9.5679 55.7184H11.6431L11.5948 55.0757C11.5682 54.7222 11.4698 54.2582 11.3759 54.0446C11.1593 53.5516 10.5908 52.9764 10.1072 52.761C9.62324 52.5455 8.52424 52.4744 7.99944 52.6245ZM14.4152 52.6341C12.9433 53.0003 12.1234 54.2953 12.395 55.8252C12.6131 57.0542 13.417 57.8051 14.7812 58.0542C15.7211 58.2258 16.8481 57.8624 17.376 57.2175C17.5231 57.0379 17.6309 56.8535 17.6158 56.8077C17.6007 56.7618 17.3477 56.5915 17.0538 56.4291L16.5194 56.1338L16.3418 56.3611C15.7818 57.0779 14.6624 57.0033 14.0789 56.2104C13.9329 56.012 13.8988 55.8397 13.8988 55.3005C13.8988 54.5226 14.0767 54.1831 14.6341 53.8967C15.2402 53.5854 15.9419 53.7446 16.3681 54.29L16.5255 54.4916L17.0839 54.179C17.3912 54.0071 17.6423 53.8445 17.6421 53.8176C17.6411 53.657 17.2749 53.2126 16.9662 52.9972C16.3143 52.5426 15.3402 52.4039 14.4152 52.6341ZM27.9911 52.6699C27.7425 52.7592 27.4683 52.8968 27.3819 52.9756C27.1602 53.1776 27.1092 53.1557 27.1092 52.8588V52.5989H25.6461V57.9714H27.1092L27.1112 56.6066C27.1136 55.1001 27.1976 54.5651 27.4802 54.2558C28.0792 53.6003 29.1782 53.695 29.4691 54.427C29.5757 54.6951 29.6049 55.1138 29.6049 56.3701V57.9714H31.1709L31.1387 56.0867C31.1091 54.3496 31.0913 54.1681 30.911 53.7698C30.6705 53.2385 30.4394 52.9821 29.9922 52.7501C29.5015 52.4955 28.5789 52.4586 27.9911 52.6699ZM34.3573 52.6377C33.4677 52.8546 32.6654 53.6123 32.4313 54.4568C32.3024 54.9212 32.3099 55.7821 32.4465 56.2038C32.7139 57.0297 33.4004 57.6936 34.2467 57.9448C35.7255 58.3837 37.3306 57.7552 37.8922 56.5174C38.0408 56.1897 38.0776 55.9446 38.0774 55.2852C38.077 54.564 38.0487 54.4075 37.8495 54.0232C37.6128 53.5667 37.1048 53.045 36.6886 52.8309C36.0918 52.5241 35.1453 52.4456 34.3573 52.6377ZM44.0822 52.6321C42.8313 52.9527 42.0829 53.9717 42.0846 55.3519C42.0864 56.8073 42.9748 57.8051 44.4869 58.0503C45.0884 58.1479 45.3238 58.1211 46.1238 57.8642C48.3165 57.1602 48.4695 53.8589 46.3576 52.8186C45.7965 52.5421 44.7634 52.4575 44.0822 52.6321ZM50.4998 52.6337C49.3803 52.9372 48.6884 53.9128 48.7012 55.1703C48.7088 55.9098 48.8747 56.3725 49.3123 56.8743C50.1203 57.8009 51.7468 58.0518 52.6881 57.395C52.8687 57.2689 53.0399 57.1893 53.0685 57.218C53.097 57.2467 53.0936 57.4491 53.0611 57.6678C52.9372 58.4993 52.2043 58.929 51.1381 58.7955C50.5577 58.7228 49.928 58.5229 49.7334 58.3496C49.5777 58.2109 49.5058 58.2891 49.1591 58.9744L48.9805 59.3276L49.2112 59.4613C49.8189 59.8135 50.6301 59.9955 51.5935 59.9958C52.4477 59.9959 52.5927 59.972 53.0791 59.7513C53.732 59.4549 54.1363 59.0254 54.3801 58.3694C54.5514 57.9084 54.5626 57.7162 54.5626 55.2385V52.5989H53.1856V52.9022C53.1856 53.069 53.1621 53.2055 53.1335 53.2055C53.1048 53.2055 52.9674 53.1089 52.8282 52.991C52.3187 52.5593 51.3326 52.408 50.4998 52.6337ZM70.7606 52.6761C70.5104 52.7631 70.2104 52.9245 70.0937 53.0349L69.8814 53.2357V52.5989H68.4184V57.9714H69.8814L69.8835 56.6066C69.8858 55.1001 69.9698 54.5651 70.2524 54.2558C70.824 53.6303 71.9174 53.6857 72.2333 54.3561C72.3521 54.6084 72.3772 54.949 72.3772 56.3164V57.9714H73.945L73.9104 56.0434C73.8778 54.2352 73.8633 54.0911 73.6765 53.7254C73.5671 53.5109 73.3568 53.2076 73.2093 53.0515C72.7194 52.5323 71.6466 52.3679 70.7606 52.6761ZM76.8093 52.5652C76.0888 52.7527 75.8052 52.8985 75.4886 53.2444C75.0422 53.732 74.9439 54.2502 75.1861 54.8386C75.4273 55.4245 75.8746 55.6684 77.1047 55.8849C78.1797 56.0741 78.469 56.2342 78.3601 56.5798C78.1978 57.0945 76.7451 57.0806 75.5588 56.553C75.4607 56.5093 75.3673 56.6171 75.193 56.9748C75.0644 57.2391 74.959 57.4919 74.959 57.5366C74.959 57.6491 75.9927 57.9599 76.7054 58.0616C77.7763 58.2146 79.1123 57.8551 79.4976 57.3102C79.905 56.7341 79.9104 56.0209 79.5114 55.5101C79.2492 55.1746 78.9619 55.0548 77.9192 54.8466C76.8018 54.6236 76.5081 54.4917 76.5081 54.2132C76.5081 53.8568 76.8025 53.688 77.4839 53.6536C77.957 53.6296 78.2102 53.6646 78.5736 53.8039C78.8339 53.9036 79.0732 53.9853 79.1052 53.9853C79.1945 53.9854 79.6114 53.0239 79.559 52.9386C79.4139 52.7021 77.3568 52.4227 76.8093 52.5652ZM83.1641 52.631C82.9672 52.696 82.69 52.8324 82.5483 52.9341C82.2139 53.1738 82.1881 53.1685 82.1881 52.8588V52.5989H80.8112V59.9645H82.2742V58.7513C82.2742 58.0841 82.2973 57.5382 82.3255 57.5382C82.3536 57.5382 82.4851 57.6159 82.6177 57.7109C82.7503 57.806 83.0962 57.945 83.3864 58.0199C84.0033 58.1791 84.6243 58.0909 85.2966 57.7489C87.1296 56.8165 87.0221 53.6217 85.1286 52.7551C84.6483 52.5353 83.6451 52.4719 83.1641 52.631ZM93.3525 52.6352C93.1266 52.6964 92.7877 52.8711 92.5995 53.0233L92.2572 53.3003V52.5989H90.7942V57.9714H92.3433L92.3447 56.4333C92.3461 55.0005 92.3594 54.8715 92.5397 54.5486C92.7703 54.1355 93.1922 53.899 93.6988 53.8989L94.0645 53.8987V53.2055C94.0645 52.4231 94.0825 52.4375 93.3525 52.6352ZM96.7552 52.6314C96.0592 52.8097 95.3783 53.3623 95.0309 54.0309C94.8318 54.4143 94.7421 55.2664 94.8423 55.8231C94.9658 56.5086 95.1053 56.7746 95.606 57.2787C96.5919 58.2714 98.7661 58.3682 99.7552 57.4634L100.005 57.2349L99.6211 56.8016C99.2858 56.4232 99.2176 56.3819 99.0821 56.4755C98.627 56.79 98.3779 56.8745 97.8942 56.8783C97.0995 56.8844 96.5427 56.5364 96.3506 55.9134L96.2905 55.7184H98.3096C100.611 55.7184 100.484 55.7658 100.382 54.9478C100.258 53.9488 99.692 53.1411 98.8553 52.7692C98.3343 52.5377 97.3682 52.4743 96.7552 52.6314ZM102.785 52.597C101.683 52.834 101.011 53.6697 101.209 54.555C101.376 55.3024 101.926 55.6701 103.168 55.8665C104.177 56.026 104.478 56.1613 104.478 56.4552C104.478 56.7973 104.15 56.9489 103.409 56.9489C102.808 56.9489 101.967 56.7566 101.771 56.5743C101.621 56.4347 101.556 56.495 101.295 57.0153C100.998 57.6077 100.993 57.5992 101.793 57.8485C103.7 58.4432 105.695 57.8789 105.895 56.6883C106.013 55.9838 105.661 55.3566 104.994 55.085C104.829 55.0176 104.309 54.8912 103.84 54.8042C102.876 54.6255 102.519 54.4156 102.623 54.0876C102.656 53.9827 102.803 53.8341 102.95 53.7575C103.325 53.5626 104.393 53.6304 104.874 53.8795L105.227 54.0623L105.462 53.5501C105.591 53.2684 105.672 52.9985 105.643 52.9506C105.469 52.6676 103.556 52.431 102.785 52.597ZM118.807 52.6278C118.57 52.6895 118.286 52.7894 118.176 52.8499C117.786 53.0624 117.285 53.589 117.059 54.0232C116.858 54.4079 116.83 54.5633 116.829 55.2852C116.828 56.0156 116.855 56.1649 117.072 56.6098C117.604 57.6994 118.999 58.2985 120.344 58.0145C121.362 57.7995 121.94 57.35 122.345 56.459C122.792 55.4745 122.585 54.1392 121.87 53.3976C121.171 52.6725 119.88 52.3479 118.807 52.6278ZM124.788 52.6452C123.896 52.8966 123.37 53.5175 123.381 54.3046C123.393 55.1826 124.077 55.7034 125.462 55.8914C126.334 56.0096 126.583 56.1154 126.654 56.3978C126.823 57.0759 125.284 57.1631 123.842 56.5573C123.747 56.5175 123.651 56.64 123.48 57.0208L123.249 57.5386L123.484 57.6614C124.262 58.0665 125.818 58.2044 126.687 57.9454C127.362 57.7443 127.725 57.4733 127.961 56.9954C128.223 56.4628 128.164 55.9319 127.795 55.5088C127.479 55.146 127.299 55.0734 126.091 54.8175C125.028 54.5924 124.723 54.4148 124.828 54.0813C124.86 53.9798 125.007 53.8341 125.154 53.7575C125.529 53.562 126.597 53.6304 127.081 53.881L127.437 54.0654L127.662 53.5416C127.786 53.2535 127.866 52.983 127.84 52.9406C127.643 52.6192 125.587 52.4202 124.788 52.6452ZM130.124 52.6452C129.245 52.893 128.71 53.5144 128.71 54.2882C128.71 55.1158 129.247 55.614 130.35 55.8096C131.51 56.0153 131.747 56.0811 131.886 56.2362C131.981 56.3417 132.012 56.4643 131.975 56.5838C131.815 57.0904 130.349 57.0733 129.17 56.5511C129.065 56.5046 128.981 56.6061 128.806 56.9928C128.541 57.5792 128.568 57.6247 129.305 57.8466C130.484 58.2014 131.605 58.1714 132.499 57.7615C133.421 57.338 133.72 56.2692 133.128 55.5114C132.867 55.1772 132.582 55.0567 131.58 54.8565C131.087 54.758 130.576 54.6338 130.446 54.5804C130.12 54.4476 130.045 54.1132 130.286 53.8708C130.561 53.5932 131.549 53.5585 132.189 53.8039C132.45 53.9036 132.692 53.9853 132.728 53.9853C132.822 53.9854 133.23 53.0286 133.175 52.9384C132.979 52.6189 130.92 52.4211 130.124 52.6452ZM162.941 52.5972C162.185 52.7593 161.491 53.318 161.133 54.0526C160.807 54.7205 160.792 55.779 161.098 56.4747C161.59 57.5923 163.087 58.3134 164.405 58.0681C165.014 57.9547 165.685 57.6671 165.909 57.4228L166.081 57.2349L165.701 56.8027C165.373 56.4296 165.3 56.3851 165.171 56.4766C164.718 56.7982 164.478 56.8768 163.941 56.8786C163.284 56.8809 162.895 56.6977 162.591 56.2425C162.232 55.7072 162.194 55.7184 164.41 55.7184H166.423L166.474 55.5124C166.549 55.2125 166.372 54.358 166.138 53.8944C165.899 53.4185 165.433 52.9847 164.911 52.7524C164.48 52.5602 163.481 52.4816 162.941 52.5972ZM168.679 52.6452C167.8 52.893 167.265 53.5144 167.265 54.2882C167.265 55.1406 167.836 55.6436 169.007 55.8247C170.369 56.0352 170.72 56.2332 170.491 56.6625C170.369 56.8933 170.134 56.9553 169.408 56.9487C168.869 56.9439 168.319 56.8139 167.724 56.5506C167.617 56.5033 167.537 56.6018 167.366 56.9922C167.165 57.4524 167.159 57.5042 167.288 57.6058C167.484 57.7608 168.185 57.9611 168.879 58.0613C169.858 58.2023 171.148 57.8979 171.593 57.4217C172.252 56.7149 172.088 55.5858 171.263 55.1564C171.134 55.089 170.606 54.9497 170.09 54.8468C169.148 54.6589 168.862 54.5605 168.745 54.384C168.346 53.7817 169.691 53.4008 170.765 53.812C171.014 53.9073 171.248 53.9853 171.284 53.9853C171.377 53.9854 171.785 53.0286 171.73 52.9384C171.534 52.6189 169.475 52.4211 168.679 52.6452ZM55.5004 52.7907C55.5418 52.8997 56.0636 54.1326 56.6599 55.5305C57.7288 58.0363 57.7422 58.0758 57.6106 58.3319C57.5343 58.4805 57.3448 58.6473 57.1678 58.7218C56.8617 58.8506 56.7835 58.8437 56.0687 58.6241C55.9273 58.5807 55.8542 58.6536 55.6599 59.0309C55.5297 59.2837 55.4232 59.5214 55.4232 59.5591C55.4232 59.5968 55.6072 59.7097 55.832 59.8101C56.4089 60.0677 57.3191 60.0626 57.8603 59.7988C58.5861 59.445 58.629 59.3654 60.5792 54.7442C61.0567 53.6126 61.4475 52.6669 61.4475 52.6428C61.4475 52.6186 61.128 52.5993 60.7375 52.5999L60.0275 52.6009L59.5221 53.8347C59.2442 54.5133 58.9156 55.3318 58.7921 55.6534C58.6685 55.9751 58.5419 56.2383 58.5107 56.2383C58.4592 56.2383 57.9882 55.1403 57.2659 53.3354L56.9884 52.6422L55.425 52.5924L55.5004 52.7907ZM87.7821 57.9714H89.3312V52.5989H87.7821V57.9714ZM134.513 57.9714H135.976V52.5989H134.513V57.9714ZM144.539 57.9714H146.045V52.5989H144.539V57.9714ZM150.693 57.9714H152.156V52.5989H150.693V57.9714ZM158.18 57.9714H159.729V52.5989H158.18V57.9714ZM8.17441 53.799C7.84058 53.9775 7.415 54.6404 7.54823 54.7746C7.59453 54.8212 8.18525 54.8463 8.91401 54.8327C10.143 54.8096 10.1971 54.8011 10.1718 54.6353C10.1338 54.3854 9.88142 54.0584 9.55362 53.8337C9.1975 53.5896 8.59455 53.5744 8.17441 53.799ZM96.9253 53.8116C96.6235 53.9969 96.303 54.4541 96.3025 54.7002C96.3021 54.8382 96.4229 54.8519 97.6361 54.8519C98.8771 54.8519 98.97 54.8407 98.97 54.6914C98.97 54.4398 98.6124 53.9755 98.2829 53.7992C97.8864 53.587 97.282 53.5925 96.9253 53.8116ZM163.035 53.8026C162.68 54.0204 162.397 54.3951 162.397 54.647V54.8519H163.683C164.459 54.8519 164.99 54.8171 165.022 54.764C165.118 54.6084 164.688 53.9649 164.378 53.799C163.989 53.5911 163.376 53.5927 163.035 53.8026ZM34.5534 53.9222C34.1137 54.1698 33.8219 54.7242 33.8219 55.3121C33.8219 55.8094 33.989 56.2046 34.3437 56.5469C34.557 56.7526 34.6885 56.7991 35.1358 56.8268C35.5894 56.855 35.7187 56.8287 35.9734 56.6564C36.8839 56.0407 36.8056 54.3672 35.8444 53.8987C35.3833 53.674 34.9811 53.6813 34.5534 53.9222ZM44.3179 53.9249C43.3482 54.4413 43.3002 56.0259 44.2353 56.6569C44.6536 56.9392 45.4945 56.8993 45.8328 56.5811C46.1934 56.2418 46.3304 55.896 46.3318 55.3217C46.3334 54.6494 46.1068 54.1858 45.6477 53.9217C45.2156 53.6733 44.7885 53.6743 44.3179 53.9249ZM50.9829 53.8904C50.2939 54.2054 50.0045 55.0521 50.3441 55.7587C50.5822 56.2539 51.0091 56.4983 51.6358 56.4983C52.5767 56.4983 53.0565 56.0395 53.0565 55.1398C53.0565 54.5158 52.8921 54.2282 52.3599 53.9217C51.9483 53.6847 51.457 53.6736 50.9829 53.8904ZM83.0057 53.9222C82.5679 54.1687 82.2742 54.7245 82.2742 55.3063C82.2742 55.825 82.4311 56.2058 82.7814 56.5377C83.0087 56.7528 83.1371 56.7989 83.5881 56.8268C84.0414 56.855 84.1712 56.8286 84.4257 56.6569C84.5914 56.545 84.8141 56.2799 84.9206 56.0676C85.6116 54.6902 84.2837 53.2023 83.0057 53.9222ZM119.059 53.9003C118.099 54.3785 118.025 56.0405 118.936 56.6564C119.193 56.8298 119.319 56.8551 119.786 56.826C120.288 56.7949 120.36 56.7649 120.62 56.4788C121.334 55.694 121.171 54.3392 120.308 53.896C119.884 53.6785 119.501 53.6798 119.059 53.9003ZM139.72 53.9222C138.784 54.4493 138.759 56.0375 139.677 56.6569C139.931 56.8286 140.061 56.855 140.515 56.8268C140.987 56.7975 141.089 56.7578 141.353 56.5005C141.736 56.1269 141.862 55.7368 141.805 55.1029C141.751 54.5022 141.524 54.1403 141.05 53.8967C140.614 53.6728 140.147 53.6817 139.72 53.9222Z" fill="#4DC1FD"/>
<path d="M2.743 25.5866C1.41643 18.2954 4.93358 10.9794 11.4391 7.50195C19.3729 3.26248 29.2102 5.82082 34.1087 13.3978C30.2385 2.70542 17.3515 -1.39402 8.07833 5.11736C1.5518 9.70046 -0.708055 18.3706 2.743 25.5866Z" fill="#4DC1FD"/>
<path d="M1.99266e-06 24.1956C2.30959 29.4838 6.84519 33.4572 12.3666 35.0301C17.1063 36.3801 22.1822 35.8326 26.5303 33.5022L25.2343 24.447C24.5122 27.0207 22.9378 29.2686 20.7749 30.8192C18.6695 32.3279 16.1261 33.0909 13.5436 32.9873C16.7239 31.8524 19.4066 29.6271 21.1183 26.7016C22.0429 25.1242 22.6482 23.3979 23.103 21.6478C23.6377 19.589 23.9682 17.4707 24.0833 15.3239L27.7221 15.3309L29.7885 29.9809C31.2532 28.1631 32.332 26.0638 32.9576 23.8103C33.3474 22.4131 33.5555 20.9762 33.6334 19.5351C33.7114 18.1175 33.6631 16.6921 33.4868 15.2756L37.1219 15.2948L40.1017 33.1169L35.9374 33.2013L34.4911 24.0952C33.199 31.511 27.3082 37.2469 19.8987 38.297C10.6085 39.6152 1.89757 33.4424 0.000120015 24.1956H1.99266e-06Z" fill="#4DC1FD"/>
<path d="M42.2715 20.2084V33.1091H45.3615L45.3527 20.1958L42.2715 20.2084Z" fill="#4DC1FD"/>
<path d="M42.2715 15.3661V18.4201H45.3615L45.3527 15.363L42.2715 15.3661Z" fill="#4DC1FD"/>
<path d="M57.5066 15.3259L60.6166 15.3309L60.637 33.2243H57.4049L57.3001 23.7318C56.6627 23.0599 55.8382 22.6458 54.9666 22.515C54.3853 22.4279 53.7725 22.4681 53.2085 22.7255C51.9825 23.2842 51.4179 24.6451 51.2921 26.0124C51.1633 27.4178 51.475 28.8974 52.5717 29.7629C53.3091 30.3452 54.2257 30.5262 55.0967 30.4441C55.9176 30.3661 56.7229 30.053 57.4067 29.4956L57.7071 31.3155C56.98 32.1131 56.0681 32.6629 55.0852 32.946C53.4252 33.4245 51.5895 33.1488 50.1316 32.0519C48.3976 30.7475 47.6362 28.5613 47.7367 26.3728C47.8197 24.5688 48.4819 22.8126 49.824 21.6169C51.008 20.562 52.5698 20.0853 54.1517 20.0635C54.7529 20.0551 55.3536 20.113 55.9368 20.2579C56.4791 20.3928 56.9997 20.6004 57.4843 20.8771L57.5066 15.3259Z" fill="#4DC1FD"/>
<path d="M74.3326 28.7043C73.8251 29.3776 73.1822 29.9138 72.4551 30.2907C71.0329 31.0269 69.3246 31.1001 68.0321 30.239C67.0245 29.5674 66.4591 28.4338 66.2119 27.2415C65.9781 26.1133 66.0316 24.922 66.6098 23.926C67.2391 22.8411 68.4067 22.1863 69.6587 22.2477C71.2206 22.3254 72.5198 23.4826 72.7849 25.0329L65.5788 25.2212L65.6275 26.9943L75.691 27.0199C76.0471 23.2667 73.1392 20.0724 69.3928 20.0576C65.6441 20.0423 62.7595 23.2052 62.997 26.9965C63.1938 30.1511 65.5511 32.6731 68.6645 33.1243C70.1446 33.3392 71.6315 33.0179 72.8648 32.2322C74.0379 31.4857 74.9386 30.3455 75.3864 28.9787L74.3326 28.7044L74.3326 28.7043Z" fill="#4DC1FD"/>
<path d="M77.9333 23.7569C78.4463 22.517 79.3503 21.481 80.5058 20.808C81.7737 20.0696 83.2602 19.8103 84.7075 20.0461C85.6625 20.2017 86.5635 20.5641 87.2728 21.1824C87.9336 21.7582 88.4068 22.5387 88.6031 23.4228L88.6138 33.0742L85.7843 33.1147L85.8798 27.5144C85.0156 26.8668 83.9537 26.5846 82.9005 26.6972C82.0751 26.7854 81.2616 27.1274 80.8037 27.8474C80.468 28.3763 80.3745 28.999 80.5696 29.5614C80.7169 29.9842 81.0137 30.3337 81.3884 30.5759C82.1605 31.0741 83.086 31.0657 83.9123 30.8536C84.6967 30.6513 85.4403 30.2504 86.0678 29.6461L86.4383 31.24C84.8081 33.0412 82.3608 33.538 80.2472 32.7448C79.4541 32.4475 78.7126 31.96 78.2434 31.2406C77.7094 30.4225 77.5755 29.3939 77.8019 28.333C77.9996 27.4032 78.4846 26.6061 79.2006 26.0253C79.8721 25.4808 80.726 25.1489 81.6066 24.9779C82.9914 24.7086 84.4224 24.8038 85.7597 25.2539C85.9825 23.9632 85.2746 22.6895 84.0631 22.2078C83.6557 22.0454 83.2331 21.9884 82.8146 21.9884C82.3638 21.9884 81.9157 22.0544 81.4889 22.2008C80.4996 22.5408 79.6727 23.2856 79.2476 24.2998L77.9332 23.7569L77.9333 23.7569Z" fill="#4DC1FD"/>
<path d="M89.6896 18.8777C89.6896 18.402 89.8574 17.9974 90.193 17.6639C90.5286 17.326 90.9348 17.157 91.4117 17.157C91.8798 17.157 92.2816 17.326 92.6172 17.6639C92.9528 17.9974 93.1206 18.402 93.1206 18.8777C93.1206 19.3623 92.9528 19.7736 92.6172 20.1115C92.2861 20.4494 91.8842 20.6184 91.4117 20.6184C90.9304 20.6184 90.522 20.4494 90.1864 20.1115C89.8552 19.7736 89.6896 19.3623 89.6896 18.8777ZM91.4051 17.5905C91.0519 17.5905 90.7494 17.7173 90.4977 17.9707C90.246 18.2241 90.1201 18.5287 90.1201 18.8844C90.1201 19.2401 90.246 19.5446 90.4977 19.7981C90.7494 20.0515 91.0519 20.1782 91.4051 20.1782C91.7584 20.1782 92.0609 20.0515 92.3126 19.7981C92.5642 19.5446 92.6901 19.2401 92.6901 18.8844C92.6901 18.5287 92.5642 18.2241 92.3126 17.9707C92.0609 17.7173 91.7584 17.5905 91.4051 17.5905ZM91.1203 19.1178V19.7914H90.756V17.924H91.4051C91.882 17.924 92.1205 18.1174 92.1205 18.5042C92.1205 18.6332 92.0829 18.7465 92.0079 18.8444C91.9372 18.9422 91.8423 19.0089 91.723 19.0444L92.2132 19.7914H91.7827L91.3654 19.1178H91.1203ZM91.3587 18.1908H91.1203V18.851H91.3786C91.4846 18.851 91.5729 18.8199 91.6436 18.7577C91.7186 18.691 91.7562 18.6087 91.7562 18.5109C91.7562 18.4131 91.7208 18.3353 91.6502 18.2775C91.584 18.2197 91.4868 18.1908 91.3587 18.1908Z" fill="#4DC1FD"/>
</svg>
