<svg width="26" height="26" viewBox="0 0 26 26" fill="none" xmlns="http://www.w3.org/2000/svg">
<g clip-path="url(#clip0_61_135)">
<path d="M18.7912 19.8974C19.1933 20.5338 19.3139 21.2817 19.1307 22.0054C19.0417 22.3615 18.8803 22.6971 18.6559 22.9928C18.4314 23.2884 18.1483 23.5383 17.823 23.7278L15.4275 25.1326C14.977 25.3974 14.4595 25.5375 13.9318 25.5376C13.465 25.5376 12.9944 25.4289 12.5576 25.2097C7.52746 22.6966 4.65559 18.9646 3.39131 16.9643C0.589836 12.5309 0.00157471 8.16251 0.000610352 5.27967C0.000610352 4.30788 0.519437 3.42156 1.38929 2.91059L3.78573 1.50586C4.10978 1.31441 4.4701 1.18692 4.84573 1.13078C5.22137 1.07464 5.60484 1.09097 5.97387 1.17883C6.72414 1.35442 7.35966 1.8013 7.76083 2.4377L9.26524 4.81793C9.66331 5.44968 9.78503 6.20774 9.6037 6.92584C9.42237 7.64393 8.9528 8.26342 8.29798 8.64841L7.05685 9.37586C6.68461 9.59418 6.50331 10.0327 6.62771 10.4173C7.45204 12.9833 8.92307 15.3127 10.9095 17.1975C11.0621 17.3389 11.2594 17.427 11.4699 17.4478C11.6805 17.4687 11.8922 17.4212 12.0715 17.3127L13.3117 16.5853C13.9673 16.2015 14.7542 16.0839 15.4996 16.2585C16.2451 16.433 16.8882 16.8853 17.2878 17.5162L18.7922 19.8974H18.7912ZM13.086 8.73017C14.0965 8.88168 15.0033 9.41304 15.6076 10.2077C16.212 11.0024 16.4645 11.9956 16.3099 12.9694C16.2906 13.09 16.2961 13.2131 16.3262 13.3317C16.3563 13.4502 16.4103 13.5619 16.4851 13.6603C16.56 13.7587 16.6542 13.842 16.7625 13.9054C16.8708 13.9687 16.9909 14.0109 17.1161 14.0295C17.2413 14.0481 17.3691 14.0428 17.4921 14.0138C17.6152 13.9848 17.7311 13.9328 17.8333 13.8607C17.9354 13.7886 18.0219 13.6977 18.0876 13.5934C18.1534 13.4891 18.1971 13.3734 18.2164 13.2528C18.4487 11.792 18.0701 10.3022 17.1636 9.10999C16.2571 7.91782 14.8969 7.12069 13.3811 6.89343C13.1311 6.86133 12.878 6.92488 12.676 7.07045C12.4741 7.21602 12.3393 7.43203 12.3007 7.67216C12.2621 7.9123 12.3227 8.15745 12.4695 8.35505C12.6163 8.55265 12.8377 8.68698 13.086 8.72924V8.73017ZM13.9684 3.22089C13.7207 3.19382 13.4717 3.26014 13.2736 3.40595C13.0755 3.55177 12.9436 3.76577 12.9056 4.00315C12.8676 4.24053 12.9264 4.48287 13.0697 4.67943C13.213 4.87598 13.4296 5.01151 13.6743 5.05762C15.711 5.3605 17.5028 6.40939 18.7208 8.01108C19.9388 9.61276 20.4364 11.5749 20.122 13.5371C20.0939 13.7757 20.1628 14.0156 20.3141 14.2065C20.4655 14.3973 20.6876 14.5244 20.934 14.561C21.1804 14.5976 21.432 14.541 21.636 14.4029C21.84 14.2649 21.9807 14.0562 22.0286 13.8204C22.422 11.3677 21.8 8.91505 20.2773 6.91294C18.7546 4.91083 16.5144 3.59994 13.9684 3.22089ZM14.5567 -0.451653C14.304 -0.488517 14.0464 -0.427518 13.8402 -0.281985C13.634 -0.136453 13.496 0.0817822 13.4564 0.325034C13.3754 0.831368 13.736 1.30611 14.2626 1.38508C20.5685 2.3225 24.9072 8.0278 23.9342 14.1038C23.9061 14.3425 23.9749 14.5823 24.1263 14.7732C24.2776 14.9641 24.4997 15.0911 24.7461 15.1277C24.9925 15.1643 25.2441 15.1077 25.4481 14.9697C25.6522 14.8316 25.7928 14.6229 25.8407 14.3872C26.9767 7.29943 21.9148 0.643699 14.5567 -0.450723V-0.451653Z" fill="black"/>
</g>
<defs>
<clipPath id="clip0_61_135">
<rect width="26" height="26" fill="white"/>
</clipPath>
</defs>
</svg>
