<svg width="26" height="26" viewBox="0 0 26 26" fill="none" xmlns="http://www.w3.org/2000/svg">
<g clip-path="url(#clip0_61_95)">
<path d="M0.912294 16.0385V4.97643C0.912294 4.36174 1.41059 3.8634 2.02532 3.8634H13.0817C13.6964 3.8634 14.1947 4.36174 14.1947 4.97643V16.0385C14.1947 16.0873 14.1851 16.1355 14.1665 16.1805C14.1478 16.2255 14.1205 16.2664 14.086 16.3009C14.0516 16.3354 14.0107 16.3627 13.9657 16.3813C13.9206 16.4 13.8724 16.4096 13.8237 16.4096H1.2833C1.23458 16.4096 1.18633 16.4 1.14131 16.3813C1.0963 16.3627 1.0554 16.3353 1.02095 16.3009C0.986493 16.2664 0.959166 16.2255 0.940523 16.1805C0.921881 16.1355 0.912289 16.0872 0.912294 16.0385ZM9.84066 19.8281C9.84066 21.1031 8.80708 22.1366 7.53218 22.1366C6.25729 22.1366 5.22371 21.1031 5.22371 19.8281C5.22371 18.5531 6.25729 17.5196 7.53218 17.5196C8.80708 17.5196 9.84066 18.5531 9.84066 19.8281ZM8.68638 19.8281C8.68638 19.1907 8.16961 18.6739 7.53214 18.6739C6.89467 18.6739 6.37786 19.1907 6.37786 19.8281C6.37786 20.4656 6.89467 20.9824 7.53214 20.9824C8.16961 20.9824 8.68638 20.4656 8.68638 19.8281ZM5.54391 17.5196H0.37101C0.272612 17.5196 0.178244 17.5587 0.108666 17.6283C0.0390884 17.6979 0 17.7922 0 17.8906L0 19.0162C0 19.1146 0.0390884 19.209 0.108666 19.2786C0.178244 19.3481 0.272612 19.3872 0.37101 19.3872H4.51733C4.62558 18.6444 5.0005 17.9883 5.54391 17.5196ZM21.9189 19.8281C21.9189 21.1031 20.8854 22.1366 19.6105 22.1366C18.3355 22.1366 17.302 21.1031 17.302 19.8281C17.302 18.5531 18.3355 17.5196 19.6105 17.5196C20.8854 17.5196 21.9189 18.5531 21.9189 19.8281ZM20.7647 19.8281C20.7647 19.1907 20.2479 18.6739 19.6105 18.6739C18.9729 18.6739 18.4562 19.1907 18.4562 19.8281C18.4562 20.4656 18.973 20.9824 19.6105 20.9824C20.2479 20.9824 20.7647 20.4656 20.7647 19.8281ZM26 17.8906V19.0162C26 19.1146 25.9609 19.209 25.8913 19.2786C25.8218 19.3481 25.7274 19.3872 25.629 19.3872H22.6252C22.4104 17.9138 21.1423 16.7776 19.6105 16.7776C18.0785 16.7776 16.8104 17.9138 16.5955 19.3872H10.547C10.4387 18.6445 10.0639 17.9883 9.52046 17.5196H15.2555V6.90757C15.2555 6.49777 15.5877 6.16555 15.9975 6.16555H19.5001C19.9858 6.16555 20.464 6.28474 20.8929 6.51265C21.3217 6.74057 21.6881 7.07025 21.9599 7.47277L24.2179 10.8171C24.5491 11.3077 24.7261 11.8861 24.7261 12.478V17.5196H25.629C25.7274 17.5196 25.8218 17.5587 25.8913 17.6283C25.9609 17.6979 26 17.7922 26 17.8906ZM22.2363 10.9028L20.4307 8.33706C20.3964 8.28841 20.351 8.2487 20.2982 8.22129C20.2454 8.19388 20.1868 8.17958 20.1273 8.17957H17.3108C17.2124 8.17958 17.1181 8.21868 17.0485 8.28825C16.9789 8.35783 16.9398 8.45219 16.9398 8.55058V11.1163C16.9398 11.165 16.9494 11.2133 16.968 11.2583C16.9867 11.3033 17.014 11.3442 17.0485 11.3787C17.0829 11.4131 17.1238 11.4404 17.1688 11.4591C17.2138 11.4777 17.2621 11.4873 17.3108 11.4873H21.933C22.2335 11.4873 22.4093 11.1486 22.2363 10.9028Z" fill="black"/>
</g>
<defs>
<clipPath id="clip0_61_95">
<rect width="26" height="26" fill="white"/>
</clipPath>
</defs>
</svg>
