<svg width="26" height="26" viewBox="0 0 26 26" fill="none" xmlns="http://www.w3.org/2000/svg">
<g clip-path="url(#clip0_61_105)">
<path d="M14.385 12.4633C14.6882 12.3086 15.024 12.2284 15.3644 12.2292C15.6465 12.2284 15.926 12.2834 16.1868 12.3911C16.4476 12.4987 16.6846 12.6568 16.8841 12.8563L17.7593 11.9812C19.9253 12.7404 22.4305 12.2544 24.1621 10.5229C25.6191 9.06592 26.1936 7.06134 25.8869 5.1718C25.8704 5.06976 25.826 4.97427 25.7587 4.89585C25.6913 4.81742 25.6036 4.75911 25.5053 4.72734C25.4069 4.69548 25.3016 4.69141 25.2011 4.71557C25.1006 4.73974 25.0087 4.7912 24.9355 4.86429L23.6359 6.16389C22.5776 7.22224 20.8616 7.22224 19.8032 6.16389C18.7448 5.10555 18.7448 3.3895 19.8032 2.33116L21.1028 1.03155C21.1759 0.95842 21.2274 0.866519 21.2516 0.765982C21.2758 0.665446 21.2718 0.560177 21.24 0.461783C21.2082 0.363389 21.1498 0.27569 21.0713 0.208355C20.9928 0.14102 20.8973 0.0966636 20.7952 0.0801762C18.9058 -0.226542 16.9011 0.348045 15.4442 1.805C13.6869 3.56229 13.214 6.11609 14.0222 8.30383L12.1239 10.2021L14.385 12.4633ZM10.9258 15.9032L8.67416 13.6516L0.800866 21.5248C-0.222888 22.5486 -0.222888 24.2084 0.800866 25.2321C1.82462 26.2559 3.48443 26.2559 4.50818 25.2321L11.2955 18.445C10.6109 17.7567 10.4875 16.7177 10.9258 15.9032Z" fill="black"/>
<path d="M15.9475 13.8012C15.7865 13.6402 15.5754 13.5597 15.3644 13.5597C15.1534 13.5597 14.9423 13.6402 14.7813 13.8012L14.3113 14.2712L5.93888 5.89879L6.33022 5.50746C6.68678 5.15098 6.64252 4.55963 6.23611 4.26036L2.82016 1.74462C2.66133 1.62764 2.46582 1.57148 2.26912 1.58632C2.07242 1.60116 1.88756 1.68603 1.74807 1.82551L0.297678 3.27599C0.158194 3.41548 0.0733326 3.60034 0.0584909 3.79704C0.0436491 3.99374 0.0998106 4.18925 0.216785 4.34809L2.73244 7.76403C3.03171 8.17035 3.62271 8.21506 3.97954 7.85814L4.37087 7.46671L12.7433 15.8391L12.2402 16.3422C12.1636 16.4188 12.1029 16.5097 12.0614 16.6097C12.02 16.7098 11.9986 16.817 11.9986 16.9253C11.9986 17.0336 12.02 17.1408 12.0614 17.2409C12.1029 17.3409 12.1636 17.4318 12.2402 17.5084L19.9639 25.2322C20.9877 26.2559 22.6475 26.2559 23.6712 25.2322C24.695 24.2084 24.695 22.5486 23.6712 21.5248L15.9475 13.8012Z" fill="black"/>
</g>
<defs>
<clipPath id="clip0_61_105">
<rect width="26" height="26" fill="white"/>
</clipPath>
</defs>
</svg>
