<svg width="67" height="130" viewBox="0 0 67 130" fill="none" xmlns="http://www.w3.org/2000/svg">
<mask id="path-1-inside-1_261_547" fill="white">
<path fill-rule="evenodd" clip-rule="evenodd" d="M0 129.97C0.664209 129.99 1.33092 130 2 130C37.8985 130 67 100.899 67 65C67 29.1015 37.8985 0 2 0C1.33092 0 0.664209 0.0101091 0 0.0301829V129.97Z"/>
</mask>
<path fill-rule="evenodd" clip-rule="evenodd" d="M0 129.97C0.664209 129.99 1.33092 130 2 130C37.8985 130 67 100.899 67 65C67 29.1015 37.8985 0 2 0C1.33092 0 0.664209 0.0101091 0 0.0301829V129.97Z" fill="white"/>
<path d="M0 129.97H-2V131.91L-0.060437 131.969L0 129.97ZM0 0.0301829L-0.0604167 -1.9689L-2 -1.91029V0.0301829H0ZM2 128C1.35106 128 0.704488 127.99 0.060437 127.971L-0.060437 131.969C0.62393 131.99 1.31079 132 2 132V128ZM65 65C65 99.7939 36.7939 128 2 128V132C39.0031 132 69 102.003 69 65H65ZM2 2C36.7939 2 65 30.2061 65 65H69C69 27.9969 39.0031 -2 2 -2V2ZM0.0604167 2.02927C0.704497 2.0098 1.35107 2 2 2V-2C1.31078 -2 0.623921 -1.98959 -0.0604167 -1.9689L0.0604167 2.02927ZM-2 0.0301829V129.97H2V0.0301829H-2Z" fill="#333333" mask="url(#path-1-inside-1_261_547)"/>
<path d="M14 55H44" stroke="#333333" stroke-width="2"/>
<path d="M14 65H44" stroke="#333333" stroke-width="2"/>
<path d="M14 75H44" stroke="#333333" stroke-width="2"/>
</svg>
