<svg width="26" height="26" viewBox="0 0 26 26" fill="none" xmlns="http://www.w3.org/2000/svg">
<path d="M9.90234 12.2383C10.3223 12.2383 10.6641 12.58 10.6641 13C10.6641 13.42 10.3223 13.7617 9.90234 13.7617C9.48238 13.7617 9.14062 13.42 9.14062 13C9.14062 12.58 9.48238 12.2383 9.90234 12.2383Z" fill="black"/>
<path d="M10.6641 9.26758V10.8459C10.4195 10.7589 10.1619 10.7146 9.90234 10.7148C8.64246 10.7148 7.61719 11.7401 7.61719 13C7.61719 14.2599 8.64246 15.2852 9.90234 15.2852C10.1695 15.2852 10.4259 15.2389 10.6641 15.1541V16.7324C10.4147 16.7832 10.1598 16.8086 9.90234 16.8086C7.80254 16.8086 6.09375 15.0998 6.09375 13C6.09375 10.9002 7.80254 9.19141 9.90234 9.19141C10.1598 9.19141 10.4147 9.2168 10.6641 9.26758Z" fill="black"/>
<path d="M4.57031 13C4.57031 15.9402 6.96211 18.332 9.90234 18.332C10.1588 18.332 10.4132 18.3143 10.6641 18.2777V22.9023H8.37891C7.95844 22.9023 7.61719 22.5611 7.61719 22.1406V21.062C6.9941 20.8848 6.39336 20.6339 5.82105 20.3125L5.05477 21.0793C4.75719 21.3769 4.27527 21.3769 3.9777 21.0793L1.82305 18.9246C1.52537 18.627 1.52654 18.1441 1.82305 17.8476L2.58984 17.0808C2.27013 16.5139 2.01854 15.9111 1.84031 15.2852H0.761719C0.34125 15.2852 0 14.9439 0 14.5234V11.4766C0 11.0561 0.34125 10.7148 0.761719 10.7148H1.84031C2.01754 10.0918 2.26789 9.49102 2.58984 8.91871L1.82305 8.15242C1.52654 7.85591 1.52537 7.37303 1.82305 7.07535L3.9777 4.9207C4.27527 4.62313 4.75719 4.62313 5.05477 4.9207L5.82156 5.6875C6.38848 5.36779 6.99121 5.1162 7.61719 4.93797V3.85938C7.61719 3.43891 7.95844 3.09766 8.37891 3.09766H10.6641V7.72231C10.4132 7.68574 10.1588 7.66797 9.90234 7.66797C6.96211 7.66797 4.57031 10.0598 4.57031 13ZM21.4297 3.54352V7.66797H25.5541L21.4297 3.54352ZM14.4727 7.66797H17.6211C18.0416 7.66797 18.3828 8.00922 18.3828 8.42969C18.3828 8.85016 18.0416 9.19141 17.6211 9.19141H14.4727C14.0522 9.19141 13.7109 8.85016 13.7109 8.42969C13.7109 8.00922 14.0522 7.66797 14.4727 7.66797ZM22.1914 18.332H14.4727C14.0522 18.332 13.7109 17.9908 13.7109 17.5703C13.7109 17.1498 14.0522 16.8086 14.4727 16.8086H22.1914C22.6119 16.8086 22.9531 17.1498 22.9531 17.5703C22.9531 17.9908 22.6119 18.332 22.1914 18.332ZM22.1914 15.2852H14.4727C14.0522 15.2852 13.7109 14.9439 13.7109 14.5234C13.7109 14.103 14.0522 13.7617 14.4727 13.7617H22.1914C22.6119 13.7617 22.9531 14.103 22.9531 14.5234C22.9531 14.9439 22.6119 15.2852 22.1914 15.2852ZM22.1914 12.2383H14.4727C14.0522 12.2383 13.7109 11.897 13.7109 11.4766C13.7109 11.0561 14.0522 10.7148 14.4727 10.7148H22.1914C22.6119 10.7148 22.9531 11.0561 22.9531 11.4766C22.9531 11.897 22.6119 12.2383 22.1914 12.2383ZM20.668 9.19141C20.2475 9.19141 19.9062 8.85016 19.9062 8.42969V3.09766H12.1875V22.9023H25.2383C25.6588 22.9023 26 22.5611 26 22.1406V9.19141H20.668Z" fill="black"/>
</svg>
