<svg width="26" height="26" viewBox="0 0 26 26" fill="none" xmlns="http://www.w3.org/2000/svg">
<path fill-rule="evenodd" clip-rule="evenodd" d="M3.04688 22.9023H0V9.19141H10.6641V22.9023H4.57031V24.4258H3.04688V22.9023ZM13.7109 1.57422H10.6641V4.62109H13.7109V1.57422ZM19.6644 10.7148H26V19.8555H22.7756C22.444 21.501 20.9653 22.9023 19.043 22.9023H18.2812V24.4258H16.7578V22.9023H12.1875V15.2852H19.043C20.8821 15.2852 22.4206 16.5958 22.7745 18.332H24.4766V12.2383H19.6644C19.3489 13.123 18.5113 13.7617 17.5195 13.7617H12.1875V9.19141H17.5195C18.5113 9.19141 19.3489 9.83013 19.6644 10.7148ZM8.37891 4.62109C7.53909 4.62109 6.85547 5.30471 6.85547 6.14453V7.66797H3.80859V6.14453C3.80859 3.62431 5.85868 1.57422 8.37891 1.57422H9.14062V4.62109H8.37891ZM4.15251 13.1874C4.18555 13.1203 4.2832 13.0315 4.34773 13.01C4.37816 12.9998 4.4868 12.9979 4.52561 13.0069C4.58514 13.0207 4.66971 13.0897 4.87654 13.2931L5.07852 13.4918L5.11022 13.4878C5.12766 13.4855 5.14901 13.4788 5.15766 13.4727C5.17066 13.4637 5.34532 13.2987 5.38332 13.2597C5.4858 13.1543 5.5531 13.0925 5.60678 13.0546C5.68024 13.0027 5.70344 12.9966 5.80771 13.0013C5.85932 13.0036 5.87043 13.0069 5.90909 13.0308C5.97948 13.0743 6.01901 13.1108 6.0491 13.1599C6.06465 13.1853 6.08316 13.2153 6.09023 13.2265C6.10763 13.2541 6.11512 13.3474 6.1036 13.393C6.08755 13.4566 5.99836 13.5783 5.90577 13.663C5.87493 13.6913 5.81499 13.7495 5.77258 13.7924L5.611 13.9558C5.56454 14.0029 5.51737 14.0479 5.50617 14.056C5.48341 14.0724 5.46217 14.1097 5.45059 14.1537C5.44577 14.172 5.44215 14.3391 5.44093 14.6004C5.43904 15.0024 5.43949 15.0189 5.45337 15.0471C5.47401 15.0891 5.49528 15.0891 5.57795 15.0471C5.6143 15.0286 5.66146 15.003 5.68273 14.99C5.81114 14.912 5.95761 14.8276 5.98925 14.8133C6.00944 14.8043 6.03086 14.7909 6.03685 14.7837C6.04282 14.7765 6.07092 14.7593 6.09928 14.7455C6.26799 14.6635 6.30956 14.6272 6.33761 14.5374C6.34693 14.5076 6.36243 14.4596 6.37205 14.4307C6.38166 14.4017 6.38964 14.3655 6.38978 14.3501C6.39021 14.3042 6.40781 14.2357 6.43204 14.1859C6.44612 14.1568 6.45923 14.1125 6.46648 14.0694C6.47674 14.0085 6.49241 13.9502 6.53368 13.8194C6.55129 13.7636 6.62566 13.6836 6.68635 13.6552C6.74539 13.6275 6.81039 13.6192 6.88919 13.6293C6.92645 13.6341 6.96789 13.6425 6.9813 13.6481C7.02066 13.6645 7.08571 13.7173 7.10368 13.7474C7.11283 13.7627 7.13022 13.7912 7.14233 13.8107C7.16276 13.8436 7.16453 13.852 7.167 13.9287C7.16995 14.0205 7.16173 14.0664 7.13504 14.107C7.11757 14.1336 7.11286 14.1524 7.0874 14.2965C7.07993 14.3388 7.06477 14.3981 7.05371 14.4283C7.03926 14.4677 7.0334 14.4981 7.03289 14.5361C7.03202 14.601 7.04282 14.6148 7.10618 14.6295C7.13011 14.6351 7.16457 14.6479 7.18274 14.658C7.20332 14.6695 7.24353 14.681 7.28924 14.6887C7.32964 14.6955 7.3836 14.7088 7.40916 14.7183C7.43471 14.7278 7.47768 14.7392 7.50463 14.7436C7.57777 14.7556 7.59918 14.7636 7.66619 14.8042C7.72936 14.8425 7.77737 14.8911 7.79514 14.9347C7.81082 14.9731 7.82414 15.077 7.81931 15.123C7.81273 15.1858 7.78934 15.2526 7.76381 15.2816C7.73188 15.3179 7.66367 15.3721 7.63187 15.3865C7.61061 15.3961 7.58301 15.3985 7.49856 15.398C7.37704 15.3973 7.3124 15.3858 7.23942 15.3518C7.21051 15.3383 7.15375 15.3219 7.09707 15.3108C7.04522 15.3006 6.96479 15.2809 6.91834 15.2669C6.73593 15.2121 6.67086 15.1978 6.6411 15.206C6.60726 15.2152 6.55689 15.2402 6.48697 15.2824C6.45775 15.3 6.43198 15.3144 6.42969 15.3144C6.42741 15.3144 6.4067 15.3267 6.38367 15.3418C6.33064 15.3765 6.25889 15.4174 6.20224 15.4452C6.178 15.457 6.14519 15.4771 6.12933 15.4897C6.11346 15.5023 6.0866 15.5187 6.06963 15.5262C6.02281 15.5468 5.866 15.6405 5.85242 15.656C5.84583 15.6634 5.83506 15.6802 5.82847 15.6931C5.81664 15.7164 5.81674 15.7169 5.83677 15.729C5.84792 15.7357 5.87357 15.7521 5.89377 15.7653C5.91396 15.7785 5.95028 15.7979 5.97448 15.8085C5.99868 15.8191 6.0258 15.8346 6.03475 15.843C6.0437 15.8514 6.07182 15.8687 6.09725 15.8814C6.12267 15.8941 6.16499 15.918 6.19129 15.9344C6.21758 15.9508 6.26881 15.98 6.30513 15.9994C6.34145 16.0188 6.38313 16.0439 6.39775 16.0552C6.44225 16.0896 6.59205 16.1625 6.62979 16.1682C6.67165 16.1745 6.835 16.1489 6.9156 16.1235C6.94438 16.1144 7.00057 16.1013 7.04046 16.0943C7.08361 16.0868 7.13601 16.0715 7.16987 16.0565C7.23535 16.0275 7.42749 15.9885 7.5062 15.9883C7.60719 15.988 7.68937 16.0236 7.75207 16.0948C7.78273 16.1296 7.79473 16.1503 7.8034 16.1832C7.82326 16.2586 7.8247 16.3213 7.80837 16.3999C7.79446 16.4669 7.79124 16.4739 7.75485 16.5156C7.71262 16.564 7.65435 16.5968 7.55948 16.6256C7.53204 16.634 7.46826 16.6538 7.41777 16.6697C7.36728 16.6856 7.29346 16.7036 7.25373 16.7098C7.13273 16.7286 7.06871 16.7557 7.03882 16.8008C7.01563 16.8357 7.01736 16.8517 7.05827 16.9804C7.07362 17.0288 7.09116 17.1023 7.09724 17.1439C7.10492 17.1964 7.11522 17.2338 7.131 17.2665C7.14349 17.2923 7.15693 17.3304 7.16088 17.3511C7.17759 17.439 7.16368 17.5682 7.13492 17.592C7.12885 17.597 7.11543 17.6163 7.10512 17.635C7.08696 17.6677 7.06366 17.6885 6.99333 17.7347C6.96047 17.7563 6.95798 17.7567 6.84856 17.7593C6.74078 17.7618 6.73601 17.7612 6.69967 17.7429C6.67901 17.7324 6.63386 17.6967 6.59931 17.6634L6.5365 17.6029L6.52487 17.5443C6.51846 17.5121 6.50683 17.4712 6.49901 17.4534C6.49119 17.4357 6.47807 17.3829 6.46985 17.3363C6.46081 17.2849 6.44671 17.234 6.43414 17.2074C6.40591 17.1477 6.40544 17.146 6.39293 17.0619C6.38328 16.997 6.36366 16.9254 6.32616 16.8184C6.32034 16.8018 6.30495 16.7762 6.29196 16.7616C6.26845 16.7352 6.08592 16.6246 5.99292 16.5805C5.96666 16.5681 5.93805 16.5513 5.92935 16.5433C5.91229 16.5277 5.83476 16.4848 5.75789 16.4486C5.73163 16.4363 5.70024 16.417 5.68812 16.4059C5.66377 16.3835 5.58291 16.339 5.52761 16.3176C5.48737 16.3021 5.47411 16.3061 5.45394 16.3402C5.44337 16.358 5.44207 16.4079 5.44207 16.7969C5.44207 17.2271 5.44231 17.2341 5.45762 17.2645C5.4676 17.2843 5.57082 17.3927 5.7459 17.5673C5.8959 17.7169 6.02689 17.8531 6.03699 17.87C6.04708 17.8869 6.06313 17.9103 6.07263 17.9222C6.12334 17.9853 6.1225 18.1182 6.07091 18.1956C6.05734 18.216 6.03768 18.2479 6.02724 18.2664C6.01027 18.2965 5.99989 18.3043 5.92967 18.3396L5.85109 18.3792H5.77695C5.7032 18.3792 5.70244 18.379 5.63303 18.3444C5.57502 18.3155 5.55088 18.2976 5.48981 18.2382C5.44942 18.1989 5.40478 18.1536 5.3906 18.1375C5.3643 18.1076 5.18468 17.9335 5.16073 17.9147C5.15346 17.909 5.1325 17.9021 5.11416 17.8993L5.08081 17.8943L4.87034 18.1027L4.65987 18.3111L4.58202 18.3469C4.5086 18.3808 4.50068 18.3828 4.44324 18.3828C4.38889 18.3828 4.37551 18.3798 4.31947 18.3554C4.24216 18.3216 4.18763 18.2703 4.15388 18.1997C4.13187 18.1537 4.13113 18.1489 4.13133 18.0533C4.1315 17.967 4.1335 17.9507 4.14705 17.9251C4.17735 17.868 4.24882 17.7904 4.49446 17.548C4.63119 17.413 4.74826 17.2922 4.7546 17.2794C4.76468 17.2591 4.76619 17.1994 4.7666 16.8022C4.76699 16.422 4.76533 16.344 4.75645 16.3228C4.7411 16.2862 4.73225 16.284 4.69782 16.3086C4.68099 16.3206 4.64243 16.3428 4.61213 16.3579C4.58184 16.373 4.54218 16.396 4.524 16.409C4.50582 16.422 4.45129 16.4535 4.40281 16.479C4.35434 16.5045 4.30311 16.5343 4.28897 16.5451C4.27483 16.556 4.24746 16.5707 4.22814 16.5779C4.20882 16.585 4.19132 16.5935 4.18925 16.5969C4.18719 16.6002 4.16333 16.6151 4.13625 16.63C4.10916 16.6449 4.07377 16.6659 4.05762 16.6767C4.04146 16.6874 4.01278 16.702 3.99389 16.7091C3.97499 16.7162 3.95294 16.7291 3.94488 16.7377C3.92516 16.7588 3.88047 16.8619 3.86612 16.9193C3.85973 16.9448 3.84337 17.0006 3.82976 17.0431C3.8045 17.1221 3.78903 17.1854 3.77451 17.2693C3.77001 17.2953 3.75702 17.337 3.74563 17.362C3.73425 17.3871 3.7176 17.44 3.70865 17.4796C3.66854 17.6571 3.58078 17.7434 3.4221 17.7614C3.29967 17.7753 3.23022 17.7527 3.15019 17.6728C3.09221 17.615 3.08075 17.5921 3.06894 17.5106C3.05232 17.3961 3.07648 17.2723 3.18027 16.9401C3.20383 16.8647 3.21146 16.8406 3.20385 16.8231C3.20021 16.8147 3.19306 16.8079 3.18248 16.7976C3.13272 16.7493 3.081 16.7285 2.95396 16.7058C2.90844 16.6976 2.84894 16.6825 2.82175 16.6723C2.79456 16.6621 2.74917 16.6489 2.7209 16.6431C2.67745 16.6342 2.61572 16.6105 2.53481 16.5717C2.50575 16.5578 2.43362 16.475 2.41182 16.4306C2.39519 16.3967 2.39052 16.3757 2.38803 16.3238C2.38415 16.2429 2.39413 16.2021 2.43213 16.1437C2.50019 16.0391 2.57301 15.996 2.69152 15.9902C2.77522 15.9861 2.97814 16.0222 3.04394 16.0529C3.07096 16.0655 3.13171 16.0835 3.18237 16.0939C3.23202 16.1041 3.29143 16.1189 3.31437 16.1268C3.37725 16.1483 3.54285 16.1738 3.58676 16.1686C3.62756 16.1637 3.74859 16.1056 3.82878 16.0522C3.85456 16.0351 3.89841 16.0087 3.92624 15.9936C3.95406 15.9785 4.00161 15.9513 4.03191 15.933C4.06221 15.9148 4.10804 15.89 4.13378 15.878C4.15951 15.866 4.19091 15.8474 4.20355 15.8368C4.21619 15.8261 4.24307 15.81 4.26326 15.8011C4.28346 15.7921 4.31686 15.7736 4.33747 15.7601C4.3581 15.7466 4.38112 15.7319 4.38863 15.7275C4.40117 15.7202 4.40147 15.7171 4.39223 15.6892C4.38451 15.6659 4.37347 15.653 4.34475 15.634C4.29163 15.5987 4.18178 15.5347 4.15008 15.5205C4.13532 15.5139 4.10635 15.4976 4.08569 15.4844C4.04352 15.4574 3.98891 15.4274 3.92942 15.3986C3.90739 15.3879 3.87764 15.37 3.86332 15.3587C3.849 15.3475 3.81579 15.3276 3.78954 15.3146C3.76328 15.3015 3.71254 15.2726 3.6768 15.2502C3.64104 15.2279 3.59822 15.2072 3.58163 15.2041C3.55101 15.1985 3.55051 15.1987 3.224 15.2897C3.18967 15.2993 3.13183 15.3122 3.09547 15.3183C3.05472 15.3253 3.00966 15.339 2.97796 15.3541C2.88581 15.3981 2.72561 15.4143 2.60951 15.3912C2.5531 15.38 2.55102 15.3788 2.50338 15.3299C2.45153 15.2766 2.41005 15.2125 2.39559 15.1634C2.39071 15.1468 2.38672 15.1082 2.38672 15.0776C2.38672 15.0126 2.40158 14.9687 2.44536 14.9045C2.47695 14.8581 2.48974 14.8467 2.56612 14.7968C2.61049 14.7679 2.62668 14.7619 2.69273 14.7503C2.73438 14.7429 2.78916 14.7287 2.81445 14.7187C2.83975 14.7087 2.89466 14.6952 2.93648 14.6886C2.98613 14.6809 3.0269 14.6696 3.05399 14.656C3.0768 14.6447 3.11278 14.6297 3.13393 14.6228C3.17656 14.6089 3.20442 14.5786 3.20442 14.5461C3.20442 14.5355 3.19413 14.494 3.18156 14.4538C3.16898 14.4136 3.15027 14.351 3.13997 14.3148C3.12966 14.2785 3.11335 14.2225 3.10371 14.1903C3.09408 14.1581 3.08023 14.0911 3.07294 14.0415C3.04872 13.8767 3.07615 13.7738 3.16481 13.6969C3.21903 13.6499 3.24369 13.6394 3.31901 13.631C3.42006 13.6197 3.52643 13.638 3.56542 13.6735C3.57356 13.6809 3.59048 13.6921 3.60302 13.6984C3.63567 13.7148 3.69053 13.8271 3.70796 13.9132C3.71517 13.9488 3.72782 13.9911 3.73608 14.0072C3.75963 14.0531 3.77266 14.0972 3.78598 14.176C3.79276 14.2161 3.81092 14.2868 3.82633 14.3331C3.84174 14.3794 3.86116 14.446 3.86949 14.4811C3.89479 14.5878 3.94035 14.6536 4.01458 14.6905C4.09853 14.7322 4.17533 14.7747 4.18982 14.7873C4.1979 14.7944 4.22794 14.8119 4.25657 14.8261C4.28521 14.8404 4.34045 14.872 4.37933 14.8964C4.41821 14.9209 4.47245 14.9519 4.49986 14.9654C4.52727 14.9789 4.56686 15.0011 4.58783 15.0148C4.6088 15.0285 4.64806 15.0525 4.67509 15.068C4.73421 15.1019 4.75371 15.0986 4.76276 15.0532C4.76583 15.0377 4.76768 14.8257 4.76688 14.5821C4.76552 14.1738 4.76437 14.1367 4.75225 14.1097C4.74335 14.0899 4.67631 14.0188 4.54525 13.8901C4.26708 13.6171 4.17719 13.5211 4.1526 13.4708C4.13324 13.4312 4.13198 13.4227 4.13153 13.3298C4.13108 13.2349 4.13193 13.2292 4.15251 13.1874Z" fill="black"/>
</svg>
