<svg width="26" height="26" viewBox="0 0 26 26" fill="none" xmlns="http://www.w3.org/2000/svg">
<g clip-path="url(#clip0_61_144)">
<path d="M23.8333 5.41668H18.4167V4.33331C18.4167 3.13838 17.445 2.16663 16.25 2.16663H9.75C8.55507 2.16663 7.58332 3.13833 7.58332 4.33331V5.41663H2.16668C0.971699 5.41668 2.25231e-08 6.38838 2.25231e-08 7.58331V10.8333C2.25231e-08 12.0283 0.971699 13 2.16668 13H10.8334V12.4583C10.8333 12.3872 10.8473 12.3167 10.8745 12.251C10.9017 12.1852 10.9416 12.1255 10.9919 12.0752C11.0422 12.0249 11.102 11.985 11.1677 11.9578C11.2334 11.9306 11.3039 11.9166 11.3751 11.9166H14.6251C14.6962 11.9166 14.7667 11.9306 14.8324 11.9578C14.8981 11.985 14.9579 12.0249 15.0082 12.0752C15.0585 12.1255 15.0984 12.1852 15.1256 12.251C15.1528 12.3167 15.1668 12.3872 15.1667 12.4583V13H23.8334C25.0283 13 26 12.0283 26 10.8333V7.58331C26 6.38838 25.0283 5.41668 23.8333 5.41668ZM16.25 5.41668H9.75V4.33331H16.25V5.41668ZM25.6995 13.5845C25.6092 13.5397 25.5082 13.521 25.4079 13.5304C25.3075 13.5399 25.2118 13.5771 25.1314 13.6379C24.7463 13.9294 24.2977 14.0833 23.8333 14.0833H15.1667V15.7083C15.1667 15.7795 15.1528 15.8499 15.1255 15.9157C15.0983 15.9814 15.0584 16.0411 15.0081 16.0914C14.9578 16.1417 14.8981 16.1817 14.8323 16.2089C14.7666 16.2361 14.6961 16.25 14.625 16.25H11.375C11.3039 16.25 11.2334 16.2361 11.1677 16.2089C11.1019 16.1817 11.0422 16.1417 10.9919 16.0914C10.9416 16.0411 10.9017 15.9814 10.8745 15.9157C10.8472 15.8499 10.8333 15.7795 10.8333 15.7083V14.0833H2.16668C1.70224 14.0833 1.25369 13.9294 0.868563 13.6379C0.788406 13.5766 0.692624 13.5391 0.59216 13.5297C0.491696 13.5202 0.3906 13.5392 0.300422 13.5845C0.210163 13.6294 0.134224 13.6986 0.0811496 13.7843C0.0280749 13.87 -2.90436e-05 13.9688 2.25231e-08 14.0696L2.25231e-08 21.6667C2.25231e-08 22.8616 0.971699 23.8334 2.16668 23.8334H23.8334C25.0283 23.8334 26 22.8617 26 21.6667V14.0696C26.0001 13.9688 25.9719 13.87 25.9188 13.7843C25.8658 13.6986 25.7898 13.6294 25.6995 13.5845Z" fill="black"/>
</g>
<defs>
<clipPath id="clip0_61_144">
<rect width="26" height="26" fill="white"/>
</clipPath>
</defs>
</svg>
