<svg width="331" height="116" viewBox="0 0 331 116" fill="none" xmlns="http://www.w3.org/2000/svg">
<path d="M15.132 78.211C12.0683 79.1204 7.93442 79.1098 4.62939 78.1363C7.06356 56.0555 9.83348 33.9531 12.5824 11.7332H23.043C23.043 12.8779 23.1585 14.044 23.0221 15.1673C22.2142 21.768 21.3433 28.3472 20.5145 34.9481C20.3151 36.5635 20.1997 38.1896 20.0423 39.9547H32.2341C33.3989 30.5619 34.5634 21.1796 35.7489 11.6049C39.012 11.6049 42.0967 11.5942 45.1813 11.6049C46.3041 11.6049 46.3565 12.4821 46.262 13.2952C45.8738 16.6971 45.4331 20.0884 45.0241 23.4797C44.3001 29.5562 43.5761 35.6327 42.8523 41.7093C42.1808 47.3258 41.5197 52.9423 40.8376 58.5694C40.1031 64.646 39.3478 70.7118 38.6134 76.7881C38.4349 78.2433 38.0886 78.778 36.7563 78.8103C34.0493 78.8743 31.3318 78.778 28.6144 78.7246C28.3836 78.7246 28.1633 78.5214 27.733 78.318C28.8137 69.0855 29.8944 59.8424 31.0066 50.4174C29.7055 50.2571 28.6982 50.0539 27.6911 50.0323C25.3618 49.9789 23.0326 49.9896 20.7138 50.0323C19.0036 50.0645 18.6888 50.3427 18.4685 52.0757C17.9124 56.5153 17.3983 60.9657 16.8737 65.4055C16.454 69.0001 16.0553 72.5945 15.6042 76.1891C15.5202 76.8953 15.2789 77.58 15.1215 78.211H15.132Z" fill="#2A4C6B"/>
<path d="M324.202 78.4089C323.271 78.5906 322.572 78.8258 321.871 78.8365C319.376 78.8899 316.878 78.8365 314.383 78.8792C313.212 78.8898 312.631 78.5586 312.39 77.2654C311.11 70.4464 309.696 63.6597 308.328 56.8621C308.307 56.7445 308.175 56.6591 307.934 56.3278C307.2 57.1828 306.49 57.9737 305.809 58.8075C304.923 59.8867 304.124 61.0305 303.194 62.0671C302.011 63.3925 302.319 65.0599 302.034 66.556C301.365 70.1685 300.884 73.8026 300.391 77.447C300.249 78.5372 299.712 78.9005 298.661 78.8792C296.099 78.8472 293.537 78.8898 290.977 78.8578C289.477 78.8365 289.257 78.6119 289.356 77.0731C289.477 75.2454 289.674 73.407 289.903 71.59C290.384 67.6249 290.9 63.6597 291.414 59.6837C291.907 55.9109 292.421 52.1488 292.903 48.376C293.363 44.7956 293.78 41.2151 294.227 37.6347C294.72 33.7336 295.245 29.8325 295.726 25.9208C296.187 22.2761 296.615 18.6316 297.062 14.987C297.074 14.8587 297.062 14.7198 297.085 14.5915C297.599 11.3852 297.807 11.631 300.435 11.6096C303.041 11.5882 305.656 11.6096 308.274 11.6096C308.821 14.506 308.154 17.0818 307.869 19.6683C307.453 23.5159 306.904 27.3422 306.423 31.1791C305.93 35.0801 305.404 38.9812 304.946 42.8823C304.814 43.9511 304.837 45.0413 305.143 46.2277C306.904 43.9298 308.668 41.6318 310.42 39.3341C312.554 36.5338 314.7 33.7549 316.781 30.9227C317.392 30.0782 318.061 29.7469 319.133 29.7789C321.762 29.8539 324.398 29.8005 327.028 29.8112C327.553 29.8112 328.079 29.8859 328.528 29.9179C329.009 31.0294 328.285 31.6493 327.771 32.3121C324.466 36.5552 321.181 40.8089 317.797 44.9879C316.846 46.1635 316.573 47.2216 316.954 48.7287C319.211 57.482 321.357 66.2568 323.512 75.0317C323.764 76.0469 323.929 77.0731 324.192 78.4196L324.202 78.4089Z" fill="#2A4C6B"/>
<path d="M96.761 77.8532C95.8516 84.4967 94.9981 90.8297 94.1225 97.2055C93.4936 97.2911 93.0221 97.4089 92.5617 97.4198C90.069 97.4412 87.5763 97.4519 85.0836 97.4198C83.6689 97.3983 83.2085 96.9268 83.3543 95.6089C83.6016 93.38 83.927 91.1619 84.2078 88.9331C84.9938 82.8468 85.7797 76.7603 86.5771 70.6846C87.3629 64.7266 88.1714 58.7796 88.9462 52.8325C89.6984 47.0782 90.3947 41.3134 91.1356 35.5591C91.2143 34.9805 91.3715 34.4126 91.5175 33.7161H101.825C101.96 34.2305 102.106 34.7768 102.285 35.4949C102.577 35.377 102.813 35.3128 103.015 35.184C105.508 33.5338 108.203 32.3336 111.302 32.4944C118.275 32.8589 122.205 35.8055 122.631 43.0813C122.856 46.9283 122.227 50.8394 121.778 54.7077C121.239 59.3582 120.677 64.0195 119.746 68.6057C118.735 73.6206 116.13 77.8103 110.943 79.8463C106.406 81.6251 101.892 81.593 97.8389 78.4641C97.592 78.271 97.2776 78.1532 96.7499 77.8745L96.761 77.8532ZM98.3218 66.1411C98.4229 66.9341 98.4565 67.5341 98.5801 68.1129C99.0516 70.4487 100.871 71.8419 103.307 71.5846C105.553 71.3382 107.439 70.4487 108.27 68.2521C108.719 67.0842 109.168 65.8948 109.393 64.6731C109.853 62.1443 110.201 59.5941 110.538 57.0544C110.954 53.9147 111.358 50.7858 111.684 47.6354C111.942 45.0317 110.662 42.9527 108.495 42.192C106.103 41.3561 103.768 42.0526 102.184 44.2923C101.511 45.2458 100.972 46.3924 100.725 47.5176C100.242 49.768 99.9499 52.0611 99.6692 54.3435C99.1752 58.3295 98.7597 62.3264 98.3331 66.1305L98.3218 66.1411Z" fill="#2A4C6B"/>
<path d="M9.25879 106.175C9.76017 105.995 10.2511 105.75 10.763 105.633C31.3302 100.963 46.8002 89.0173 58.144 71.1999C66.0096 58.8498 70.8669 45.2767 73.8857 30.9588C74.0214 30.3206 74.1572 29.6823 74.2616 29.0334C74.3348 28.5868 74.3452 28.1187 74.3975 27.3848H66.0202C65.9471 27.2252 65.8843 27.0656 65.8112 26.8953C71.0549 21.1087 76.309 15.322 81.7825 9.28003C86.1383 15.2688 90.3897 21.1087 94.9021 27.3104H86.201C85.6892 29.7355 85.2295 32.0225 84.7282 34.2989C82.0855 46.4573 78.0117 58.0416 71.4414 68.6256C60.2541 86.6557 44.5441 98.4952 24.3318 104.005C19.7566 105.25 15.0143 105.846 10.3347 106.707C10.0109 106.771 9.65571 106.579 9.31101 106.516C9.29013 106.399 9.27969 106.292 9.25879 106.175Z" fill="#2A4C6B"/>
<path d="M136.021 60.9665C135.371 63.2371 135.097 65.3388 135.279 67.4932C135.513 70.1969 138.174 73.2384 141.87 71.1156C143.311 70.2918 144.276 69.035 144.906 67.525C145.363 66.4582 146.033 66.1202 147.099 66.1835C149.16 66.2998 151.222 66.2998 153.283 66.416C154.715 66.5004 154.999 66.9547 154.705 68.4332C153.313 75.3294 148.531 79.9024 141.748 80.9373C139.494 81.2858 137.29 81.2962 135.036 80.9162C128.608 79.8284 124.963 75.5617 124.993 68.7499C124.993 66.1624 125.328 63.5645 125.633 60.9877C126.161 56.3514 126.811 51.7258 127.359 47.079C128.263 39.4117 133.472 34.0784 140.895 32.7795C144.175 32.2092 147.383 32.4203 150.47 33.6982C154.948 35.5677 157.324 39.1794 157.395 44.0797C157.446 47.8922 156.867 51.7046 156.522 55.5171C156.421 56.6787 156.197 57.8299 156.004 58.9811C155.72 60.6496 155.426 60.9348 153.801 60.9454C148.795 60.9665 143.789 60.9454 138.783 60.9454C137.909 60.9454 137.036 60.9454 136.011 60.9454L136.021 60.9665ZM146.967 52.6974C147.099 50.395 147.394 48.2089 147.292 46.0545C147.18 43.7099 145.495 42.1047 143.261 41.978C141.382 41.8618 139.9 42.823 138.813 44.3649C137.077 46.8361 137.006 49.7192 136.833 52.6974H146.977H146.967Z" fill="#2A4C6B"/>
<path d="M260.469 78.7944H250.099C250.067 78.0467 249.928 77.395 250.014 76.7646C251.866 62.3533 253.738 47.9528 255.632 33.36H266.376C266.45 34.236 266.524 35.0694 266.61 36.0841C267.21 35.6781 267.735 35.3364 268.258 34.9731C272.304 32.1422 276.744 31.8643 281.239 33.424C285.391 34.8664 286.954 38.445 287.019 42.4405C287.072 46.0193 286.482 49.6192 286.065 53.1874C285.551 57.546 284.919 61.8832 284.322 66.2314C283.808 69.9916 283.262 73.7521 282.748 77.523C282.618 78.4738 282.181 78.8905 281.197 78.8798C278.232 78.8478 275.279 78.8691 272.325 78.8691C271.244 77.4377 271.962 75.9953 272.112 74.6279C272.529 70.793 273.084 66.9684 273.598 63.1332C274.07 59.6294 274.582 56.1252 275.001 52.6107C275.267 50.3992 275.492 48.1771 275.536 45.9444C275.589 43.2738 273.899 41.7247 271.179 41.7461C268.622 41.7674 266.61 42.8358 265.83 45.3036C265.071 47.7178 264.566 50.2389 264.182 52.7494C263.453 57.4073 262.865 62.0862 262.245 66.7654C261.807 70.077 261.409 73.3995 260.972 76.7113C260.886 77.3521 260.671 77.9717 260.469 78.7837V78.7944Z" fill="#2A4C6B"/>
<path d="M192.164 78.8801C192.164 77.5401 192.049 76.2963 192.185 75.085C192.728 70.1854 193.343 65.2861 193.948 60.3867C194.553 55.423 195.179 50.4592 195.763 45.4955C196.337 40.6604 196.848 35.8146 197.432 30.9795C198.006 26.2089 198.632 21.4488 199.237 16.6888C199.394 15.4451 199.54 14.2122 199.717 12.9686C199.811 12.2825 200.072 11.6285 200.865 11.6178C203.995 11.5857 207.124 11.6071 210.557 11.6071C208.637 30.8617 205.799 49.7625 203.838 68.9848H224.077C224.984 70.7859 224.421 76.5323 223.2 78.8801H192.164Z" fill="#2A4C6B"/>
<path d="M162.038 78.3002C163.848 63.2685 165.658 48.3309 167.479 33.1943H177.658C177.522 34.8505 177.417 36.2973 177.271 38.1526C177.825 37.4083 178.16 36.9784 178.484 36.5383C180.001 34.4942 181.906 33.1001 184.458 32.6073C186.415 32.2301 188.109 32.7226 189.804 33.6662C189.532 37.2302 188.193 40.3854 187.23 43.7816C186.655 43.7816 186.101 43.8236 185.546 43.7816C180.305 43.2575 176.727 45.8675 175.743 51.1089C175.231 53.8237 174.927 56.5806 174.582 59.327C173.965 64.2433 173.379 69.1701 172.783 74.0968C172.647 75.187 172.521 76.2667 172.375 77.3569C172.26 78.2373 171.705 78.8558 170.858 78.8663C168.221 78.9083 165.585 78.8454 162.959 78.793C162.729 78.793 162.509 78.5728 162.028 78.3211L162.038 78.3002Z" fill="#2A4C6B"/>
<path d="M231.515 78.8587C231.515 77.434 231.397 76.2559 231.536 75.1098C232.105 70.4079 232.772 65.7164 233.35 61.0251C233.823 57.2442 234.221 53.442 234.672 49.6611C235.154 45.5479 235.649 41.435 236.153 37.3115C236.292 36.1332 236.475 34.9657 236.646 33.7983C236.776 32.8664 237.281 32.4594 238.258 32.4808C241.285 32.5237 244.31 32.4917 247.671 32.4917C247.532 34.4732 247.456 36.3475 247.252 38.2112C246.824 42.067 246.308 45.9122 245.836 49.7574C245.343 53.7417 244.859 57.7154 244.375 61.7C243.924 65.4167 243.516 69.144 243.033 72.8606C242.829 74.4885 242.507 76.1061 242.23 77.7233C242.1 78.4622 241.734 78.8801 240.899 78.8801C237.859 78.8587 234.832 78.8801 231.506 78.8801L231.515 78.8587Z" fill="#2A4C6B"/>
<path d="M50.9409 32.7638C54.4133 32.3271 57.7736 32.5188 61.2153 32.5401C61.3991 33.6583 61.6035 34.4782 61.6442 35.3197C61.9405 41.0065 62.1856 46.6933 62.4819 52.3801C62.5738 54.201 62.2368 55.8517 61.3991 57.4597C59.6323 60.8462 57.9777 64.3072 56.2619 67.7257C55.9556 68.3435 55.5573 68.8971 55.1284 69.6C54.3113 67.6937 50.5631 34.5423 50.951 32.7638H50.9409Z" fill="#2A4C6B"/>
<path d="M234.735 17.0082C237.436 16.2822 239.267 14.5987 240.239 11.6211C240.549 12.6733 240.767 13.3677 240.973 14.0727C242.514 14.0411 241.697 12.3366 242.908 11.8736C243.063 12.5681 243.218 13.2415 243.394 14.02C244.998 14.22 244.148 12.1998 245.287 11.8736C245.472 12.6312 245.648 13.3677 245.824 14.1042C245.991 14.1358 246.155 14.1568 246.331 14.1884C246.725 13.4309 247.107 12.6628 247.655 11.6001C247.884 14.7355 249.62 16.2191 252.301 17.1555C251.296 17.5658 250.583 17.8499 249.87 18.134L249.933 18.5548C250.574 18.8494 251.204 19.144 252.125 19.5649C251.102 19.9858 250.356 20.2909 249.602 20.596C249.602 20.7538 249.602 20.9117 249.602 21.0695C250.231 21.3325 250.863 21.5956 251.493 21.8691C251.514 21.9954 251.525 22.1216 251.546 22.2374C250.842 22.4794 250.127 22.7214 249.405 22.9739C249.229 24.51 250.998 23.6367 251.308 24.5522C247.634 26.0778 247.294 26.6775 245.669 29.7392C245.41 28.9291 245.195 28.2241 244.956 27.477C243.456 27.4455 244.366 29.4026 243.084 29.5919C242.929 29.0238 242.762 28.4345 242.586 27.7823C241.107 27.5192 241.667 29.1922 240.776 29.7181C240.498 28.9502 240.218 28.1925 239.938 27.435L239.524 27.4139C239.204 28.1716 238.894 28.9291 238.376 30.1601C237.859 27.0773 236.422 25.3201 233.783 24.7204C234.353 23.7736 235.781 24.3733 236.028 23.058C235.376 22.774 234.776 22.5215 234.165 22.2584C234.144 22.1216 234.135 21.9849 234.114 21.8481C234.591 21.7323 235.086 21.6692 235.531 21.4693C235.82 21.3431 236.028 21.0379 236.276 20.8064C236.079 20.5855 235.924 20.2804 235.686 20.1646C235.295 19.9858 234.848 19.9437 234.424 19.8385C234.415 18.2182 236.515 19.4597 236.67 17.913C236.049 17.7447 235.429 17.5763 234.818 17.408C234.797 17.2712 234.767 17.1344 234.746 16.9976L234.735 17.0082ZM247.419 16.419C244.542 16.6084 241.873 16.7872 239.163 16.9661C238.873 19.628 238.605 22.0796 238.325 24.6153C241.118 25.2361 243.797 24.9519 246.498 24.9835C246.817 22.0796 247.107 19.4071 247.428 16.4295L247.419 16.419Z" fill="#2A4C6B"/>
<path d="M240.727 18.7888C242.368 18.7071 243.79 18.6336 245.357 18.5601C245.185 20.2347 245.04 21.697 244.884 23.2001H240.727V18.7888Z" fill="#2A4C6B"/>
</svg>
