<svg width="300" height="89" viewBox="0 0 300 89" fill="none" xmlns="http://www.w3.org/2000/svg">
<path d="M13.7153 62.886C10.9385 63.7103 7.19178 63.7007 4.19629 62.8183C6.40249 42.8055 8.91299 22.7731 11.4045 2.63427H20.8854C20.8854 3.67176 20.99 4.72865 20.8664 5.74674C20.1342 11.7292 19.3448 17.6923 18.5937 23.675C18.4129 25.1391 18.3084 26.6129 18.1657 28.2127H29.2157C30.2714 19.6996 31.3268 11.196 32.4013 2.51798C35.3588 2.51798 38.1546 2.50828 40.9503 2.51798C41.9679 2.51798 42.0154 3.31303 41.9298 4.04998C41.5779 7.13327 41.1785 10.207 40.8078 13.2806C40.1516 18.788 39.4954 24.2954 38.8394 29.8029C38.2308 34.8934 37.6316 39.9839 37.0134 45.084C36.3477 50.5915 35.6631 56.0892 34.9975 61.5964C34.8357 62.9153 34.5219 63.3999 33.3143 63.4292C30.8609 63.4872 28.3979 63.3999 25.935 63.3515C25.7258 63.3515 25.5261 63.1674 25.1361 62.983C26.1156 54.6152 27.0951 46.2378 28.1031 37.6955C26.9239 37.5502 26.0109 37.366 25.0981 37.3464C22.987 37.298 20.8759 37.3077 18.7743 37.3464C17.2243 37.3756 16.939 37.6278 16.7393 39.1985C16.2353 43.2223 15.7693 47.2559 15.2938 51.2799C14.9135 54.5378 14.5521 57.7956 14.1432 61.0535C14.0671 61.6936 13.8484 62.3141 13.7058 62.886H13.7153Z" fill="#333333"/>
<path d="M293.838 63.0655C292.994 63.2301 292.361 63.4433 291.726 63.453C289.464 63.5014 287.2 63.453 284.939 63.4917C283.877 63.5013 283.351 63.2011 283.132 62.0291C281.972 55.8487 280.691 49.6976 279.451 43.5366C279.432 43.4301 279.312 43.3527 279.094 43.0524C278.429 43.8273 277.785 44.5441 277.168 45.2998C276.365 46.278 275.641 47.3146 274.798 48.2542C273.726 49.4554 274.005 50.9667 273.746 52.3227C273.14 55.5968 272.704 58.8906 272.257 62.1936C272.129 63.1817 271.642 63.511 270.689 63.4917C268.367 63.4627 266.045 63.5013 263.725 63.4723C262.365 63.453 262.166 63.2495 262.256 61.8548C262.365 60.1982 262.544 58.532 262.752 56.8852C263.187 53.2914 263.655 49.6976 264.121 46.094C264.568 42.6745 265.034 39.2648 265.471 35.8453C265.887 32.6002 266.265 29.3551 266.671 26.11C267.117 22.5743 267.593 19.0385 268.029 15.4932C268.447 12.1898 268.835 8.88664 269.24 5.58338C269.251 5.4671 269.24 5.3412 269.261 5.22492C269.727 2.31891 269.915 2.54169 272.297 2.52229C274.659 2.5029 277.029 2.52229 279.402 2.52229C279.898 5.14743 279.293 7.48199 279.035 9.82625C278.658 13.3135 278.16 16.7814 277.724 20.259C277.277 23.7946 276.801 27.3304 276.386 30.8661C276.266 31.8348 276.287 32.8229 276.564 33.8982C278.16 31.8155 279.759 29.7327 281.347 27.6502C283.281 25.1122 285.226 22.5936 287.112 20.0266C287.666 19.2612 288.272 18.9609 289.244 18.9899C291.627 19.0579 294.016 19.0095 296.4 19.0192C296.875 19.0192 297.352 19.0869 297.759 19.1159C298.195 20.1233 297.539 20.6852 297.073 21.2859C294.077 25.1316 291.1 28.9869 288.033 32.7745C287.171 33.84 286.924 34.799 287.269 36.165C289.315 44.0985 291.26 52.0515 293.213 60.0046C293.441 60.9247 293.591 61.8548 293.829 63.0752L293.838 63.0655Z" fill="#333333"/>
<path d="M87.6988 62.5618C86.8746 68.5831 86.101 74.3229 85.3074 80.1016C84.7374 80.1792 84.3101 80.286 83.8928 80.2959C81.6336 80.3152 79.3743 80.3249 77.1151 80.2959C75.8329 80.2764 75.4156 79.849 75.5477 78.6546C75.7719 76.6344 76.0668 74.624 76.3213 72.604C77.0337 67.0877 77.746 61.5712 78.4687 56.0646C79.1809 50.6646 79.9137 45.2745 80.6159 39.8844C81.2977 34.669 81.9288 29.4441 82.6003 24.2288C82.6716 23.7043 82.8141 23.1896 82.9464 22.5584H92.2885C92.4109 23.0246 92.5432 23.5197 92.7055 24.1706C92.9701 24.0637 93.184 24.0055 93.3671 23.8888C95.6266 22.3931 98.0692 21.3053 100.878 21.4511C107.198 21.7814 110.76 24.4521 111.146 31.0465C111.35 34.5332 110.78 38.078 110.373 41.584C109.884 45.7989 109.375 50.0237 108.531 54.1804C107.615 58.7256 105.254 62.5229 100.553 64.3682C96.4405 65.9804 92.3493 65.9513 88.6758 63.1155C88.452 62.9404 88.167 62.8337 87.6888 62.5811L87.6988 62.5618ZM89.1134 51.9466C89.2051 52.6653 89.2355 53.2091 89.3475 53.7337C89.7749 55.8507 91.4239 57.1135 93.6317 56.8803C95.6674 56.6569 97.3768 55.8507 98.1299 53.8599C98.5369 52.8013 98.9438 51.7233 99.1478 50.6161C99.5647 48.3241 99.8801 46.0127 100.186 43.7109C100.563 40.8652 100.929 38.0294 101.224 35.174C101.458 32.8142 100.298 30.9299 98.3339 30.2404C96.1659 29.4828 94.0496 30.1141 92.6139 32.144C92.004 33.0082 91.5154 34.0475 91.2916 35.0673C90.8538 37.1069 90.5891 39.1852 90.3346 41.2539C89.8869 44.8666 89.5103 48.4891 89.1237 51.937L89.1134 51.9466Z" fill="#333333"/>
<path d="M8.3916 88.2311C8.84602 88.068 9.29098 87.8459 9.75493 87.7399C28.3959 83.5072 42.417 72.6803 52.6984 56.5316C59.8274 45.3382 64.2298 33.0363 66.9658 20.0593C67.0888 19.4809 67.2119 18.9024 67.3065 18.3142C67.3729 17.9095 67.3823 17.4852 67.4297 16.82H59.837C59.7707 16.6754 59.7138 16.5307 59.6476 16.3764C64.4002 11.1317 69.1622 5.88699 74.1231 0.410889C78.0709 5.83878 81.9241 11.1317 86.0139 16.7526H78.1277C77.6639 18.9506 77.2472 21.0234 76.7929 23.0866C74.3977 34.1063 70.7054 44.6057 64.7505 54.1984C54.6109 70.5399 40.3722 81.2706 22.0529 86.2643C17.9062 87.3927 13.6081 87.9329 9.36675 88.7133C9.07327 88.7713 8.75135 88.5973 8.43893 88.5402C8.42001 88.4341 8.41054 88.3371 8.3916 88.2311Z" fill="#333333"/>
<path d="M123.281 47.2566C122.692 49.3145 122.444 51.2194 122.609 53.172C122.821 55.6225 125.233 58.3792 128.583 56.4552C129.889 55.7085 130.763 54.5694 131.334 53.2009C131.749 52.234 132.356 51.9276 133.322 51.985C135.19 52.0904 137.059 52.0904 138.927 52.1957C140.225 52.2722 140.482 52.684 140.216 54.024C138.954 60.2743 134.62 64.419 128.472 65.357C126.429 65.6729 124.432 65.6823 122.389 65.3379C116.563 64.352 113.259 60.4849 113.286 54.311C113.286 51.9659 113.59 49.6113 113.866 47.2758C114.345 43.0737 114.934 38.8813 115.431 34.6697C116.25 27.7205 120.971 22.8867 127.699 21.7095C130.672 21.1926 133.579 21.3839 136.377 22.5421C140.436 24.2365 142.589 27.51 142.654 31.9513C142.7 35.4068 142.175 38.8621 141.862 42.3176C141.771 43.3704 141.568 44.4138 141.393 45.4571C141.136 46.9694 140.869 47.2279 139.396 47.2375C134.859 47.2566 130.322 47.2375 125.785 47.2375C124.993 47.2375 124.201 47.2375 123.272 47.2375L123.281 47.2566ZM133.202 39.7619C133.322 37.6752 133.589 35.6938 133.497 33.7412C133.395 31.6162 131.868 30.1613 129.843 30.0465C128.14 29.9412 126.797 30.8123 125.812 32.2098C124.239 34.4496 124.174 37.0627 124.017 39.7619H133.211H133.202Z" fill="#333333"/>
<path d="M236.074 63.4148H226.675C226.646 62.7371 226.52 62.1465 226.598 61.5751C228.277 48.5135 229.974 35.4617 231.69 22.2356H241.428C241.495 23.0296 241.562 23.7849 241.64 24.7046C242.184 24.3366 242.66 24.0269 243.134 23.6976C246.801 21.1318 250.825 20.88 254.899 22.2936C258.662 23.6009 260.079 26.8444 260.138 30.4657C260.186 33.7093 259.651 36.972 259.273 40.206C258.807 44.1564 258.234 48.0874 257.693 52.0284C257.227 55.4364 256.732 58.8447 256.267 62.2625C256.149 63.1242 255.753 63.5019 254.861 63.4922C252.174 63.4632 249.497 63.4825 246.82 63.4825C245.84 62.1852 246.491 60.8779 246.627 59.6385C247.005 56.1628 247.508 52.6964 247.974 49.2204C248.401 46.0447 248.865 42.8687 249.245 39.6834C249.486 37.679 249.69 35.665 249.73 33.6414C249.778 31.2209 248.246 29.8169 245.781 29.8363C243.464 29.8556 241.64 30.8239 240.933 33.0606C240.245 35.2487 239.787 37.5337 239.439 39.8091C238.779 44.0307 238.246 48.2714 237.684 52.5124C237.287 55.5138 236.926 58.5252 236.53 61.5268C236.452 62.1076 236.257 62.6692 236.074 63.4051V63.4148Z" fill="#333333"/>
<path d="M174.167 63.4925C174.167 62.278 174.063 61.1507 174.186 60.0528C174.678 55.6121 175.236 51.1717 175.784 46.7311C176.332 42.2323 176.9 37.7334 177.429 33.2346C177.949 28.8523 178.412 24.4603 178.942 20.0781C179.462 15.7543 180.029 11.44 180.578 7.12578C180.72 5.99856 180.852 4.88112 181.013 3.75399C181.098 3.13215 181.335 2.5394 182.053 2.5297C184.89 2.50061 187.726 2.52001 190.838 2.52001C189.097 19.9713 186.525 37.1019 184.748 54.524H203.091C203.913 56.1564 203.403 61.3646 202.296 63.4925H174.167Z" fill="#333333"/>
<path d="M146.863 62.9669C148.503 49.343 150.144 35.8044 151.794 22.0854H161.02C160.896 23.5865 160.801 24.8978 160.669 26.5794C161.171 25.9048 161.475 25.5151 161.768 25.1162C163.143 23.2636 164.87 22 167.183 21.5534C168.957 21.2115 170.492 21.6579 172.028 22.5131C171.782 25.7433 170.568 28.603 169.695 31.6812C169.174 31.6812 168.672 31.7192 168.169 31.6812C163.419 31.2062 160.176 33.5717 159.284 38.3222C158.82 40.7828 158.544 43.2815 158.232 45.7707C157.673 50.2265 157.141 54.6919 156.601 59.1572C156.478 60.1453 156.364 61.1239 156.231 62.112C156.127 62.9099 155.624 63.4705 154.857 63.48C152.467 63.5181 150.077 63.461 147.697 63.4136C147.489 63.4136 147.289 63.214 146.854 62.9859L146.863 62.9669Z" fill="#333333"/>
<path d="M209.832 63.4731C209.832 62.1818 209.725 61.114 209.851 60.0753C210.367 55.8137 210.972 51.5616 211.496 47.3097C211.924 43.8829 212.285 40.4368 212.694 37.01C213.131 33.282 213.579 29.5543 214.036 25.817C214.162 24.749 214.328 23.6909 214.483 22.6328C214.601 21.7882 215.058 21.4193 215.944 21.4387C218.687 21.4776 221.429 21.4486 224.475 21.4486C224.349 23.2445 224.28 24.9433 224.096 26.6324C223.708 30.1271 223.24 33.6122 222.812 37.0973C222.365 40.7084 221.927 44.31 221.488 47.9214C221.079 51.29 220.709 54.6682 220.272 58.0367C220.087 59.5122 219.795 60.9783 219.544 62.444C219.426 63.1137 219.094 63.4925 218.338 63.4925C215.582 63.4731 212.839 63.4925 209.824 63.4925L209.832 63.4731Z" fill="#333333"/>
<path d="M46.1696 21.6952C49.3168 21.2994 52.3624 21.4732 55.4817 21.4925C55.6483 22.5059 55.8336 23.2491 55.8705 24.0117C56.139 29.1659 56.3612 34.3201 56.6297 39.4743C56.713 41.1247 56.4076 42.6208 55.6483 44.0782C54.047 47.1475 52.5474 50.2844 50.9923 53.3827C50.7146 53.9427 50.3536 54.4444 49.9649 55.0815C49.2243 53.3537 45.8272 23.3072 46.1788 21.6952H46.1696Z" fill="#333333"/>
<path d="M212.751 7.41527C215.199 6.75727 216.858 5.23144 217.739 2.53271C218.02 3.48636 218.218 4.11573 218.404 4.7547C219.801 4.72606 219.061 3.18119 220.158 2.76156C220.299 3.39101 220.439 4.00135 220.599 4.70694C222.052 4.8882 221.282 3.05721 222.314 2.76156C222.482 3.4482 222.641 4.11573 222.801 4.78325C222.952 4.81189 223.101 4.83092 223.26 4.85956C223.618 4.17301 223.964 3.47684 224.46 2.51367C224.668 5.35542 226.241 6.70008 228.671 7.54878C227.76 7.92065 227.114 8.17814 226.468 8.43564L226.525 8.81703C227.106 9.08403 227.677 9.35104 228.512 9.73252C227.585 10.114 226.909 10.3905 226.225 10.6671C226.225 10.8101 226.225 10.9532 226.225 11.0962C226.795 11.3346 227.368 11.573 227.939 11.8209C227.958 11.9354 227.968 12.0498 227.987 12.1547C227.349 12.3741 226.701 12.5934 226.047 12.8223C225.887 14.2145 227.49 13.423 227.771 14.2527C224.441 15.6355 224.133 16.179 222.661 18.9539C222.426 18.2197 222.231 17.5807 222.014 16.9036C220.655 16.8751 221.48 18.6489 220.318 18.8204C220.177 18.3055 220.026 17.7714 219.866 17.1803C218.526 16.9419 219.033 18.4582 218.226 18.9348C217.974 18.2388 217.72 17.5521 217.466 16.8655L217.091 16.8464C216.801 17.5332 216.52 18.2197 216.051 19.3354C215.582 16.5413 214.28 14.9487 211.888 14.4052C212.404 13.5471 213.699 14.0906 213.922 12.8985C213.331 12.6411 212.788 12.4122 212.234 12.1738C212.215 12.0498 212.207 11.9259 212.188 11.8019C212.62 11.6969 213.069 11.6397 213.472 11.4586C213.734 11.3442 213.922 11.0676 214.147 10.8578C213.969 10.6575 213.828 10.381 213.612 10.2761C213.258 10.114 212.853 10.0758 212.469 9.9805C212.46 8.51195 214.364 9.63718 214.504 8.23533C213.941 8.0828 213.38 7.93017 212.826 7.77763C212.807 7.65364 212.78 7.52965 212.761 7.40567L212.751 7.41527ZM224.247 6.88126C221.639 7.05292 219.22 7.21497 216.764 7.37712C216.501 9.78971 216.258 12.0117 216.004 14.3099C218.536 14.8726 220.964 14.615 223.412 14.6436C223.701 12.0117 223.964 9.5895 224.255 6.89077L224.247 6.88126Z" fill="#333333"/>
<path d="M218.182 9.02906C219.669 8.95501 220.958 8.88839 222.378 8.82178C222.222 10.3395 222.091 11.6649 221.949 13.0272H218.182V9.02906Z" fill="#333333"/>
</svg>
