<svg width="50" height="50" viewBox="0 0 50 50" fill="none" xmlns="http://www.w3.org/2000/svg">
<rect width="50" height="50" rx="5" fill="#4DC1FD"/>
<g clip-path="url(#clip0_41_165)">
<path fill-rule="evenodd" clip-rule="evenodd" d="M24.9888 42.0154C20.4513 42.0154 16.1835 40.2409 12.9713 37.0287C9.75916 33.8166 7.98462 29.5487 7.98462 24.9888C7.98462 20.4513 9.75916 16.1835 12.9713 12.9713C16.1835 9.75916 20.4513 7.98462 24.9888 7.98462C29.5487 7.98462 33.8166 9.75916 37.0287 12.9713C40.2409 16.1835 42.0154 20.4513 42.0154 24.9888C42.0154 29.5487 40.2409 33.8166 37.0287 37.0287C33.8166 40.2409 29.5487 42.0154 24.9888 42.0154ZM24.9888 8.88312C16.1161 8.88312 8.88312 16.1161 8.88312 24.9888C8.88312 33.884 16.1161 41.1169 24.9888 41.1169C33.884 41.1169 41.1169 33.884 41.1169 24.9888C41.1169 16.1161 33.884 8.88312 24.9888 8.88312Z" fill="white"/>
<path fill-rule="evenodd" clip-rule="evenodd" d="M24.9889 36.5345C18.632 36.5345 13.4656 31.3457 13.4656 24.9888C13.4656 18.6318 18.632 13.4655 24.9889 13.4655C31.3458 13.4655 36.5346 18.6318 36.5346 24.9888C36.5346 31.3457 31.3458 36.5345 24.9889 36.5345ZM24.9889 14.364C19.1261 14.364 14.3641 19.126 14.3641 24.9888C14.3641 30.8515 19.1261 35.636 24.9889 35.636C30.8516 35.636 35.6361 30.8515 35.6361 24.9888C35.6361 19.126 30.8516 14.364 24.9889 14.364Z" fill="white"/>
<path fill-rule="evenodd" clip-rule="evenodd" d="M24.9887 13.0163C23.9779 13.0163 23.1468 12.1851 23.1468 11.1743C23.1468 10.1635 23.9779 9.3324 24.9887 9.3324C26.022 9.3324 26.8306 10.1635 26.8306 11.1743C26.8306 12.1851 26.022 13.0163 24.9887 13.0163ZM18.0927 14.8582C17.4188 14.8582 16.8123 14.5213 16.4754 13.9372C16.2507 13.5104 16.1834 13.0163 16.2957 12.5445C16.4304 12.0728 16.7449 11.6685 17.1717 11.4214C17.4413 11.2642 17.7557 11.1743 18.0927 11.1743C18.7441 11.1743 19.3506 11.5337 19.6875 12.0953C20.1817 12.9713 19.8897 14.1169 19.0136 14.6111C18.7216 14.7908 18.4072 14.8582 18.0927 14.8582ZM13.0161 19.9347C12.7017 19.9347 12.3872 19.8449 12.0952 19.6876C11.2191 19.171 10.9271 18.0479 11.4213 17.1718C11.7582 16.5878 12.3647 16.2284 13.0161 16.2284C13.3531 16.2284 13.6676 16.3183 13.9371 16.4755C14.8356 16.9921 15.1276 18.1153 14.611 19.0138C14.2965 19.5753 13.6676 19.9347 13.0161 19.9347ZM36.9612 19.9347C36.3098 19.9347 35.7033 19.5753 35.3664 19.0138C34.8722 18.1153 35.1642 16.9921 36.0403 16.4755C36.3323 16.3183 36.6468 16.2284 36.9612 16.2284C37.6351 16.2284 38.2416 16.5878 38.5561 17.1718C38.8032 17.5986 38.8706 18.0928 38.7582 18.5645C38.6235 19.0362 38.309 19.4406 37.8822 19.6876C37.6127 19.8449 37.2982 19.9347 36.9612 19.9347ZM31.9072 14.8582C31.5927 14.8582 31.2782 14.7908 30.9862 14.6111C30.1102 14.1169 29.7957 12.9713 30.3123 12.0953C30.6493 11.5337 31.2557 11.1743 31.9072 11.1743C32.2216 11.1743 32.5361 11.2642 32.8057 11.4214C32.8281 11.4214 32.8506 11.4214 32.8506 11.4439C33.2774 11.691 33.5694 12.0728 33.6817 12.5445C33.8165 13.0163 33.7491 13.5104 33.502 13.9372C33.1875 14.5213 32.5586 14.8582 31.9072 14.8582ZM38.8256 26.8307C37.8148 26.8307 36.9837 26.0221 36.9837 24.9888C36.9837 23.978 37.8148 23.1469 38.8256 23.1469C39.8364 23.1469 40.6676 23.978 40.6676 24.9888C40.6676 26.0221 39.8364 26.8307 38.8256 26.8307ZM11.1742 26.8307C10.1634 26.8307 9.33228 26.0221 9.33228 24.9888C9.33228 23.978 10.1634 23.1469 11.1742 23.1469C12.185 23.1469 13.0161 23.978 13.0161 24.9888C13.0161 26.0221 12.185 26.8307 11.1742 26.8307ZM36.9612 33.7492C36.6468 33.7492 36.3323 33.6594 36.0403 33.5021C35.1642 33.0079 34.8722 31.8624 35.3664 30.9863C35.7033 30.4248 36.3098 30.0654 36.9612 30.0654C37.2982 30.0654 37.6127 30.1552 37.8822 30.3124C38.7807 30.8291 39.0727 31.9522 38.5561 32.8282C38.2416 33.3898 37.6351 33.7492 36.9612 33.7492ZM13.0161 33.7492C12.3647 33.7492 11.7582 33.3898 11.4213 32.8282C10.9271 31.9522 11.2191 30.8291 12.0952 30.3124C12.3872 30.1552 12.7017 30.0654 13.0161 30.0654C13.6676 30.0654 14.2965 30.4248 14.611 30.9863C15.1276 31.8624 14.8356 33.0079 13.9371 33.5021C13.6676 33.6594 13.3531 33.7492 13.0161 33.7492ZM18.0927 38.8033C17.7557 38.8033 17.4413 38.7359 17.1717 38.5562C16.7449 38.3316 16.4304 37.9273 16.2957 37.4555C16.1834 36.9614 16.2507 36.4672 16.4754 36.0404C16.8123 35.4788 17.4188 35.1194 18.0927 35.1194C18.4072 35.1194 18.7216 35.2093 19.0136 35.3665C19.8897 35.8832 20.1817 37.0063 19.6875 37.8823C19.3506 38.4664 18.7441 38.8033 18.0927 38.8033ZM24.9887 40.6677C23.9779 40.6677 23.1468 39.8366 23.1468 38.8258C23.1468 37.8149 23.9779 36.9838 24.9887 36.9838C26.022 36.9838 26.8306 37.8149 26.8306 38.8258C26.8306 39.8366 26.022 40.6677 24.9887 40.6677ZM31.9072 38.8033C31.2557 38.8033 30.6493 38.4664 30.3123 37.8823C29.7957 37.0063 30.1102 35.8832 30.9862 35.3665C31.2782 35.2093 31.5927 35.1194 31.9072 35.1194C32.5586 35.1194 33.1875 35.4788 33.502 36.0404C33.7491 36.4672 33.8165 36.9614 33.6817 37.4555C33.5694 37.9273 33.2549 38.3316 32.8281 38.5562C32.5586 38.7359 32.2216 38.8033 31.9072 38.8033Z" fill="white"/>
<path fill-rule="evenodd" clip-rule="evenodd" d="M24.9889 33.255C20.429 33.255 16.7227 29.5487 16.7227 24.9888C16.7227 20.4289 20.429 16.7225 24.9889 16.7225C29.5488 16.7225 33.2551 20.4289 33.2551 24.9888C33.2551 29.5487 29.5488 33.255 24.9889 33.255ZM24.9889 17.621C20.9232 17.621 17.6212 20.923 17.6212 24.9888C17.6212 29.0545 20.9232 32.3565 24.9889 32.3565C29.0546 32.3565 32.3566 29.0545 32.3566 24.9888C32.3566 20.923 29.0546 17.621 24.9889 17.621Z" fill="white"/>
</g>
<defs>
<clipPath id="clip0_41_165">
<rect width="34" height="34" fill="white" transform="translate(8 8)"/>
</clipPath>
</defs>
</svg>
