<svg width="50" height="50" viewBox="0 0 50 50" fill="none" xmlns="http://www.w3.org/2000/svg">
<rect width="50" height="50" rx="5" fill="#4DC1FD"/>
<g clip-path="url(#clip0_46_313)">
<path d="M36.5016 13.4984C33.4336 10.4238 29.343 8.73047 25 8.73047C20.657 8.73047 16.5664 10.4238 13.4984 13.4984C10.4305 16.573 8.73047 20.657 8.73047 25C8.73047 29.343 10.4238 33.4336 13.4984 36.5016C16.573 39.5695 20.657 41.2695 25 41.2695C29.343 41.2695 33.4336 39.5762 36.5016 36.5016C39.5695 33.427 41.2695 29.343 41.2695 25C41.2695 20.657 39.5762 16.5664 36.5016 13.4984ZM39.7953 24.2695H33.4867C33.427 21.7594 33.075 19.3422 32.4574 17.1973C33.6594 16.5797 34.7816 15.8027 35.8109 14.8863C38.1352 17.3699 39.616 20.6504 39.7953 24.2695ZM25.7305 25.7305H32.0324C31.9793 28.0414 31.6605 30.2527 31.1094 32.2316C29.4094 31.5477 27.5965 31.1492 25.7305 31.0629V25.7305ZM34.7617 13.8703C33.9117 14.6207 32.982 15.2582 31.9992 15.7895C31.7469 15.0855 31.4613 14.4215 31.1426 13.7973C30.5117 12.5488 29.7945 11.5262 29.0043 10.7426C31.1625 11.3469 33.1215 12.4293 34.7617 13.8703ZM25.7305 10.4172C27.2512 10.7559 28.6855 12.157 29.841 14.4414C30.1531 15.059 30.432 15.7164 30.6777 16.4137C29.1172 17.0578 27.4504 17.4363 25.7305 17.5227V10.4172ZM31.116 17.8148C31.6605 19.7805 31.9727 21.9785 32.0258 24.2762H25.7305V18.9902C27.6031 18.9039 29.416 18.4988 31.116 17.8148ZM24.2695 24.2695H17.9676C18.0207 21.9719 18.3328 19.7738 18.8773 17.8082C20.5773 18.4988 22.3969 18.8973 24.2629 18.977V24.2695H24.2695ZM24.2762 10.4172V17.5227C22.5563 17.4363 20.8828 17.0578 19.3289 16.4137C19.5746 15.7164 19.8535 15.059 20.1656 14.4414C21.3211 12.157 22.7555 10.7559 24.2762 10.4172ZM21.0023 10.7426C20.2121 11.5262 19.4949 12.5555 18.8641 13.7973C18.552 14.4215 18.2664 15.0855 18.0074 15.7895C17.0246 15.2582 16.1016 14.6207 15.2449 13.8703C16.8852 12.4293 18.8441 11.3469 21.0023 10.7426ZM14.1957 14.8863C15.225 15.8027 16.3473 16.573 17.5492 17.1973C16.9316 19.3488 16.573 21.7594 16.5199 24.2695H10.2113C10.3906 20.6504 11.8715 17.3699 14.1957 14.8863ZM10.2113 25.7305H16.5199C16.5797 28.2605 16.9383 30.6844 17.5625 32.8426C16.3672 33.4602 15.2449 34.2238 14.2223 35.1402C11.8781 32.65 10.3906 29.3629 10.2113 25.7305ZM15.2715 36.1562C16.1215 35.4125 17.0445 34.775 18.0207 34.2504C18.273 34.9344 18.552 35.5918 18.8641 36.2027C19.4949 37.4512 20.2121 38.4738 21.0023 39.2641C18.8574 38.6598 16.9051 37.584 15.2715 36.1562ZM24.2762 39.5828C22.7555 39.2441 21.3211 37.843 20.1656 35.5586C19.8602 34.9543 19.5879 34.3102 19.3422 33.6262C20.8961 32.982 22.5629 32.6035 24.2762 32.5238V39.5828ZM18.8973 32.2316C18.3461 30.2527 18.0273 28.0414 17.9742 25.7305H24.2762V31.0629C22.4102 31.1426 20.5973 31.541 18.8973 32.2316ZM25.7371 39.5828V32.5238C27.4504 32.6102 29.1172 32.982 30.6711 33.6262C30.4254 34.3102 30.1531 34.9543 29.8477 35.5586C28.6922 37.843 27.2578 39.2441 25.7371 39.5828ZM29.0109 39.2574C29.8012 38.4738 30.5184 37.4445 31.1492 36.1961C31.4613 35.5852 31.7402 34.9277 31.9926 34.2438C32.9688 34.7684 33.8918 35.4059 34.7418 36.1496C33.1082 37.584 31.1559 38.6598 29.0109 39.2574ZM35.7977 35.1402C34.775 34.2305 33.6527 33.4602 32.4574 32.8426C33.0816 30.6844 33.4402 28.2539 33.5 25.7305H39.8086C39.6227 29.3629 38.1352 32.65 35.7977 35.1402Z" fill="white"/>
</g>
<defs>
<clipPath id="clip0_46_313">
<rect width="34" height="34" fill="white" transform="translate(8 8)"/>
</clipPath>
</defs>
</svg>
