<svg width="50" height="50" viewBox="0 0 50 50" fill="none" xmlns="http://www.w3.org/2000/svg">
<rect width="50" height="50" rx="5" fill="#4DC1FD"/>
<path d="M35.768 21.1763L42 27.4084M35.768 27.4084L42 21.1763M8 23.8585C8 19.8819 9.6367 18.0744 11.6101 17.4099C14.7715 16.3454 18.4345 16.7229 21.3715 15.1414L26.4125 12.427C27.9854 11.58 29.9277 11.8651 31.191 13.1283V13.1283C31.9497 13.887 32.3759 14.916 32.3759 15.9889V33.1278C32.3759 34.1631 31.9646 35.1561 31.2325 35.8882V35.8882C29.9591 37.1616 27.9798 37.3986 26.4417 36.4619L21.2309 33.2887C18.3848 31.5555 14.7123 31.7152 11.6089 30.5017C9.63601 29.7302 8 27.8342 8 23.8585Z" stroke="white" stroke-width="2" stroke-linejoin="round"/>
</svg>
