<svg width="50" height="50" viewBox="0 0 50 50" fill="none" xmlns="http://www.w3.org/2000/svg">
<rect width="50" height="50" rx="5" fill="#4DC1FD"/>
<path d="M9.00001 14H41C41.5523 14 42 14.4477 42 15V35C42 35.5523 41.5523 36 41 36H9.00001C8.44771 36 8 35.5523 8 35V15C8 14.4477 8.44771 14 9.00001 14ZM10 16V34H40V16H10ZM15.4142 24H34.5857L33.2929 22.7071C32.9023 22.3166 32.9023 21.6834 33.2929 21.2929C33.6834 20.9024 34.3166 20.9024 34.7071 21.2929L37.707 24.2929C38.0976 24.6834 38.0976 25.3166 37.707 25.7071L34.7071 28.7071C34.3165 29.0976 33.6833 29.0976 33.2929 28.7071C32.9024 28.3165 32.9023 27.6833 33.2929 27.2929L34.5857 26H15.4142L16.7071 27.2929C17.0976 27.6834 17.0976 28.3166 16.7071 28.7071C16.3165 29.0976 15.6833 29.0976 15.2929 28.7071L12.2929 25.7071C11.9024 25.3166 11.9024 24.6834 12.2929 24.2929L15.2929 21.2929C15.6834 20.9024 16.3166 20.9024 16.7071 21.2929C17.0976 21.6835 17.0976 22.3167 16.7071 22.7071L15.4142 24Z" fill="white"/>
</svg>
