<svg width="50" height="50" viewBox="0 0 50 50" fill="none" xmlns="http://www.w3.org/2000/svg">
<rect width="50" height="50" rx="5" fill="#4DC1FD"/>
<path d="M41.8995 27.6016C42.1826 28.2984 41.8472 29.0927 41.1504 29.3758L37.366 30.9149L40.8685 33.0195C41.5217 33.3925 41.7489 34.2245 41.3758 34.8777C41.0028 35.5308 40.1709 35.758 39.5177 35.385C39.5001 35.375 39.4828 35.3645 39.4657 35.3537L35.9633 33.2494L36.3812 37.315C36.4459 38.0644 35.8909 38.7245 35.1415 38.7892C34.409 38.8525 33.7585 38.3231 33.6717 37.593L33.0452 31.4959L26.3521 27.4753V35.2833L31.2554 38.9608C31.8571 39.4121 31.9791 40.2658 31.5278 40.8676C31.0765 41.4694 30.2227 41.5914 29.621 41.14L26.3522 38.6884V42.7745C26.3522 43.5268 25.7424 44.1366 24.9901 44.1366C24.2378 44.1366 23.628 43.5268 23.628 42.7745V38.6884L20.3592 41.14C19.7574 41.5914 18.9037 41.4694 18.4524 40.8676C18.0011 40.2658 18.1231 39.4121 18.7248 38.9608L23.6281 35.2833V27.4753L16.9353 31.4969L16.3088 37.594C16.2718 37.9532 16.0937 38.2831 15.8136 38.5111C15.5335 38.7391 15.1743 38.8465 14.8151 38.8097C14.0673 38.7334 13.5229 38.0654 13.5992 37.3176L13.5994 37.316L14.0173 33.2504L10.5149 35.3547C9.879 35.7565 9.03774 35.5667 8.63602 34.9307C8.2342 34.2948 8.42407 33.4535 9.06001 33.0518C9.07714 33.041 9.09446 33.0305 9.11209 33.0205L12.6146 30.9159L8.83015 29.3768C8.13788 29.0825 7.81526 28.2828 8.10947 27.5906C8.39715 26.9139 9.17 26.5877 9.85553 26.8536L15.5333 29.1624L22.3461 25.0682L15.5327 20.9744L9.85494 23.2839C9.15366 23.556 8.36458 23.2081 8.09254 22.5067C7.82654 21.8212 8.15283 21.0482 8.82956 20.7607L12.614 19.2216L9.11139 17.1163C8.45813 16.7433 8.23104 15.9113 8.60405 15.2582C8.97706 14.6049 9.80901 14.3778 10.4622 14.7508C10.4798 14.7608 10.4971 14.7713 10.5142 14.7821L14.0166 16.8864L13.5987 12.8207C13.522 12.0724 14.0664 11.4035 14.8147 11.3268C15.563 11.2501 16.2319 11.7944 16.3086 12.5427L16.9351 18.6398L23.628 22.6612V14.8531L18.7247 11.1756C18.1228 10.7245 18.0004 9.87088 18.4515 9.26889C18.9026 8.66691 19.7563 8.54455 20.3582 8.99567L20.3592 8.99636L23.628 11.448V7.36206C23.628 6.60981 24.2378 6 24.9901 6C25.7424 6 26.3522 6.60981 26.3522 7.36206V11.4482L29.621 8.99656C30.2227 8.54525 31.0765 8.66721 31.5278 9.26899C31.9791 9.87078 31.8571 10.7245 31.2554 11.1758L26.3521 14.8531V22.6613L33.0449 18.6395L33.6714 12.5424C33.7602 11.7954 34.4377 11.2619 35.1846 11.3506C35.9147 11.4374 36.4441 12.088 36.3809 12.8204L35.963 16.886L39.4654 14.7817C40.1013 14.38 40.9426 14.5697 41.3443 15.2057C41.746 15.8416 41.5562 16.6829 40.9203 17.0846C40.9031 17.0954 40.8858 17.1059 40.8682 17.1159L37.3657 19.2205L41.1501 20.7596C41.8424 21.0539 42.165 21.8536 41.8707 22.5458C41.583 23.2226 40.8102 23.5487 40.1247 23.2828L34.4469 20.974L27.6341 25.0682L34.4475 29.162L40.1253 26.8532C40.8209 26.5695 41.6147 26.9034 41.8984 27.599L41.8995 27.6016Z" fill="white"/>
</svg>
