<svg width="50" height="50" viewBox="0 0 50 50" fill="none" xmlns="http://www.w3.org/2000/svg">
<rect width="50" height="50" rx="5" fill="#4DC1FD"/>
<path d="M36.5721 14L32.7273 18L36.5721 22L32.7273 26L36.5721 30L32.7273 34L36.5721 38M13.4279 14L17.2727 18L13.4279 22L17.2727 26L13.4279 30L17.2727 34L13.4279 38M42 14L38.1552 18L42 22L38.1552 26L42 30L38.1552 34L42 38M8 14L11.8448 18L8 22L11.8448 26L8 30L11.8448 34L8 38M17.2727 26.0784H20.5898M20.5898 26.0784L24.9623 21.5294L29.3348 26.0784M20.5898 26.0784L24.9623 30.6275L29.3348 26.0784M29.3348 26.0784H32.8027" stroke="white" stroke-width="2" stroke-linecap="round" stroke-linejoin="round"/>
</svg>
