<svg width="300" height="73" viewBox="0 0 300 73" fill="none" xmlns="http://www.w3.org/2000/svg">
<g clip-path="url(#clip0_57_315)">
<path d="M195.515 35.2095C202.255 41.2625 202.968 49.1283 200.781 57.3731C198.538 65.8124 193.138 71.251 184.971 72.8384C181.957 73.4222 178.811 73.2277 175.721 73.2686C171.919 73.33 168.106 73.2481 164.303 73.2993C163.077 73.3199 162.563 72.8283 162.696 71.5276C163.095 67.6662 163.457 63.7947 163.885 59.9336C164.398 55.3964 164.969 50.8591 165.501 46.322C166.185 40.5353 166.87 34.7486 167.526 28.9618C168.163 23.3596 168.762 17.7572 169.38 12.1549C169.741 8.85684 170.074 5.5487 170.473 2.25087C170.644 0.898947 171.395 0.192225 172.755 0.171685C178.896 0.07958 185.047 -0.412078 191.169 -0.0945916C197.482 0.233211 202.502 3.40817 203.966 9.03111C206.523 18.8736 203.966 27.9785 196.58 34.2979C196.228 34.6051 195.866 34.9123 195.515 35.2095ZM174.913 62.3609C177.489 62.3609 179.761 62.3507 182.033 62.3609C184.125 62.3814 185.78 61.3572 187.015 59.6674C190.39 55.0482 191.256 49.8759 189.563 44.2838C188.926 42.1842 187.614 40.6172 185.523 40.2894C183.631 39.9925 181.701 39.9822 179.79 39.9515C177.803 39.9309 177.308 40.5865 177.09 42.7577C176.719 46.4244 176.225 50.091 175.816 53.7578C175.502 56.5434 175.227 59.3292 174.913 62.3507V62.3609ZM178.488 31.1536C180.123 31.041 181.539 31.0922 182.889 30.8054C184.857 30.3856 187.025 30.15 188.688 29.0848C192.539 26.6165 194.145 20.9117 192.947 15.5552C192.187 12.1549 190.191 10.4341 186.968 10.4035C185.504 10.3932 184.04 10.4445 182.576 10.3932C181.244 10.3419 180.712 10.9872 180.589 12.3905C180.342 15.0635 179.932 17.7264 179.629 20.3997C179.229 23.9332 178.877 27.4769 178.488 31.1536Z" fill="#333333"/>
<path d="M207.042 45.8545C207.814 40.0766 208.513 34.2886 209.439 28.5304C209.572 27.7079 210.704 26.5681 211.567 26.3896C218.345 24.9825 224.66 22.4452 230.769 19.4025C232.642 18.471 234.13 18.4411 236.034 19.462C241.722 22.5046 247.667 24.9723 254.176 25.9239C254.917 26.0328 255.832 26.1319 255.595 27.3809C254.455 33.4561 253.487 39.5613 252.275 45.6166C250.68 53.5651 245.96 59.581 239.13 64.0708C235.428 66.4988 231.53 68.6494 227.642 70.7803C226.891 71.1965 225.473 71.3751 224.845 70.9785C219.826 67.7972 214.705 64.6951 211.31 59.7099C208.461 55.5276 207.073 50.929 207.053 45.8545H207.042ZM224.825 61.484C224.947 61.5533 225.061 61.6229 225.183 61.702C231.15 54.3482 237.114 47.0043 243.367 39.2935H233.298C235.407 35.1806 237.392 31.3154 239.469 27.2519C236.507 27.2519 233.916 27.3214 231.323 27.2223C229.884 27.1727 229.142 27.7476 228.59 28.9666C226.747 33.0199 224.835 37.0438 222.953 41.0875C221.934 43.2779 220.927 45.4682 219.783 47.9358H230.225C228.361 52.5939 226.592 57.0439 224.825 61.484Z" fill="#333333"/>
<path d="M272.807 56.839C269.951 61.6829 267.228 66.1513 264.666 70.7108C263.628 72.549 262.378 73.4019 260.182 73.2902C256.707 73.1073 253.219 73.2395 249.295 73.2395C249.917 72.0208 250.301 71.1374 250.8 70.3249C255.416 62.9016 259.99 55.4579 264.737 48.1159C265.988 46.1864 266.14 44.5412 265.316 42.4291C262.49 35.1985 259.817 27.9074 257.123 20.626C256.228 18.199 256.513 17.7929 259.055 17.7014C262.175 17.5897 265.295 17.4578 268.418 17.4374C269.789 17.4374 270.632 18.189 271.09 19.5903C272.514 23.9468 274.058 28.2728 275.552 32.6091C275.603 32.7716 275.705 32.9138 275.918 33.3503C276.397 32.67 276.803 32.1622 277.139 31.6139C279.598 27.5619 282.099 23.5305 284.478 19.4378C285.494 17.6912 286.775 16.8383 288.86 16.8891C291.29 16.9399 293.717 16.6757 296.157 16.6048C297.256 16.5743 298.363 16.696 300 16.7774C299.451 18.0773 299.176 19.0621 298.658 19.8847C293.911 27.4401 289.164 34.9854 284.316 42.4797C283.086 44.389 282.881 46.0747 283.737 48.2377C286.572 55.397 289.185 62.6376 291.879 69.8477C292.093 70.4265 292.295 71.0155 292.457 71.6146C292.762 72.7112 292.375 73.2699 291.186 73.2699C287.487 73.2495 283.795 73.2495 280.096 73.2699C278.654 73.2699 278.195 72.2747 277.819 71.1882C276.305 66.7809 274.821 62.3633 273.317 57.9561C273.245 57.7326 273.122 57.5295 272.797 56.8595L272.807 56.839Z" fill="#333333"/>
<path d="M148.411 35.388C148.933 30.6773 149.445 26.19 149.899 21.6924C150.121 19.5504 150.623 19.0225 152.671 18.9818C153.917 18.9513 155.153 18.8499 156.389 18.728C157.933 18.5656 158.591 19.0935 158.426 20.6874C157.953 25.1341 157.393 29.5809 156.871 34.0276C156.331 38.657 155.79 43.2867 155.239 47.9162C154.563 53.5913 153.868 59.2665 153.202 64.9418C153.008 66.6066 152.873 68.2818 152.729 69.9569C152.535 72.1497 151.995 72.698 149.967 72.688C148.721 72.688 147.465 72.6271 146.22 72.7082C144.955 72.7794 144.123 72.3935 144.095 70.9824C142.549 71.6829 141.101 72.6473 139.517 73.0025C133.269 74.4138 128.943 70.7081 128.875 63.8554C128.846 61.2564 129.233 58.6371 129.541 56.0483C130.082 51.6116 130.526 47.1548 131.357 42.7789C132.409 37.2154 135.79 33.8449 141.11 33.2156C142.917 33.0022 144.858 33.9463 146.721 34.4337C147.262 34.5759 147.726 35.0022 148.402 35.4084L148.411 35.388ZM147.224 46.1293C147.175 46.1293 147.127 46.1192 147.079 46.1089C147.098 45.6725 147.137 45.2359 147.146 44.7994C147.195 42.9923 146.529 41.6318 144.868 40.9923C143.226 40.3526 141.729 40.8806 140.715 42.2105C139.894 43.2865 139.121 44.6368 138.908 45.967C138.156 50.7995 137.624 55.6726 137.074 60.5456C136.842 62.5864 137.953 64.5761 139.575 65.2563C141.149 65.9163 142.974 65.368 144.085 63.7132C144.617 62.9213 145.119 61.9872 145.254 61.0534C145.978 56.0888 146.586 51.104 147.233 46.1293H147.224Z" fill="#333333"/>
<path d="M8.51337 14.5C12.0685 24.8721 19.1379 32.1074 26.9836 38.7455C36.4641 46.76 35.994 62.738 25.9824 70.0746C21.4875 73.3632 16.4 74.0614 11.1797 72.5133C4.03883 70.3984 1.79133 64.0738 2.14889 57.9111C2.22041 56.6768 2.31236 55.4321 2.35321 54.1976C2.39407 52.8617 2.9253 52.113 4.40659 52.1534C6.41912 52.2039 8.43163 52.2244 10.4442 52.1534C11.8029 52.1028 12.2217 52.6695 12.1707 53.9344C12.0889 55.6141 12.0072 57.3041 12.1196 58.9738C12.3954 63.0517 16.4409 64.9745 19.9143 62.738C24.2866 59.9148 25.0121 52.872 21.1809 48.966C17.8915 45.6165 14.3875 42.4896 11.0265 39.2211C7.10359 35.396 5.31579 30.6402 5.44862 25.2566C5.54056 21.6036 6.40889 18.072 8.51337 14.5201V14.5Z" fill="#333333"/>
<path d="M51.4088 36.7351C53.3107 35.9048 54.9267 34.9379 56.6513 34.486C61.8838 33.1198 65.4212 36.1149 65.4903 42.2002C65.5296 45.9835 65.1157 49.7881 64.7511 53.5717C64.2782 58.5636 63.6574 63.5452 63.1055 68.5268C62.4848 74.181 62.8296 73.2037 58.5825 73.2457C54.8675 73.2877 54.9563 73.2667 55.4097 69.3361C56.1191 63.1355 56.6906 56.9241 57.3015 50.7129C57.4691 48.9894 57.5971 47.2448 57.6563 45.5106C57.7154 43.8921 57.1537 42.6625 55.5673 42.1159C53.8429 41.517 52.4633 42.1687 51.7439 43.7239C50.9555 45.4161 50.3151 47.2868 50.0786 49.1469C49.3199 55.1374 48.7777 61.1701 48.1374 67.1815C47.9699 68.716 47.8911 70.2819 47.4869 71.7427C47.3097 72.3734 46.4424 73.088 45.8118 73.1932C44.4518 73.4139 43.023 73.2142 41.6338 73.2772C40.53 73.3297 40.0471 72.8568 40.1555 71.6797C40.4413 68.674 40.7074 65.6578 41.0326 62.6519C41.5746 57.6073 42.156 52.5625 42.7078 47.5179C43.2793 42.3367 43.8508 37.1661 44.4125 31.9847C44.718 29.1682 45.0136 26.3619 45.2501 23.5349C45.4176 21.475 45.8809 20.9601 47.8319 20.9076C48.5018 20.8864 49.1621 20.8549 49.8322 20.8234C52.956 20.6764 53.2712 21.1493 52.818 24.4388C52.2759 28.443 51.8916 32.4681 51.4088 36.7351Z" fill="#333333"/>
<path d="M107.255 61.4907C107.472 67.0597 102.912 72.3506 97.0556 73.1123C94.6611 73.4212 92.0799 73.3594 89.7271 72.8448C84.4823 71.6816 81.8392 67.5229 82.4923 62.2524C83.1347 57.1261 83.7463 51.9894 84.306 46.8528C85.1664 38.9986 90.0173 33.924 98.0093 33.4299C104.259 33.0386 111.018 36.4459 109.691 45.5662C109.307 48.1809 109.069 50.8263 108.851 53.4616C108.592 56.4982 108.333 56.7968 105.317 56.7968C101.419 56.7968 97.5223 56.8585 93.6241 56.7968C91.9141 56.7659 91.1161 57.3835 91.1887 59.1129C91.23 60.06 91.1161 61.0068 91.0955 61.9643C91.0642 63.6628 91.8106 64.9597 93.438 65.495C95.1797 66.0611 97.0241 65.6493 97.8121 64.0643C99.5121 60.6776 102.166 60.6467 105.244 61.3261C105.845 61.4598 106.488 61.4393 107.224 61.501L107.255 61.4907ZM91.9558 50.3527C93.4482 50.3527 94.713 50.3527 95.988 50.3527C101.057 50.3527 101.637 49.7454 101.181 44.7531C101.046 43.2707 100.352 42.1383 98.8797 41.5619C96.8584 40.7591 94.4019 41.85 93.5519 44.2178C92.8574 46.1529 92.4947 48.2015 91.9454 50.3527H91.9558Z" fill="#333333"/>
<path d="M115.896 73.2881C111.811 73.2881 111.705 73.278 112.149 69.5129C112.965 62.4664 113.939 55.44 114.818 48.4033C115.516 42.8265 116.151 37.2496 116.85 31.6827C117.209 28.8038 117.517 25.9146 118.109 23.0758C118.268 22.331 119.274 21.6162 120.068 21.1732C120.682 20.831 121.582 20.8612 122.354 20.831C126.758 20.6699 127.107 21.0021 126.567 25.1798C125.434 33.9276 124.228 42.6655 123.116 51.4132C122.28 57.9667 121.529 64.52 120.734 71.0735C120.565 72.4727 119.962 73.4189 118.247 73.2881C117.474 73.2276 116.681 73.2881 115.896 73.278V73.2881Z" fill="#333333"/>
<path d="M16.3644 20.7726C15.137 18.0941 13.8116 15.4425 12.7414 12.7096C12.5057 12.1124 12.9476 11.0355 13.4582 10.4834C17.6605 5.98582 27.0762 4.70086 32.5354 7.79587C36.0602 9.80469 37.6508 12.8907 37.9553 16.5555C38.1221 18.5466 37.9553 20.5645 37.9256 22.5645C37.906 23.8495 37.3268 24.7002 35.805 24.7724C33.7039 24.872 31.593 25.044 29.4917 24.9898C29.0499 24.9808 28.3233 24.1211 28.2742 23.6051C28.1369 21.9673 28.3724 20.3022 28.2348 18.6732C28.068 16.6461 26.7818 15.2345 24.6218 14.809C22.4125 14.3656 20.5667 15.2706 19.2608 16.8725C18.3379 18.0035 17.7194 19.352 16.9633 20.6008C16.7571 20.664 16.5509 20.7184 16.3447 20.7818L16.3644 20.7726Z" fill="#333333"/>
<path d="M77.0046 35.5C80.5929 35.5 80.5121 35.4897 80.0636 39.4736C79.4176 45.235 78.9244 51.027 78.3233 56.7984C77.8121 61.763 77.211 66.7173 76.7265 71.6817C76.6099 72.8974 76.1703 73.3366 75.1566 73.2958C73.9995 73.2447 72.8333 73.2447 71.6761 73.2958C70.1422 73.3672 69.5771 72.5297 69.7475 70.8646C70.1242 67.1361 70.4741 63.4075 70.8508 59.6792C71.3532 54.7759 71.8823 49.8829 72.3848 44.9796C72.636 42.4974 72.8333 40.005 73.0934 37.5225C73.2279 36.266 73.7394 35.408 75.0221 35.5103C75.6861 35.5613 76.3498 35.5103 77.0136 35.5103L77.0046 35.5Z" fill="#333333"/>
<path d="M73.9873 25.6086C73.9873 22.8364 75.9071 20.8573 78.6424 20.8012C80.8954 20.7531 82.4118 22.1952 82.3943 24.3586C82.3681 26.9946 80.0626 29.2781 77.4239 29.1979C75.1007 29.1179 73.6718 27.6354 73.9873 25.6165V25.6086Z" fill="#333333"/>
</g>
<defs>
<clipPath id="clip0_57_315">
<rect width="300" height="73" fill="white"/>
</clipPath>
</defs>
</svg>
