<svg width="324" height="114" viewBox="0 0 324 114" fill="none" xmlns="http://www.w3.org/2000/svg">
<path d="M211.156 56.6847C218.435 63.2565 219.205 71.7965 216.844 80.748C214.421 89.9107 208.589 95.8154 199.769 97.5389C196.514 98.1727 193.116 97.9616 189.779 98.006C185.672 98.0726 181.555 97.9837 177.447 98.0393C176.123 98.0617 175.568 97.5279 175.712 96.1157C176.143 91.9234 176.534 87.72 176.996 83.528C177.55 78.6019 178.166 73.6757 178.741 68.7497C179.48 62.467 180.22 56.1842 180.928 49.9014C181.616 43.8191 182.263 37.7365 182.93 31.6539C183.32 28.0732 183.68 24.4815 184.111 20.901C184.296 19.4332 185.107 18.6659 186.575 18.6436C193.208 18.5436 199.851 18.0098 206.463 18.3545C213.281 18.7104 218.702 22.1575 220.283 28.2624C223.045 38.9485 220.283 48.8339 212.306 55.6949C211.926 56.0285 211.535 56.362 211.156 56.6847ZM188.906 86.1633C191.688 86.1633 194.142 86.1523 196.596 86.1633C198.855 86.1856 200.642 85.0736 201.976 83.2389C205.621 78.2238 206.556 72.6082 204.728 66.5368C204.04 64.2572 202.623 62.5559 200.365 62.2C198.321 61.8776 196.237 61.8664 194.173 61.8331C192.027 61.8108 191.493 62.5226 191.257 64.8799C190.857 68.8608 190.323 72.8417 189.881 76.8228C189.542 79.8472 189.245 82.8718 188.906 86.1523V86.1633ZM192.767 52.2811C194.533 52.1589 196.062 52.2145 197.52 51.9031C199.646 51.4473 201.987 51.1915 203.783 50.035C207.942 47.3551 209.677 41.1613 208.383 35.3457C207.562 31.6539 205.406 29.7857 201.925 29.7524C200.344 29.7412 198.763 29.7969 197.182 29.7412C195.744 29.6856 195.169 30.3862 195.036 31.9097C194.769 34.8119 194.327 37.703 193.999 40.6054C193.567 44.4418 193.187 48.2893 192.767 52.2811Z" fill="#2A4C6B"/>
<path d="M223.606 68.242C224.439 61.9688 225.194 55.6847 226.194 49.4329C226.338 48.5399 227.56 47.3025 228.493 47.1087C235.813 45.5809 242.633 42.8262 249.231 39.5227C251.253 38.5113 252.861 38.4789 254.917 39.5872C261.06 42.8907 267.48 45.5699 274.51 46.603C275.311 46.7213 276.299 46.8289 276.043 48.1849C274.811 54.7809 273.766 61.4093 272.457 67.9837C270.734 76.6135 265.637 83.145 258.26 88.0197C254.262 90.6558 250.053 92.9907 245.854 95.3043C245.042 95.7561 243.511 95.95 242.833 95.5195C237.412 92.0655 231.881 88.6975 228.215 83.285C225.138 78.7442 223.639 73.7514 223.617 68.242H223.606ZM242.811 85.2111C242.943 85.2864 243.066 85.3619 243.198 85.4478C249.642 77.4637 256.083 69.4903 262.837 61.1186H251.962C254.24 56.6532 256.384 52.4567 258.627 48.0449C255.428 48.0449 252.629 48.1203 249.829 48.0127C248.275 47.9589 247.474 48.583 246.877 49.9065C244.887 54.3073 242.822 58.6761 240.789 63.0664C239.689 65.4445 238.601 67.8225 237.366 70.5017H248.643C246.63 75.559 244.72 80.3905 242.811 85.2111Z" fill="#2A4C6B"/>
<path d="M294.632 80.1681C291.547 85.4272 288.606 90.2786 285.839 95.2289C284.718 97.2246 283.368 98.1507 280.997 98.0294C277.244 97.8308 273.477 97.9743 269.239 97.9743C269.91 96.6512 270.325 95.692 270.864 94.8099C275.849 86.7503 280.789 78.6686 285.916 70.6973C287.267 68.6024 287.431 66.8162 286.541 64.523C283.489 56.6727 280.602 48.7566 277.693 40.8511C276.726 38.2161 277.034 37.7752 279.779 37.6758C283.149 37.5545 286.519 37.4113 289.891 37.3892C291.372 37.3892 292.282 38.2052 292.777 39.7266C294.315 44.4565 295.983 49.1533 297.596 53.8613C297.651 54.0378 297.761 54.1921 297.991 54.6661C298.509 53.9274 298.947 53.3761 299.31 52.7808C301.966 48.3815 304.667 44.0046 307.236 39.5611C308.334 37.6648 309.717 36.7387 311.969 36.7939C314.593 36.8491 317.214 36.5622 319.85 36.4852C321.036 36.4521 322.232 36.5843 324 36.6726C323.407 38.0839 323.11 39.1532 322.551 40.0463C317.424 48.2493 312.297 56.4413 307.061 64.578C305.733 66.6509 305.511 68.4811 306.436 70.8295C309.498 78.6025 312.32 86.4637 315.229 94.2918C315.46 94.9202 315.679 95.5597 315.854 96.2102C316.183 97.4008 315.765 98.0073 314.481 98.0073C310.486 97.9852 306.499 97.9852 302.504 98.0073C300.946 98.0073 300.451 96.9268 300.045 95.7472C298.409 90.9621 296.807 86.1659 295.182 81.3809C295.105 81.1383 294.972 80.9178 294.621 80.1903L294.632 80.1681Z" fill="#2A4C6B"/>
<path d="M160.284 56.8785C160.848 51.764 161.4 46.8921 161.891 42.009C162.131 39.6834 162.673 39.1102 164.884 39.066C166.23 39.0329 167.565 38.9228 168.9 38.7905C170.568 38.6141 171.278 39.1873 171.1 40.9178C170.589 45.7457 169.984 50.5736 169.421 55.4015C168.837 60.4277 168.253 65.4542 167.658 70.4805C166.928 76.642 166.177 82.8037 165.458 88.9654C165.249 90.7729 165.103 92.5917 164.947 94.4104C164.738 96.7912 164.154 97.3865 161.964 97.3756C160.618 97.3756 159.262 97.3095 157.917 97.3975C156.551 97.4748 155.653 97.0559 155.622 95.5238C153.953 96.2844 152.389 97.3314 150.678 97.7171C143.93 99.2493 139.258 95.226 139.185 87.7859C139.153 84.9642 139.571 82.1203 139.904 79.3096C140.488 74.4926 140.968 69.6538 141.865 64.9029C143.002 58.8625 146.653 55.2031 152.399 54.5198C154.35 54.2882 156.446 55.3132 158.459 55.8424C159.043 55.9968 159.544 56.4596 160.274 56.9006L160.284 56.8785ZM159.002 68.5404C158.949 68.5404 158.897 68.5295 158.845 68.5183C158.866 68.0445 158.908 67.5705 158.918 67.0965C158.97 65.1346 158.251 63.6574 156.457 62.9631C154.684 62.2686 153.067 62.8418 151.972 64.2857C151.085 65.454 150.251 66.92 150.021 68.3642C149.208 73.6109 148.634 78.9017 148.04 84.1924C147.789 86.4081 148.989 88.5684 150.741 89.3069C152.441 90.0235 154.412 89.4282 155.612 87.6315C156.186 86.7718 156.728 85.7576 156.874 84.7437C157.656 79.3536 158.313 73.9415 159.012 68.5404H159.002Z" fill="#2A4C6B"/>
<path d="M9.19432 34.2C13.0339 45.4611 20.6688 53.3166 29.1422 60.5237C39.3811 69.2251 38.8734 86.5727 28.0609 94.5381C23.2064 98.1086 17.7119 98.8667 12.074 97.1859C4.36181 94.8897 1.93451 88.023 2.32068 81.3321C2.39792 79.9919 2.49722 78.6406 2.54134 77.3002C2.58547 75.8498 3.1592 75.037 4.75899 75.0808C6.93252 75.1357 9.10604 75.1579 11.2796 75.0808C12.747 75.0259 13.1993 75.6412 13.1442 77.0145C13.0559 78.8382 12.9676 80.673 13.089 82.4858C13.3869 86.9133 17.756 89.0009 21.5073 86.5727C26.2294 83.5075 27.0129 75.861 22.8753 71.6202C19.3227 67.9836 15.5384 64.5887 11.9085 61.0401C7.67175 56.8871 5.74093 51.7236 5.88438 45.8786C5.98368 41.9125 6.92148 38.0782 9.19432 34.2218V34.2Z" fill="#2A4C6B"/>
<path d="M55.5217 58.3409C57.5757 57.4394 59.321 56.3897 61.1835 55.899C66.8346 54.4157 70.655 57.6676 70.7297 64.2744C70.7721 68.382 70.3251 72.5127 69.9313 76.6206C69.4206 82.0404 68.7501 87.449 68.1541 92.8576C67.4837 98.9965 67.8561 97.9354 63.2692 97.981C59.2571 98.0266 59.3529 98.0038 59.8426 93.7363C60.6088 87.0042 61.226 80.2604 61.8858 73.5168C62.0668 71.6456 62.205 69.7514 62.2689 67.8686C62.3328 66.1114 61.7261 64.7764 60.0128 64.1829C58.1505 63.5327 56.6605 64.2402 55.8836 65.9287C55.0321 67.766 54.3405 69.797 54.085 71.8166C53.2656 78.3205 52.6801 84.8703 51.9885 91.397C51.8076 93.063 51.7225 94.7632 51.286 96.3492C51.0946 97.0339 50.1579 97.8098 49.4769 97.924C48.0081 98.1636 46.465 97.9468 44.9646 98.0152C43.7726 98.0722 43.251 97.5587 43.3681 96.2808C43.6768 93.0174 43.9641 89.7427 44.3154 86.4791C44.9007 81.0021 45.5286 75.525 46.1246 70.048C46.7418 64.4226 47.359 58.8088 47.9657 53.1833C48.2956 50.1254 48.6148 47.0786 48.8702 44.0093C49.0511 41.7728 49.5515 41.2138 51.6586 41.1568C52.3821 41.1337 53.0952 41.0995 53.8189 41.0653C57.1926 40.9057 57.533 41.4192 57.0436 44.9906C56.4581 49.3381 56.0431 53.7082 55.5217 58.3409Z" fill="#2A4C6B"/>
<path d="M115.835 85.2185C116.07 91.2649 111.145 97.0093 104.82 97.8363C102.234 98.1717 99.4463 98.1046 96.9052 97.5458C91.2409 96.2829 88.3863 91.7678 89.0916 86.0455C89.7854 80.4798 90.446 74.9029 91.0504 69.326C91.9797 60.7986 97.2187 55.289 105.85 54.7525C112.6 54.3277 119.899 58.027 118.466 67.9291C118.052 70.7679 117.794 73.64 117.559 76.5012C117.279 79.7981 117 80.1223 113.742 80.1223C109.533 80.1223 105.324 80.1893 101.114 80.1223C99.2672 80.0888 98.4054 80.7593 98.4837 82.6369C98.5284 83.6652 98.4054 84.6932 98.3831 85.7327C98.3493 87.5768 99.1554 88.9849 100.913 89.5661C102.794 90.1807 104.786 89.7336 105.637 88.0127C107.473 84.3357 110.339 84.3022 113.664 85.0398C114.313 85.185 115.007 85.1627 115.802 85.2297L115.835 85.2185ZM99.3122 73.1259C100.924 73.1259 102.29 73.1259 103.667 73.1259C109.141 73.1259 109.768 72.4665 109.275 67.0463C109.13 65.4368 108.38 64.2074 106.79 63.5816C104.607 62.7099 101.954 63.8944 101.036 66.4651C100.286 68.5661 99.8942 70.7903 99.301 73.1259H99.3122Z" fill="#2A4C6B"/>
<path d="M125.168 98.0271C120.756 98.0271 120.641 98.0161 121.121 93.9283C122.002 86.2778 123.054 78.6491 124.003 71.0093C124.757 64.9545 125.443 58.8995 126.198 52.8555C126.586 49.7298 126.918 46.593 127.558 43.5109C127.729 42.7022 128.816 41.9261 129.673 41.4452C130.336 41.0736 131.308 41.1064 132.142 41.0736C136.898 40.8987 137.275 41.2594 136.692 45.7952C135.469 55.2928 134.166 64.7797 132.965 74.2772C132.062 81.3924 131.251 88.5074 130.393 95.6226C130.21 97.1418 129.559 98.1691 127.707 98.0271C126.872 97.9614 126.015 98.0271 125.168 98.0161V98.0271Z" fill="#2A4C6B"/>
<path d="M17.6733 41.0102C16.3478 38.1021 14.9163 35.2233 13.7605 32.2561C13.506 31.6077 13.9832 30.4385 14.5346 29.8391C19.0731 24.956 29.2421 23.5609 35.138 26.9212C38.9448 29.1022 40.6627 32.4527 40.9915 36.4317C41.1717 38.5934 40.9915 40.7843 40.9595 42.9557C40.9383 44.3509 40.3127 45.2745 38.6692 45.3529C36.4 45.461 34.1202 45.6477 31.8508 45.5889C31.3737 45.5791 30.589 44.6457 30.5359 44.0855C30.3876 42.3073 30.642 40.4995 30.4934 38.7309C30.3132 36.53 28.9241 34.9974 26.5913 34.5355C24.2053 34.0541 22.2118 35.0366 20.8015 36.7758C19.8047 38.0038 19.1367 39.4678 18.3202 40.8237C18.0975 40.8923 17.8748 40.9514 17.6521 41.0202L17.6733 41.0102Z" fill="#2A4C6B"/>
<path d="M83.1651 57C87.0405 57 86.9532 56.9888 86.4688 61.3142C85.7712 67.5694 85.2385 73.8579 84.5893 80.124C84.0372 85.5141 83.388 90.8931 82.8648 96.283C82.7389 97.6029 82.2641 98.0797 81.1693 98.0354C79.9196 97.98 78.6601 97.98 77.4104 98.0354C75.7537 98.113 75.1434 97.2037 75.3275 95.3959C75.7343 91.3478 76.1122 87.2996 76.519 83.2517C77.0616 77.9281 77.6331 72.6157 78.1757 67.2921C78.447 64.5972 78.6601 61.8911 78.941 59.1959C79.0863 57.8317 79.6387 56.9001 81.024 57.0112C81.7411 57.0666 82.458 57.0112 83.1749 57.0112L83.1651 57Z" fill="#2A4C6B"/>
<path d="M79.9061 46.2607C79.9061 43.2509 81.9795 41.1022 84.9336 41.0413C87.3668 40.9891 89.0046 42.5548 88.9857 44.9036C88.9574 47.7655 86.4674 50.2448 83.6176 50.1577C81.1086 50.0708 79.5653 48.4613 79.9061 46.2693V46.2607Z" fill="#2A4C6B"/>
</svg>
