<svg width="300" height="67" viewBox="0 0 300 67" fill="none" xmlns="http://www.w3.org/2000/svg">
<g clip-path="url(#clip0_57_229)">
<path d="M300 25.75C299.7 27.2368 299.345 28.7154 299.11 30.2106C298.819 32.1321 298.665 34.0699 298.373 35.9912C298.156 37.4614 297.347 38.1298 295.809 38.1046C291.124 38.0295 286.432 38.0797 281.497 38.0797C281.091 40.6692 280.445 43.2337 281.926 45.7149C282.524 46.7172 284.248 47.2017 285.323 46.8342C287.021 46.2577 288.253 45.1134 289.06 43.501C289.45 42.7243 289.967 42.4067 290.824 42.4401C292.718 42.5237 294.612 42.5153 296.506 42.5571C296.789 42.5571 297.071 42.6574 297.355 42.7159C296.651 49.2567 292.282 54.3606 285.591 54.4609C282.58 54.5027 279.571 54.7701 276.765 53.0241C274.329 51.5121 272.985 49.2901 272.679 46.5918C272.395 44.1193 272.582 41.5632 272.816 39.0654C273.188 35.1477 273.86 31.2633 274.24 27.3371C274.83 21.1471 278.035 17.0539 283.568 15.0156C285.218 14.4058 287.192 14.6397 289.021 14.6649C290.485 14.6899 292 14.7817 293.389 15.1912C297.418 16.3606 298.965 19.6435 299.685 23.5362C299.748 23.8705 299.886 24.1962 299.991 24.5218V25.7584L300 25.75ZM286.464 31.0126C287.507 31.0042 288.56 31.0627 289.595 30.9708C289.944 30.9457 290.485 30.6033 290.55 30.3193C290.882 28.8408 291.4 27.2953 291.262 25.8335C290.979 22.7761 287.856 20.863 285.309 22.7844C284.757 23.202 284.271 23.7283 283.819 24.2545C282.306 26.0254 282.767 28.3144 282.395 30.3777C282.37 30.5281 282.992 30.9541 283.341 30.9792C284.377 31.0627 285.429 31.0126 286.472 31.0126H286.464Z" fill="#333333"/>
<path d="M73.3999 51.1084C73.0015 54.4054 72.6666 57.3269 72.2918 60.2405C72.0527 62.1336 71.8135 64.0269 71.4389 65.8878C71.3511 66.3284 70.7612 66.9567 70.3706 66.9813C68.4094 67.1118 66.4482 67.1118 64.4791 67.0873C63.347 67.0709 63.3153 66.206 63.4188 65.3492C64.0247 60.3219 64.6703 55.295 65.2685 50.2677C65.962 44.3919 66.6238 38.5161 67.3093 32.6403C67.9071 27.5072 68.537 22.3823 69.1348 17.2491C69.382 15.1436 69.677 14.8416 71.6939 14.8334C72.8259 14.8334 73.9581 14.8905 75.082 14.817C76.3815 14.7356 77.5456 14.7681 77.6971 16.4655C77.9044 16.4412 78.0239 16.4655 78.0877 16.4166C80.7664 14.3437 83.8835 14.564 86.9766 14.6538C88.8186 14.7028 91.688 17.298 92.2862 19.5258C93.1156 22.6188 93.1553 25.6872 92.5253 28.8864C91.8794 32.1671 91.8794 35.5782 91.425 38.9078C91.0906 41.3805 90.6521 43.8697 89.9506 46.2608C88.9933 49.517 86.8171 52.0387 83.7 53.0261C80.838 53.9403 77.705 54.1359 74.9466 52.1693C74.5161 51.8673 74.0857 51.5736 73.3999 51.1002V51.1084ZM84.8001 26.8952C84.8001 26.8952 84.7285 26.8952 84.6886 26.887C84.6886 26.5361 84.6886 26.1852 84.6886 25.8342C84.6248 22.5698 81.9861 20.9541 79.1082 22.3821C77.0354 23.4105 76.4054 25.3773 76.1027 27.4175C75.6879 30.2411 75.5206 33.1055 75.2415 35.9456C75.0185 38.2224 74.6198 40.4992 74.6038 42.7763C74.5798 45.3222 77.3861 47.0036 79.6581 45.9834C82.0657 44.9061 82.7833 42.6699 83.1898 40.3116C83.4609 38.7365 83.4928 37.1207 83.6842 35.5293C84.0349 32.6486 84.4256 29.7759 84.7923 26.9034L84.8001 26.8952Z" fill="#333333"/>
<path d="M163.81 54.4125C159.873 54.8955 156.582 53.3713 154.221 50.0566C152.212 47.2332 151.652 43.9183 152.484 40.4704C153.116 37.8802 153.181 37.8968 155.758 37.8968C156.791 37.8968 157.831 37.8968 158.864 37.8968C160.76 37.8968 161.129 38.3964 160.665 40.3038C160.016 42.9355 161.449 46.317 164.043 46.8583C164.635 46.9833 165.307 47.0248 165.875 46.8502C170.87 45.301 172.054 38.2717 168.653 34.99C166.052 32.4832 163.378 30.0512 160.72 27.611C157.487 24.6376 155.646 20.9229 155.07 16.4755C154.093 8.95481 160.616 0.492861 167.853 0.00977331C169.317 -0.0901517 170.806 -0.165141 172.255 -0.0151655C177.273 0.501172 181.251 4.76548 181.636 10.0042C181.756 11.6283 181.636 13.2772 181.66 14.9179C181.675 16.384 180.883 17.1585 179.587 17.1751C177.818 17.2 176.049 17.0751 174.288 16.8754C173.959 16.842 173.487 16.1841 173.448 15.7676C173.328 14.6515 173.424 13.5106 173.391 12.3862C173.32 9.69593 172.471 8.41345 170.126 7.53057C168.965 7.08914 166.396 7.93045 165.379 9.30446C163.234 12.1947 162.562 15.5927 164.971 18.6908C166.075 20.1151 167.412 21.3562 168.7 22.6054C170.974 24.8041 173.424 26.8113 175.569 29.1268C181.508 35.5231 179.234 46.7002 172.879 51.7305C170.174 53.8795 167.22 54.7289 163.818 54.4041L163.81 54.4125Z" fill="#333333"/>
<path d="M22.575 16.4884C22.575 14.922 22.6445 13.3972 22.5577 11.8807C22.4709 10.4059 21.9761 9.05623 20.5264 8.26453C18.0437 6.91484 14.6409 7.71476 13.2172 10.181C11.4551 13.2472 10.8387 16.6133 14.0072 19.4128C16.0124 21.1793 18.035 22.9291 20.0142 24.7288C21.7591 26.3119 23.5386 27.8616 25.1358 29.5696C30.6047 35.4188 28.5995 45.9505 24.5717 49.7499C21.5594 52.5911 18.2087 54.7159 13.712 54.4826C11.2206 54.3574 8.73797 54.6325 6.34209 53.4994C2.45311 51.6579 0.482597 48.6585 0.0832821 44.659C-0.0903326 42.9343 0.0572398 41.1762 0.0832821 39.4348C0.100644 38.1184 0.890594 37.4019 2.18402 37.3935C4.05038 37.3768 5.91674 37.5517 7.7831 37.5852C8.80741 37.6102 9.02444 38.1849 9.02444 38.9932C9.02444 40.4263 8.98103 41.8677 9.02444 43.3009C9.11126 45.7006 12.2016 47.7087 14.5454 46.9338C17.983 45.8005 19.0854 44.0175 19.3631 40.5346C19.5802 37.8351 18.5993 35.9354 16.6027 34.2441C13.6426 31.7277 10.7779 29.1031 7.81781 26.5869C4.92712 24.1288 2.74827 21.046 2.74827 17.455C2.74827 10.681 4.87504 4.76514 11.8977 1.40733C16.0124 -0.558974 20.3702 -0.409086 24.5109 0.757464C29.0597 2.04056 31.655 6.08998 31.69 10.6642C31.6986 12.0975 31.525 13.5305 31.525 14.9635C31.525 16.0217 31.0129 16.4718 29.9797 16.48C27.6359 16.48 25.2921 16.48 22.575 16.48V16.4884Z" fill="#333333"/>
<path d="M114.455 37.932C112.116 37.932 109.769 37.9738 107.43 37.9154C106.462 37.8905 105.95 38.2817 105.892 39.1893C105.801 40.7213 105.595 42.2864 105.818 43.7852C106.165 46.0496 108.661 47.9645 110.935 46.4076C112.076 45.6249 113.117 44.5844 113.944 43.4603C114.497 42.7028 115.009 42.3363 115.902 42.3614C117.581 42.4029 119.275 42.2864 120.928 42.4944C121.457 42.5612 122.383 43.5852 122.284 43.9349C121.002 48.6638 118.663 52.6604 113.514 53.7509C109.497 54.6001 105.363 55.1913 101.519 52.8516C98.7671 51.1784 96.9645 48.9137 97.2045 45.4834C97.5186 40.946 97.8989 36.4169 98.2704 31.8792C98.3948 30.3972 98.6259 28.932 98.7168 27.45C98.9321 23.9781 100.114 20.7561 102.594 18.4998C104.809 16.4933 107.289 14.3702 110.736 14.6201C112.1 14.7198 113.488 14.6951 114.86 14.6201C120.349 14.3202 124.664 18.7164 124.648 24.1031C124.639 26.2844 124.234 28.4657 124.011 30.6471C123.829 32.4287 123.615 34.2104 123.474 35.9922C123.375 37.2743 122.83 37.957 121.474 37.932C119.134 37.8905 116.787 37.9238 114.447 37.9154L114.455 37.932ZM115.399 30.7386C115.654 29.6564 115.77 28.8902 116.026 28.1744C116.638 26.4759 116.25 24.9524 115.34 23.5119C114.522 22.2131 112.546 21.7968 111.108 22.1715C108.496 22.8542 106.587 26.6674 107.173 30.7386H115.399Z" fill="#333333"/>
<path d="M225.171 16.6427C225.171 16.6427 225.34 16.6259 225.46 16.5337C227.892 14.7136 230.67 14.5039 233.603 14.6296C236.645 14.7639 238.584 16.0723 239.814 18.8488C241.356 22.3465 240.839 25.8693 240.363 29.4508C239.797 33.7371 239.398 38.0484 238.847 42.3429C238.398 45.8071 237.797 49.2544 237.315 52.7102C237.16 53.7756 236.527 54.2703 235.55 54.3291C233.839 54.4297 232.111 54.4801 230.4 54.4717C229.238 54.4633 228.722 53.7924 228.866 52.643C229.78 45.2367 230.73 37.8219 231.577 30.4072C231.773 28.6708 231.765 26.8926 231.602 25.1479C231.382 22.6485 228.798 21.3148 226.494 22.4219C223.935 23.655 223.198 25.9617 222.891 28.5199C221.942 36.4464 220.977 44.3728 220.02 52.2993C219.851 53.7084 219.054 54.4297 217.648 54.4717C216.189 54.5053 214.724 54.5134 213.266 54.4717C211.698 54.4297 211.114 53.7504 211.301 52.1818C211.945 46.9226 212.641 41.6635 213.274 36.396C213.894 31.2879 214.453 26.1796 215.064 21.0716C215.224 19.7463 215.588 18.4378 215.656 17.104C215.748 15.3678 216.792 14.7807 218.283 14.7052C219.894 14.6296 221.545 14.5039 223.121 14.7639C223.833 14.8815 224.391 15.888 225.162 16.6343L225.171 16.6427Z" fill="#333333"/>
<path d="M247.128 42.522C247.7 42.522 248.276 42.5386 248.848 42.522C249.98 42.4888 250.817 42.4305 250.623 44.2848C250.436 46.0893 252.197 47.586 254.265 47.9436C255.714 48.193 257.759 46.8127 258.465 45.1081C259.185 43.3452 258.845 41.599 257.373 40.4764C256.373 39.7197 255.226 39.1626 254.126 38.5723C252.94 37.932 251.683 37.4247 250.529 36.7346C245.711 33.8824 244.477 29.783 245.865 23.8458C247.012 18.9567 250.12 15.988 254.488 15.0649C257.846 14.3583 261.479 14.2251 264.617 16.3539C266.795 17.8339 268.105 20.1873 268.244 22.9145C268.468 27.3966 268.338 27.405 264.183 27.3966C263.989 27.3966 263.803 27.3966 263.609 27.3966C261.932 27.3966 261.018 26.4874 260.876 24.669C260.765 23.2971 259.533 22.1247 258.241 22.0416C256.62 21.9418 255.203 22.0665 254.088 23.6713C253.149 25.0267 252.963 27.4797 254.133 28.6272C254.861 29.3424 255.714 29.9327 256.582 30.4398C258.247 31.4128 259.992 32.2444 261.665 33.2089C269.415 37.6575 267.461 47.1037 263.021 51.3861C258.891 55.3692 249.879 55.3939 246.135 52.2424C244.067 50.5047 242.37 46.0642 243.152 43.5199C243.291 43.0707 244.035 42.6552 244.555 42.5551C245.383 42.3972 246.268 42.5136 247.128 42.5054V42.522Z" fill="#333333"/>
<path d="M199.325 37.3077C200.793 37.3077 202.253 37.2829 203.722 37.3158C204.658 37.3407 205.071 36.8048 205.159 35.9639C205.461 32.9468 205.81 29.9379 205.976 26.9127C206.182 23.0382 202.674 19.6418 198.047 20.4579C192.523 21.4388 190.8 25.4536 189.958 30.3995C189.554 32.7656 188.395 33.4991 186.141 32.749C185.752 32.6171 185.292 31.8504 185.316 31.4054C185.514 27.5391 186.03 23.7306 188.133 20.3919C189.546 18.1498 191.49 16.6248 193.935 15.7509C197.531 14.465 201.111 14.1104 204.809 15.4458C209.873 17.2842 211.549 21.3729 211.23 25.9975C210.818 32.04 209.897 38.0578 209.016 44.0508C208.175 49.7555 202.674 54.4378 197.094 54.4212C195.15 54.4212 193.094 54.7098 191.269 54.1823C185.204 52.4262 183.283 48.1808 183.919 42.023C184.022 41.0255 184.291 40.0362 184.513 39.0471C184.879 37.4562 186.426 36.6728 188.244 37.3572C189.61 37.8765 189.078 39.0471 188.808 40.0692C187.689 44.1911 189.546 48.1231 193.221 49.4339C197.817 51.066 203.745 47.134 204.238 42.089C204.269 41.7756 204.031 41.3304 203.785 41.1162C202.992 40.4321 200.578 40.5803 199.825 41.3304C199.118 42.0312 198.539 42.905 197.753 43.4655C197.181 43.8696 196.182 44.224 195.681 43.9602C195.006 43.614 194.634 42.6495 194.142 41.9405C194.094 41.8745 194.118 41.7426 194.118 41.6438C194.046 36.6729 193.888 37.4562 197.872 37.4148C198.365 37.4148 198.848 37.4148 199.341 37.4148C199.341 37.3818 199.341 37.3406 199.341 37.3077H199.325Z" fill="#333333"/>
<path d="M139.752 18.6523C140.103 18.2436 140.504 17.8671 140.804 17.4266C142.699 14.6705 145.555 14.366 148.578 14.7185C149.53 14.8307 150.241 15.5198 149.923 16.6334C149.372 18.5801 148.771 20.511 148.219 22.4577C147.97 23.355 147.426 23.6195 146.44 23.6675C144.888 23.7477 143.185 23.7557 141.84 24.3887C138.825 25.7986 138.132 28.675 137.773 31.583C137.138 36.7667 136.554 41.9583 135.927 47.1419C135.76 48.5519 135.568 49.962 135.276 51.348C135.192 51.7485 134.717 52.3655 134.399 52.3735C132.261 52.4216 130.107 52.4136 127.969 52.2693C126.892 52.1973 126.666 51.3881 126.791 50.4026C127.802 42.5833 128.77 34.7637 129.781 26.9444C130.24 23.4273 130.733 19.91 131.318 16.4089C131.401 15.9122 132.036 15.1512 132.461 15.119C134.642 14.9508 136.838 14.9429 139.017 15.0229C139.259 15.0308 139.627 15.9282 139.652 16.425C139.685 17.114 139.451 17.819 139.326 18.516C139.459 18.5641 139.601 18.6042 139.735 18.6523H139.752Z" fill="#333333"/>
<path d="M38.5596 14.6C38.744 14.6 38.9212 14.6 39.1056 14.6C41.9998 14.6645 42.5091 15.188 42.1549 18.4023C41.6379 23.0667 40.9367 27.7069 40.3903 32.3712C39.9621 36.0045 39.689 39.6536 39.2533 43.2868C39.1426 44.2375 38.8325 45.2203 38.4044 46.0582C37.6735 47.4518 35.7615 48.4508 34.7647 48.1446C32.7418 47.5324 31.5237 46.0742 31.7083 43.891C32.1808 38.3325 32.8084 32.7902 33.3915 27.2397C33.7312 24.0012 34.152 20.7708 34.4546 17.5322C34.6836 15.0752 34.9861 14.6806 37.2011 14.6321C37.6513 14.6241 38.1091 14.6321 38.5596 14.6321C38.5596 14.6241 38.5596 14.6162 38.5596 14.6Z" fill="#333333"/>
<path d="M35.9155 53.0675C36.6345 52.9247 37.082 52.7903 37.5372 52.7651C43.7608 52.3538 47.3637 48.86 48.1467 42.3683C49.0494 34.8349 49.9122 27.3018 50.7991 19.76C50.8549 19.2983 50.9508 18.8447 51.0069 18.3829C51.55 13.8561 51.9016 14.6875 55.6484 14.6203C56.639 14.6035 57.1264 15.2335 57.0305 16.1993C56.4951 21.3222 55.896 26.445 55.3608 31.568C54.9774 35.2633 54.7376 38.9753 54.2743 42.662C54.0345 44.5768 53.7231 46.584 52.9481 48.3057C50.6234 53.4957 45.9497 54.1005 41.2441 54.4701C39.4547 54.6127 37.7451 54.2601 35.9236 53.0759L35.9155 53.0675Z" fill="#333333"/>
<path d="M59.2513 14.6C61.169 14.6 61.3788 14.7346 61.2288 16.796C60.8918 21.4321 60.4723 26.0597 60.0229 30.6789C59.5209 35.7609 58.9442 40.8429 58.4048 45.9249C58.21 47.759 56.6893 49.8036 55.0414 50.3C55.0114 50.0055 54.8616 49.6437 54.9664 49.4669C56.5171 46.7913 56.225 43.6782 56.5471 40.7418C57.4835 32.1597 58.27 23.5607 59.1239 14.9702C59.1313 14.8692 59.1913 14.785 59.2588 14.6H59.2513Z" fill="#333333"/>
<path d="M62.9396 14.6084C63.0914 14.9507 63.3948 15.3096 63.3796 15.6435C63.2583 17.8391 63.0914 20.0262 62.8943 22.2131C62.6287 25.2268 62.3405 28.2403 62.0219 31.2456C61.4986 36.1875 60.9751 41.1211 60.376 46.0462C60.2849 46.8142 59.792 47.5322 59.1548 48.2C60.3229 37.0389 61.4834 25.8696 62.6516 14.7086C62.7502 14.6751 62.8486 14.6418 62.9396 14.6V14.6084Z" fill="#333333"/>
<path d="M200.678 28.381C200.678 28.8802 200.747 29.3792 200.661 29.8635C200.497 30.7295 200.023 31.3897 198.827 31.3532C198.775 31.3532 198.723 31.3532 198.671 31.3532C197.242 31.155 195.476 31.9549 194.478 30.5166C193.892 29.6801 195.752 26.0402 196.931 25.3798C198.293 24.6166 200.531 25.5118 200.678 26.8915C200.73 27.3832 200.678 27.8821 200.678 28.3739V28.381Z" fill="#333333"/>
<path d="M215.491 16.5177C214.614 16.9241 214.198 16.6315 213.653 15.8345C212.645 14.3467 211.511 12.875 210.166 11.6553C208.561 10.1918 206.42 9.89091 204.216 10.1024C203.228 10.1918 202.681 9.86658 202.846 8.85832C208.449 6.71195 215.647 11.0701 215.491 16.5257V16.5177Z" fill="#333333"/>
<path d="M205.893 12.5321C208.734 12.6867 211.049 13.988 211.265 15.7659C211.303 16.0622 210.927 16.3844 210.74 16.7C210.337 16.5517 209.718 16.4617 209.577 16.2361C208.555 14.5807 206.69 13.9043 204.177 13.8077C203.708 13.7884 203.267 13.4017 202.817 13.1827C203.295 12.9637 203.735 12.6866 204.252 12.5515C204.655 12.4483 205.152 12.5321 205.893 12.5321Z" fill="#333333"/>
</g>
<defs>
<clipPath id="clip0_57_229">
<rect width="300" height="67" fill="white"/>
</clipPath>
</defs>
</svg>
