<svg width="340" height="120" viewBox="0 0 340 120" fill="none" xmlns="http://www.w3.org/2000/svg">
<path d="M340 51.1429C339.66 52.8421 339.258 54.5319 338.992 56.2407C338.662 58.4367 338.487 60.6514 338.156 62.8472C337.91 64.5274 336.993 65.2913 335.25 65.2625C329.941 65.1766 324.623 65.234 319.03 65.234C318.57 68.1934 317.838 71.1243 319.516 73.9599C320.194 75.1054 322.148 75.6591 323.366 75.2391C325.291 74.5803 326.687 73.2725 327.602 71.4298C328.043 70.5421 328.629 70.1792 329.601 70.2173C331.747 70.3129 333.894 70.3033 336.04 70.351C336.361 70.351 336.681 70.4657 337.002 70.5325C336.205 78.0077 331.253 83.8407 323.67 83.9554C320.258 84.0032 316.847 84.3087 313.667 82.3133C310.906 80.5853 309.383 78.0459 309.036 74.9621C308.715 72.1364 308.926 69.2151 309.192 66.3605C309.613 61.8831 310.375 57.4438 310.806 52.9568C311.474 45.8825 315.106 41.2045 321.377 38.875C323.247 38.1781 325.485 38.4454 327.557 38.4742C329.216 38.5028 330.933 38.6077 332.508 39.0757C337.074 40.4122 338.827 44.1641 339.643 48.6128C339.715 48.9949 339.871 49.3671 339.99 49.7393V51.1525L340 51.1429ZM324.659 57.1573C325.842 57.1477 327.035 57.2146 328.208 57.1095C328.603 57.0809 329.216 56.6895 329.29 56.365C329.666 54.6752 330.253 52.909 330.097 51.2384C329.776 47.7442 326.237 45.5578 323.35 47.7536C322.725 48.2309 322.174 48.8324 321.662 49.4338C319.947 51.4577 320.469 54.0737 320.048 56.4317C320.019 56.6036 320.725 57.0905 321.12 57.1191C322.294 57.2146 323.486 57.1573 324.669 57.1573H324.659Z" fill="#2A4C6B"/>
<path d="M83.1865 80.124C82.735 83.8919 82.3555 87.2308 81.9307 90.5606C81.6597 92.7242 81.3886 94.888 80.9641 97.0147C80.8645 97.5182 80.196 98.2363 79.7533 98.2644C77.5306 98.4136 75.3079 98.4136 73.0763 98.3856C71.7932 98.3668 71.7573 97.3783 71.8746 96.3991C72.5613 90.6537 73.293 84.9086 73.9709 79.1632C74.7569 72.448 75.5069 65.7328 76.2838 59.0176C76.9614 53.1511 77.6752 47.2941 78.3528 41.4276C78.6329 39.0213 78.9672 38.6762 81.2531 38.6668C82.536 38.6668 83.8191 38.7321 85.0929 38.6481C86.5657 38.555 87.885 38.5922 88.0567 40.5321C88.2916 40.5043 88.4271 40.5321 88.4994 40.4762C91.5352 38.1072 95.0679 38.3589 98.5735 38.4616C100.661 38.5176 103.913 41.4835 104.591 44.0296C105.531 47.5644 105.576 51.0712 104.862 54.7274C104.13 58.4767 104.13 62.3752 103.615 66.1804C103.236 69.0064 102.739 71.8512 101.944 74.5838C100.859 78.3052 98.3927 81.1872 94.86 82.3156C91.6164 83.3604 88.0656 83.584 84.9395 81.3364C84.4515 80.9913 83.9638 80.6556 83.1865 80.1146V80.124ZM96.1068 52.4517C96.1068 52.4517 96.0256 52.4517 95.9804 52.4424C95.9804 52.0413 95.9804 51.6403 95.9804 51.2392C95.9081 47.5084 92.9175 45.6619 89.6559 47.2939C87.3068 48.4692 86.5928 50.717 86.2497 53.0486C85.7796 56.2756 85.59 59.5492 85.2737 62.795C85.0209 65.3971 84.5691 67.9992 84.5509 70.6015C84.5238 73.5112 87.7042 75.4327 90.2791 74.2668C93.0078 73.0356 93.8211 70.48 94.2818 67.7848C94.589 65.9846 94.6252 64.138 94.8421 62.3193C95.2395 59.027 95.6823 55.744 96.0979 52.4611L96.1068 52.4517Z" fill="#2A4C6B"/>
<path d="M185.652 83.8999C181.189 84.4519 177.46 82.71 174.784 78.9218C172.507 75.695 171.872 71.9066 172.815 67.9661C173.532 65.0059 173.605 65.0249 176.526 65.0249C177.696 65.0249 178.875 65.0249 180.046 65.0249C182.195 65.0249 182.613 65.5958 182.087 67.7757C181.352 70.7834 182.976 74.6479 185.915 75.2666C186.586 75.4094 187.348 75.4569 187.992 75.2573C193.653 73.4868 194.995 65.4533 191.14 61.7028C188.192 58.8379 185.162 56.0585 182.15 53.2697C178.485 49.8715 176.399 45.6261 175.746 40.5434C174.639 31.9483 182.032 22.2775 190.233 21.7254C191.893 21.6112 193.58 21.5255 195.222 21.6969C200.91 22.287 205.418 27.1605 205.854 33.1476C205.99 35.0037 205.854 36.8882 205.881 38.7633C205.899 40.4388 205.001 41.3239 203.532 41.3429C201.527 41.3714 199.522 41.2286 197.526 41.0004C197.154 40.9622 196.619 40.2103 196.574 39.7344C196.438 38.4588 196.547 37.1549 196.51 35.8699C196.429 32.7953 195.467 31.3296 192.809 30.3206C191.494 29.8161 188.582 30.7776 187.43 32.3479C184.999 35.651 184.237 39.5345 186.967 43.0752C188.219 44.7029 189.734 46.1213 191.194 47.549C193.771 50.0618 196.547 52.3557 198.978 55.002C205.709 62.3121 203.132 75.0859 195.93 80.8348C192.864 83.2908 189.516 84.2616 185.661 83.8903L185.652 83.8999Z" fill="#2A4C6B"/>
<path d="M25.585 40.5581C25.585 38.7679 25.6638 37.0253 25.5654 35.2922C25.467 33.6067 24.9062 32.0642 23.2633 31.1594C20.4495 29.6169 16.593 30.5311 14.9795 33.3497C12.9824 36.8539 12.2839 40.7009 15.8748 43.9003C18.1474 45.9192 20.4397 47.9189 22.6828 49.9757C24.6603 51.785 26.6771 53.556 28.4872 55.5081C34.6853 62.1929 32.4128 74.2291 27.8479 78.5712C24.434 81.8184 20.6365 84.2467 15.5403 83.9801C12.7167 83.837 9.90303 84.1514 7.1877 82.8564C2.78019 80.7518 0.546943 77.3239 0.0943863 72.7531C-0.102377 70.782 0.0648717 68.7727 0.0943863 66.7826C0.114063 65.2781 1.00934 64.4592 2.47522 64.4496C4.59043 64.4306 6.70564 64.6305 8.82085 64.6687C9.98173 64.6973 10.2277 65.3541 10.2277 66.2779C10.2277 67.9157 10.1785 69.563 10.2277 71.201C10.3261 73.9435 13.8285 76.2384 16.4848 75.3528C20.3807 74.0577 21.6301 72.0199 21.9449 68.0395C22.1909 64.9543 21.0792 62.7833 18.8164 60.8503C15.4616 57.9744 12.215 54.9749 8.86018 52.0992C5.58407 49.29 3.11471 45.7668 3.11471 41.6628C3.11471 33.9211 5.52505 27.1601 13.4841 23.3226C18.1474 21.0754 23.0862 21.2467 27.779 22.5799C32.9343 24.0463 35.8757 28.6742 35.9153 33.9019C35.9251 35.5399 35.7283 37.1777 35.7283 38.8154C35.7283 40.0248 35.1479 40.5391 33.977 40.5485C31.3207 40.5485 28.6644 40.5485 25.585 40.5485V40.5581Z" fill="#2A4C6B"/>
<path d="M129.716 65.0652C127.065 65.0652 124.405 65.1129 121.754 65.0462C120.657 65.0177 120.077 65.4648 120.011 66.5021C119.908 68.2529 119.674 70.0416 119.927 71.7545C120.32 74.3424 123.149 76.5309 125.726 74.7516C127.019 73.8571 128.199 72.6679 129.136 71.3832C129.763 70.5175 130.344 70.0987 131.356 70.1273C133.258 70.1748 135.178 70.0416 137.052 70.2794C137.651 70.3557 138.701 71.526 138.588 71.9256C137.136 77.3301 134.485 81.8976 128.649 83.1439C124.096 84.1144 119.411 84.7901 115.055 82.1162C111.936 80.2039 109.893 77.6157 110.165 73.6953C110.521 68.5097 110.952 63.3336 111.373 58.1477C111.514 56.454 111.776 54.7795 111.879 53.0858C112.123 49.1179 113.463 45.4356 116.273 42.857C118.784 40.5638 121.594 38.1374 125.501 38.423C127.047 38.537 128.62 38.5087 130.175 38.423C136.396 38.0803 141.286 43.1045 141.268 49.2607C141.258 51.7536 140.799 54.2465 140.546 56.7396C140.34 58.7757 140.097 60.8119 139.937 62.8483C139.825 64.3135 139.207 65.0937 137.67 65.0652C135.019 65.0177 132.358 65.0558 129.707 65.0462L129.716 65.0652ZM130.785 56.8442C131.075 55.6073 131.206 54.7317 131.496 53.9136C132.19 51.9725 131.75 50.2313 130.719 48.5851C129.791 47.1007 127.552 46.625 125.922 47.0532C122.962 47.8334 120.798 52.1913 121.463 56.8442H130.785Z" fill="#2A4C6B"/>
<path d="M255.194 40.7345C255.194 40.7345 255.386 40.7153 255.522 40.6099C258.278 38.5298 261.426 38.2901 264.75 38.4338C268.198 38.5872 270.396 40.0826 271.789 43.2557C273.537 47.2531 272.951 51.2791 272.412 55.3723C271.77 60.2709 271.318 65.1981 270.693 70.1061C270.185 74.0652 269.503 78.005 268.957 81.9545C268.782 83.172 268.064 83.7374 266.957 83.8046C265.018 83.9196 263.059 83.9772 261.12 83.9676C259.803 83.958 259.219 83.1912 259.382 81.8777C260.418 73.4133 261.494 64.9392 262.454 56.4653C262.676 54.4809 262.667 52.4486 262.482 50.4547C262.233 47.5982 259.305 46.074 256.693 47.3393C253.793 48.7485 252.958 51.3847 252.61 54.3084C251.535 63.3672 250.441 72.426 249.356 81.4848C249.165 83.0952 248.262 83.9196 246.668 83.9676C245.015 84.006 243.354 84.0153 241.702 83.9676C239.925 83.9196 239.263 83.1432 239.475 81.3506C240.205 75.34 240.993 69.3297 241.711 63.3096C242.413 57.4718 243.047 51.6338 243.739 45.7961C243.921 44.2814 244.333 42.786 244.41 41.2617C244.515 39.2774 245.698 38.6064 247.388 38.5202C249.213 38.4338 251.085 38.2901 252.871 38.5872C253.678 38.7216 254.31 39.8719 255.184 40.7249L255.194 40.7345Z" fill="#2A4C6B"/>
<path d="M280.079 70.3109C280.727 70.3109 281.379 70.3299 282.028 70.3109C283.311 70.273 284.259 70.2063 284.039 72.3255C283.828 74.3878 285.823 76.0983 288.167 76.507C289.809 76.7921 292.127 75.2146 292.927 73.2665C293.743 71.2517 293.358 69.2561 291.689 67.9731C290.556 67.1083 289.256 66.4716 288.009 65.797C286.665 65.0652 285.241 64.4854 283.933 63.6967C278.472 60.4371 277.074 55.752 278.647 48.9667C279.947 43.3791 283.469 39.9864 288.42 38.9314C292.225 38.1238 296.343 37.9716 299.899 40.4045C302.368 42.096 303.852 44.7855 304.01 47.9023C304.264 53.0247 304.116 53.0343 299.408 53.0247C299.188 53.0247 298.977 53.0247 298.757 53.0247C296.856 53.0247 295.821 51.9857 295.659 49.9075C295.534 48.3396 294.138 46.9997 292.673 46.9047C290.836 46.7907 289.23 46.9332 287.966 48.7673C286.902 50.3163 286.692 53.1197 288.018 54.4311C288.842 55.2485 289.809 55.9231 290.793 56.5027C292.68 57.6147 294.658 58.5651 296.554 59.6674C305.337 64.7515 303.122 75.5472 298.091 80.4413C293.41 84.9934 283.196 85.0217 278.953 81.42C276.609 79.434 274.686 74.3592 275.572 71.4514C275.73 70.938 276.573 70.4631 277.162 70.3488C278.101 70.1683 279.104 70.3013 280.079 70.2919V70.3109Z" fill="#2A4C6B"/>
<path d="M225.901 64.3517C227.565 64.3517 229.22 64.3234 230.885 64.361C231.946 64.3894 232.414 63.7769 232.513 62.8159C232.855 59.3678 233.251 55.9291 233.439 52.4717C233.673 48.0437 229.697 44.1621 224.453 45.0948C218.192 46.2158 216.24 50.8041 215.286 56.4566C214.828 59.1607 213.514 59.999 210.959 59.1418C210.519 58.991 209.997 58.1148 210.024 57.6062C210.249 53.1876 210.834 48.835 213.217 45.0194C214.818 42.4569 217.022 40.7141 219.793 39.7154C223.868 38.2457 227.925 37.8405 232.117 39.3667C237.856 41.4677 239.755 46.1405 239.394 51.4257C238.927 58.3315 237.883 65.209 236.885 72.0581C235.931 78.5777 229.697 83.929 223.373 83.91C221.17 83.91 218.84 84.2398 216.771 83.6369C209.898 81.63 207.721 76.7781 208.441 69.7406C208.558 68.6006 208.863 67.47 209.115 66.3396C209.529 64.5214 211.283 63.6261 213.343 64.4083C214.891 65.0018 214.288 66.3396 213.982 67.5077C212.714 72.2184 214.818 76.7122 218.983 78.2102C224.192 80.0755 230.911 75.5817 231.469 69.816C231.505 69.4579 231.235 68.9491 230.956 68.7043C230.057 67.9224 227.322 68.0918 226.468 68.9491C225.667 69.75 225.011 70.7486 224.12 71.3892C223.472 71.851 222.339 72.2561 221.772 71.9546C221.007 71.5589 220.585 70.4566 220.027 69.6463C219.973 69.5709 220 69.4202 220 69.3072C219.919 63.6262 219.739 64.5214 224.255 64.4741C224.813 64.4741 225.361 64.4741 225.919 64.4741C225.919 64.4364 225.919 64.3893 225.919 64.3517H225.901Z" fill="#2A4C6B"/>
<path d="M158.386 43.0312C158.783 42.5642 159.238 42.1339 159.578 41.6304C161.726 38.4806 164.963 38.1326 168.389 38.5355C169.468 38.6637 170.273 39.4512 169.913 40.7239C169.288 42.9487 168.607 45.1555 167.982 47.3803C167.699 48.4058 167.083 48.708 165.966 48.7629C164.206 48.8546 162.276 48.8637 160.752 49.5871C157.335 51.1984 156.55 54.4857 156.143 57.8092C155.423 63.7334 154.761 69.6667 154.051 75.5908C153.862 77.2022 153.644 78.8138 153.313 80.3978C153.218 80.8555 152.679 81.5606 152.319 81.5697C149.896 81.6247 147.455 81.6156 145.032 81.4507C143.811 81.3684 143.555 80.4436 143.697 79.3173C144.842 70.3809 145.94 61.4443 147.085 52.5079C147.606 48.4884 148.164 44.4686 148.827 40.4673C148.921 39.8997 149.641 39.03 150.123 38.9932C152.594 38.801 155.083 38.7919 157.553 38.8833C157.827 38.8924 158.244 39.918 158.272 40.4858C158.31 41.2732 158.045 42.0789 157.903 42.8755C158.054 42.9304 158.215 42.9763 158.367 43.0312H158.386Z" fill="#2A4C6B"/>
<path d="M43.7011 38.4C43.9101 38.4 44.111 38.4 44.32 38.4C47.6001 38.4737 48.1773 39.072 47.7758 42.7455C47.1899 48.0763 46.3952 53.3794 45.776 58.71C45.2907 62.8623 44.9811 67.0327 44.4874 71.185C44.3619 72.2715 44.0104 73.3947 43.5253 74.3523C42.6969 75.9449 40.53 77.0866 39.4003 76.7367C37.1077 76.0371 35.7271 74.3705 35.9364 71.8755C36.4718 65.5229 37.1831 59.1888 37.844 52.8454C38.229 49.1443 38.7059 45.4524 39.0488 41.7511C39.3084 38.9431 39.6512 38.4922 42.1615 38.4367C42.6717 38.4276 43.1906 38.4367 43.7011 38.4367C43.7011 38.4276 43.7011 38.4185 43.7011 38.4Z" fill="#2A4C6B"/>
<path d="M40.7042 82.3629C41.519 82.1997 42.0262 82.0461 42.5421 82.0173C49.5955 81.5472 53.6788 77.5543 54.5662 70.1352C55.5893 61.5256 56.5671 52.9164 57.5723 44.2972C57.6355 43.7695 57.7442 43.2511 57.8077 42.7233C58.4233 37.5499 58.8217 38.5 63.0681 38.4232C64.1908 38.404 64.7432 39.124 64.6345 40.2278C64.0277 46.0826 63.3487 51.9372 62.7422 57.792C62.3076 62.0152 62.0359 66.2575 61.5108 70.4709C61.239 72.6592 60.8861 74.9532 60.0078 76.9209C57.3731 82.8523 52.0763 83.5435 46.7433 83.9659C44.7153 84.1288 42.7777 83.7259 40.7133 82.3725L40.7042 82.3629Z" fill="#2A4C6B"/>
<path d="M67.1514 38.4C69.3248 38.4 69.5625 38.5539 69.3925 40.9097C69.0106 46.2082 68.5351 51.4968 68.0258 56.7759C67.4569 62.5839 66.8033 68.3919 66.192 74.1999C65.9712 76.296 64.2478 78.6327 62.3801 79.2C62.3461 78.8635 62.1764 78.45 62.2951 78.2479C64.0526 75.1901 63.7215 71.6323 64.0866 68.2764C65.1478 58.4683 66.0392 48.6408 67.007 38.8231C67.0154 38.7077 67.0834 38.6115 67.1598 38.4H67.1514Z" fill="#2A4C6B"/>
<path d="M71.3317 38.4096C71.5037 38.8008 71.8475 39.211 71.8303 39.5926C71.6928 42.1018 71.5037 44.6014 71.2803 47.1007C70.9793 50.545 70.6527 53.989 70.2916 57.4236C69.6985 63.0715 69.1052 68.7099 68.4262 74.3386C68.323 75.2163 67.7644 76.0368 67.0422 76.8C68.3661 64.0445 69.6813 51.2796 71.0052 38.5241C71.117 38.4859 71.2285 38.4478 71.3317 38.4V38.4096Z" fill="#2A4C6B"/>
<path d="M227.435 54.1497C227.435 54.7202 227.513 55.2905 227.416 55.8439C227.23 56.8337 226.693 57.5882 225.337 57.5465C225.278 57.5465 225.22 57.5465 225.161 57.5465C223.541 57.3199 221.54 58.2341 220.408 56.5903C219.744 55.6344 221.852 51.4745 223.189 50.7197C224.732 49.8475 227.269 50.8706 227.435 52.4474C227.494 53.0093 227.435 53.5795 227.435 54.1416V54.1497Z" fill="#2A4C6B"/>
<path d="M244.223 40.5917C243.229 41.0561 242.758 40.7217 242.14 39.8109C240.998 38.1105 239.712 36.4286 238.188 35.0347C236.369 33.3621 233.942 33.0182 231.445 33.2599C230.325 33.3621 229.705 32.9904 229.892 31.8381C236.242 29.3851 244.4 34.3658 244.223 40.6008V40.5917Z" fill="#2A4C6B"/>
<path d="M233.345 36.0367C236.565 36.2133 239.189 37.7006 239.434 39.7325C239.477 40.0711 239.051 40.4393 238.838 40.8C238.382 40.6305 237.68 40.5276 237.521 40.2698C236.362 38.3779 234.248 37.6049 231.4 37.4945C230.869 37.4724 230.369 37.0305 229.859 36.7802C230.401 36.5299 230.9 36.2133 231.485 36.0588C231.942 35.9409 232.505 36.0367 233.345 36.0367Z" fill="#2A4C6B"/>
</svg>
