<svg width="170" height="91" viewBox="0 0 170 91" fill="none" xmlns="http://www.w3.org/2000/svg">
<path fill-rule="evenodd" clip-rule="evenodd" d="M52.5762 0.211192C52.3875 0.400204 52.3655 1.68377 52.3672 12.3437C52.3687 21.6901 52.4059 24.3377 52.5391 24.6012C52.7082 24.9353 52.7185 24.937 54.3164 24.8955C55.2005 24.8725 56.8906 24.9199 58.0724 25.0009C59.2541 25.0818 61.3993 25.1789 62.8395 25.2168C64.6504 25.2642 65.6031 25.3443 65.9281 25.4764C66.1941 25.5844 67.3012 25.7241 68.4796 25.7983C69.6243 25.8705 70.9236 25.9918 71.3667 26.0677C72.1688 26.2054 72.9979 26.3136 76.0667 26.6813C79.5339 27.0967 79.9014 27.1468 80.3929 27.2712C80.6723 27.3417 81.4136 27.4408 82.0401 27.4911C82.6665 27.5415 83.301 27.6485 83.4501 27.7289C83.5991 27.8094 84.1441 27.9197 84.6611 27.974C85.1781 28.0283 86.0845 28.1676 86.6753 28.2836C87.2662 28.3996 88.0216 28.496 88.3539 28.4979C88.6863 28.4997 89.1697 28.5593 89.4282 28.6303C89.6867 28.7014 90.4421 28.7901 91.1068 28.8278C91.7715 28.8653 92.7384 28.9561 93.2554 29.0295C93.7724 29.1031 94.6667 29.1651 95.2428 29.1675C95.8588 29.1702 96.4396 29.2481 96.6528 29.357C96.8522 29.4589 97.5895 29.5837 98.2911 29.6344C100.34 29.7821 100.113 31.514 100.051 16.2434C100.021 9.04705 99.961 2.58608 99.9164 1.88555C99.841 0.699857 99.8122 0.600105 99.4997 0.442281C99.2409 0.311612 97.3263 0.272363 91.1404 0.270884C83.1936 0.268867 83.1141 0.271555 82.8377 0.548217C82.5596 0.826627 82.5589 0.853648 82.6548 7.97563C82.7079 11.9071 82.7057 16.2647 82.6503 17.6595C82.5618 19.8837 82.5181 20.2265 82.2959 20.449C82.0554 20.6897 81.7503 20.7025 76.3017 20.7008C73.1443 20.6998 70.425 20.6624 70.2589 20.618L69.9567 20.5369V10.4797C69.9567 1.516 69.9337 0.399532 69.7457 0.211192C69.5584 0.023658 68.5944 0 61.1609 0C53.7275 0 52.7635 0.023658 52.5762 0.211192ZM110.912 0.135778C105.999 0.188073 101.844 0.27384 101.679 0.326269C101.514 0.378563 101.318 0.536659 101.243 0.677276C101.106 0.932832 100.851 16.7236 100.846 25.3098L100.843 29.4466L101.212 29.5911C101.415 29.6707 101.762 29.8208 101.984 29.925C102.239 30.0449 102.879 30.1186 103.73 30.1262C104.492 30.133 105.252 30.213 105.487 30.3112C105.769 30.4287 105.977 30.4423 106.135 30.3534C106.263 30.2817 106.681 30.2575 107.063 30.2999C113.905 31.0595 127.28 31.1908 134.616 30.5704C135.945 30.458 137.425 30.3408 137.906 30.31C140.684 30.1318 141.213 30.0713 141.397 29.9113C141.518 29.8058 142.186 29.6971 143.076 29.6383C143.957 29.5799 144.66 29.4662 144.818 29.3562C144.963 29.2549 145.184 29.1719 145.309 29.1719C145.562 29.1719 147.238 27.582 148.072 26.5505C148.644 25.8438 149.445 24.3686 149.791 23.3896C149.903 23.0705 150.066 22.7238 150.153 22.619C150.24 22.5143 150.354 22.1461 150.407 21.8008C150.459 21.4556 150.592 20.8602 150.702 20.4776C150.858 19.9326 150.888 19.2341 150.84 17.2512C150.758 13.8663 150.748 13.7441 150.559 13.5542C150.468 13.4636 150.394 13.2177 150.394 13.0077C150.394 12.7977 150.273 12.3888 150.126 12.0989C149.978 11.8091 149.857 11.4417 149.857 11.2824C149.857 11.1231 149.743 10.7729 149.603 10.504C149.463 10.2352 149.176 9.6676 148.965 9.24252C148.754 8.81758 148.543 8.4698 148.496 8.46953C148.449 8.4694 148.152 8.04056 147.836 7.51667C147.52 6.99265 147.106 6.46339 146.918 6.34039C146.512 6.07609 145.828 5.38148 145.828 5.23414C145.828 5.11194 143.819 3.67728 143.143 3.317C142.884 3.1792 142.431 2.92916 142.136 2.76139C141.84 2.59348 141.284 2.38215 140.9 2.29167C140.516 2.20134 140.131 2.0419 140.044 1.93744C139.958 1.83299 139.787 1.74763 139.665 1.74763C139.543 1.74763 139.323 1.66603 139.178 1.56614C139.032 1.4664 138.339 1.27603 137.637 1.14308C136.935 1.01013 136.21 0.844505 136.026 0.775138C135.841 0.705636 134.36 0.597554 132.736 0.534908C131.111 0.472128 129.237 0.360011 128.573 0.28567C126.741 0.0807941 120.807 0.0303831 110.912 0.135778ZM152.711 0.138601L152.408 0.260258V13.9602C152.408 29.1763 152.35 28.2134 153.259 27.8362C153.493 27.7391 154.077 27.5801 154.557 27.4829C155.852 27.2206 159.237 26.2809 159.861 26.0106C160.083 25.9146 160.687 25.6824 161.204 25.4949C163.56 24.6399 164.128 24.4056 165.703 23.6384C166.626 23.1886 167.623 22.7064 167.919 22.567C168.214 22.4274 168.758 22.0846 169.127 21.8051L169.799 21.297L169.882 17.1348C169.927 14.8457 169.972 10.1165 169.982 6.62551C169.999 0.478174 169.992 0.27397 169.74 0.139134C169.412 -0.0367038 153.148 -0.0372371 152.711 0.138601ZM18.6988 0.281099C18.0756 0.430857 17.3165 1.22684 17.3165 1.73069C17.3165 1.88488 17.2321 2.23911 17.1291 2.51792C16.7106 3.65065 16.1079 5.77281 16.1079 6.11414C16.1079 6.31458 16.0219 6.6391 15.9168 6.83537C15.388 7.82318 14.8153 9.54594 14.4352 11.2924C14.3467 11.699 14.2034 12.1639 14.1168 12.3253C14.0302 12.4869 13.9593 12.7524 13.9593 12.9156C13.9593 13.0787 13.8434 13.4608 13.7016 13.7646C13.5599 14.0685 13.2826 14.8615 13.0854 15.527C12.8882 16.1924 12.6422 16.9344 12.5387 17.1757C12.4352 17.417 12.3105 17.8707 12.2617 18.1839C12.2128 18.4971 12.061 18.9642 11.9246 19.2219C11.7882 19.4796 11.6764 19.8304 11.6764 20.0016C11.6764 20.1727 11.5963 20.476 11.4982 20.6758C11.4002 20.8754 11.1243 21.7344 10.885 22.5847C10.6455 23.435 10.3321 24.5239 10.1883 25.0045C10.0445 25.4851 9.92777 25.9767 9.92884 26.0972C9.92978 26.2175 9.8476 26.385 9.74608 26.4693C9.64443 26.5537 9.52249 26.8658 9.47509 27.1628C9.42769 27.4599 9.26909 27.9268 9.12259 28.2002C8.97622 28.4737 8.85643 28.8322 8.85643 28.9969C8.85643 29.1616 8.73558 29.6033 8.58786 29.9785C8.44015 30.3537 8.31888 30.8248 8.31848 31.0253C8.31794 31.2259 8.22005 31.5715 8.1008 31.7933C7.98169 32.0152 7.83626 32.3781 7.77771 32.5999C7.7193 32.8218 7.59427 33.1949 7.50001 33.4294C7.18309 34.217 7.8564 34.5805 8.45358 33.9443C8.62707 33.7594 8.84099 33.6082 8.92881 33.6082C9.01677 33.6082 9.23767 33.491 9.41963 33.3477C9.60159 33.2044 9.92696 33.043 10.1428 32.9893C10.7195 32.8453 12.0128 32.2121 12.5182 31.8263C12.7601 31.6416 13.3797 31.3281 13.8951 31.1297C15.1444 30.6488 16.0602 30.2724 16.7122 29.9721C17.0076 29.8359 17.8234 29.5632 18.525 29.3662C19.2267 29.1691 19.9216 28.9571 20.0693 28.895C20.2171 28.833 20.7307 28.6875 21.2108 28.5718C22.2835 28.3133 22.5985 27.9725 22.816 26.8355C22.9026 26.383 23.0552 25.8313 23.155 25.6094C23.2547 25.3876 23.3692 24.9718 23.4093 24.6853C23.4493 24.3989 23.5754 24.0614 23.6893 23.9354C23.8033 23.8094 23.8965 23.5166 23.8965 23.285C23.8965 23.0532 24.0114 22.5438 24.1519 22.1529C24.2924 21.7618 24.5068 20.9883 24.6284 20.4338C24.9896 18.7866 25.1264 18.4173 25.3753 18.4173C25.6048 18.4173 25.6299 18.4911 26.2415 20.9715C26.7232 22.9251 26.9374 23.6423 27.0961 23.8337C27.1879 23.9445 27.3012 24.3589 27.3481 24.755C27.3948 25.151 27.5793 25.7666 27.758 26.123L28.083 26.7709L28.9776 26.6766C29.4697 26.6247 30.0233 26.5245 30.208 26.4542C30.3926 26.3839 31.1177 26.292 31.8194 26.2497C32.521 26.2077 33.2185 26.093 33.3693 25.995C33.533 25.8887 34.2643 25.7841 35.1822 25.7358C36.0536 25.6898 36.8373 25.5808 36.9894 25.4843C37.162 25.3747 38.0967 25.2793 39.6054 25.217C42.1529 25.1119 43.1936 24.9679 43.4804 24.6808C43.6254 24.5355 43.635 24.3719 43.525 23.9102C43.3378 23.1245 42.8624 21.7765 42.7058 21.5876C42.6364 21.5039 42.5392 21.1041 42.4899 20.6993C42.4406 20.2945 42.2896 19.7213 42.1542 19.4255C42.019 19.1298 41.8663 18.6458 41.8149 18.3501C41.7636 18.0543 41.6751 17.7518 41.6181 17.6779C41.4697 17.4851 40.8668 15.6191 40.7602 15.0229C40.7106 14.7457 40.6151 14.5187 40.548 14.5187C40.4809 14.5187 40.3871 14.292 40.3397 14.0146C40.13 12.7889 39.0034 9.32359 38.7233 9.04329C38.6191 8.93884 38.5337 8.70559 38.5337 8.52505C38.5337 8.18467 37.9259 5.78289 37.7202 5.31009C37.4766 4.75045 37.0274 3.40249 36.869 2.75587C36.7785 2.38618 36.6399 1.93247 36.5612 1.74763C36.4825 1.56278 36.364 1.2302 36.2978 1.00852C36.0608 0.215094 36.1576 0.223963 27.3208 0.182827C22.2293 0.159166 19.0557 0.195331 18.6988 0.281099ZM121.053 12.7667C120.905 12.8327 120.418 12.8909 119.972 12.8961C119.525 12.9012 119.087 12.9781 118.998 13.0669C118.879 13.1858 118.837 14.3986 118.837 17.6884C118.837 21.6734 118.861 22.1681 119.059 22.333C119.236 22.4804 120.04 22.5151 123.054 22.5057C127.36 22.4922 128.996 22.3287 130.03 21.8088C130.901 21.3709 132.131 20.1595 132.133 19.7367C132.134 19.5656 132.231 19.1533 132.349 18.8206C132.748 17.6869 132.358 15.6886 131.522 14.5916C131.317 14.3227 130.728 13.8521 130.213 13.5458C129.295 12.9996 129.245 12.987 127.649 12.8933C124.509 12.7091 121.319 12.6478 121.053 12.7667ZM169.032 23.4749C168.636 23.9738 167.065 25.6245 166.441 26.198C166.072 26.5374 165.527 27.058 165.229 27.3549C164.654 27.9284 163.828 28.6051 163.405 28.8487C163.265 28.9297 162.918 29.2104 162.635 29.4725C162.352 29.7346 161.917 30.0543 161.669 30.1828C161.421 30.3115 161.134 30.5005 161.031 30.6029C160.929 30.7054 160.624 30.9542 160.353 31.156C160.083 31.3578 159.831 31.5566 159.794 31.5977C159.757 31.6389 159.399 31.8423 158.998 32.0496C158.596 32.2569 158.098 32.5412 157.89 32.6813C157.682 32.8214 157.331 33.0582 157.11 33.2074C156.89 33.3568 156.573 33.5382 156.405 33.6105C156.238 33.6828 156.011 33.7991 155.9 33.869C155.648 34.0276 153.228 35.1616 152.92 35.2651C152.331 35.4628 152.333 35.4245 152.406 45.8705C152.47 54.9165 152.495 55.7999 152.701 56.006C152.906 56.2112 153.689 56.2379 161.234 56.2986C168.949 56.3604 169.556 56.3488 169.77 56.1349C169.985 55.9203 170 54.8205 170 39.7422C170 27.3505 169.962 23.5419 169.839 23.4182C169.612 23.1913 169.236 23.2177 169.032 23.4749ZM35.2437 33.0617C34.4313 33.1062 33.6345 33.2171 33.4733 33.3081C33.2967 33.4079 32.6282 33.4771 31.7947 33.4821C31.0327 33.4867 29.9562 33.5492 29.4022 33.6211C28.8483 33.693 27.7908 33.8031 27.0522 33.8658C25.0399 34.0364 21.8065 34.5252 19.8008 34.9619C19.136 35.1066 18.29 35.2617 17.9208 35.3065C17.5515 35.3514 17.1154 35.4714 16.9519 35.5736C16.7883 35.6756 16.4862 35.7583 16.2805 35.7572C15.7773 35.7548 12.7903 36.4177 12.2605 36.6495C12.0277 36.7512 11.6627 36.8346 11.4495 36.8346C11.2363 36.8346 10.8248 36.9556 10.535 37.1034C10.2452 37.2513 9.90037 37.3723 9.76864 37.3723C9.63677 37.3723 9.18127 37.4863 8.75626 37.6257C8.33124 37.765 7.65094 37.9475 7.24433 38.0313C6.10813 38.2652 5.83754 38.5659 5.35854 40.1282C5.13187 40.8676 4.89136 41.7145 4.82395 42.0102C4.75654 42.306 4.61567 42.9214 4.5108 43.378C4.40592 43.8345 4.22288 44.3471 4.10404 44.517C3.98506 44.6869 3.88784 44.9667 3.88784 45.1388C3.88784 45.3108 3.80069 45.6204 3.69407 45.8268C3.58744 46.0331 3.40857 46.5594 3.29658 46.9964C2.83853 48.7827 2.54135 49.7844 2.42775 49.9262C2.36154 50.0087 2.26257 50.2859 2.20765 50.5423C2.15286 50.7987 2.05725 51.1011 1.99521 51.2145C1.80372 51.5646 1.09965 53.9344 0.95543 54.7141C0.880364 55.1208 0.784888 55.5443 0.743259 55.6552C0.701765 55.7661 0.725399 55.9476 0.795899 56.0585C0.907222 56.2335 1.81312 56.2593 7.64584 56.2543L14.3677 56.2485L14.6949 55.9183C15.01 55.6003 15.316 54.7133 15.5947 53.31C15.6673 52.9443 15.8411 52.4996 15.9809 52.3218C16.1208 52.1438 16.2716 51.7775 16.3162 51.5078C16.3608 51.238 16.5073 50.745 16.6417 50.4123C16.9076 49.7546 17.3137 48.2411 17.321 47.8808C17.3236 47.7574 17.4423 47.4144 17.585 47.1187C17.7278 46.8229 17.8465 46.48 17.8491 46.3567C17.8574 45.9464 18.0166 45.6992 18.4004 45.5005C18.7192 45.3354 19.8791 45.3038 25.6147 45.3038C33.3738 45.3038 32.8937 45.2312 32.8937 46.4054C32.8937 46.7931 32.9841 47.132 33.1418 47.3358C33.2783 47.5122 33.4299 47.9561 33.4786 48.3223C33.5275 48.6885 33.6257 49.1724 33.6967 49.3977C34.1866 50.9496 34.6401 52.5233 34.6397 52.6708C34.6395 52.7667 34.7403 53.039 34.8635 53.2757C34.9868 53.5123 35.133 53.9176 35.1886 54.1764C35.3458 54.9077 35.7107 55.8361 35.9288 56.0585C36.1025 56.2356 38.1474 56.2593 52.7754 56.253C68.3807 56.2463 69.4389 56.2312 69.657 56.0129C69.8728 55.7969 69.8922 55.0501 69.9264 45.6526C69.9486 39.5521 69.9129 35.3927 69.8369 35.1922C69.7194 34.8832 69.6262 34.8533 68.5243 34.7726C67.8719 34.7251 66.7338 34.5961 65.9953 34.4864C64.2761 34.231 62.1258 34.031 60.092 33.9371C59.2087 33.8964 58.4137 33.8031 58.3255 33.7299C58.2373 33.6565 56.9276 33.5595 55.4152 33.5145L52.6653 33.4324L52.496 33.7491C52.3621 33.9997 52.3469 35.7384 52.4233 42.071C52.4764 46.4738 52.5304 50.3787 52.5433 50.7484C52.5637 51.3353 52.5313 51.4256 52.2878 51.4605C52.0422 51.4955 51.9729 51.3598 51.7046 50.3178C51.5372 49.6674 51.3711 48.9839 51.3355 48.7991C51.2998 48.6142 51.2148 48.342 51.1465 48.1941C50.9239 47.7117 50.4708 46.3258 50.3336 45.7071C50.2598 45.3744 50.1176 44.9207 50.0177 44.6989C49.9178 44.4771 49.7449 43.9024 49.6333 43.4218C49.3368 42.1449 48.5969 40.0434 48.3135 39.6731C48.1784 39.4967 48.068 39.1781 48.068 38.9649C48.068 38.6295 47.9329 38.0598 47.3875 36.0952C47.1749 35.3297 46.7344 34.1838 46.4261 33.5945L46.117 33.0032L41.4188 32.9921C38.8349 32.9859 36.0561 33.0172 35.2437 33.0617ZM82.3744 37.2919C82.1819 37.5862 82.1827 37.7205 82.3841 38.8043C82.5671 39.7895 82.6173 41.3611 82.6768 47.9569C82.7363 54.5581 82.7808 55.9466 82.9368 56.0764C83.0735 56.1898 85.4199 56.2508 91.5099 56.2991L99.8948 56.3655L100.033 56.0016C100.122 55.7674 100.171 52.8844 100.171 47.9165C100.171 40.3746 100.165 40.1892 99.9025 39.9265C99.7264 39.7502 99.455 39.6577 99.1132 39.6577C98.8017 39.6577 98.5215 39.572 98.4157 39.4445C98.2959 39.2998 98.1157 39.2558 97.8562 39.3079C97.6456 39.3499 97.2191 39.3263 96.9086 39.2552C94.4379 38.6889 90.8067 38.1067 88.6645 37.9333C87.9121 37.8724 87.2172 37.7581 87.1202 37.6795C87.0233 37.6008 86.3698 37.4925 85.6682 37.4389C84.9666 37.3851 84.2293 37.2574 84.0299 37.1551C83.8304 37.0528 83.4239 36.969 83.1266 36.969C82.7038 36.969 82.5397 37.0394 82.3744 37.2919ZM142.874 38.7414C142.319 38.9762 140.959 39.2872 140.459 39.2931C140.201 39.2962 139.91 39.3795 139.811 39.4782C139.713 39.5769 139.458 39.6577 139.245 39.6577C139.033 39.6577 138.569 39.714 138.214 39.783C136.69 40.0792 134.657 40.3513 133.732 40.3828C133.184 40.4015 132.615 40.4799 132.467 40.5569C132.319 40.6339 131.146 40.738 129.859 40.7881C128.209 40.8525 127.418 40.9368 127.173 41.0742C126.983 41.1813 126.664 41.3273 126.464 41.3987L126.101 41.5283L126.421 42.1054C126.598 42.4227 126.813 42.9679 126.9 43.3169C126.987 43.6659 127.142 44.0211 127.245 44.1063C127.347 44.1915 127.431 44.3804 127.431 44.5261C127.431 45.0082 128.328 47.4437 128.915 48.5568C129.059 48.8303 129.177 49.1313 129.177 49.2256C129.177 49.5018 129.975 51.5952 130.501 52.6976C130.659 53.0304 130.789 53.3565 130.789 53.4222C130.789 53.4881 130.906 53.7906 131.049 54.0944C131.192 54.3984 131.343 54.8632 131.386 55.1275C131.431 55.4059 131.624 55.7619 131.845 55.9739L132.226 56.3397L141.357 56.2999C151.12 56.2574 150.931 56.271 150.931 55.6031C150.931 55.4446 150.81 55.0893 150.663 54.8135C150.515 54.5375 150.394 54.2486 150.394 54.1714C150.394 54.0943 150.279 53.8672 150.138 53.6669C149.997 53.4665 149.841 53.0606 149.791 52.7649C149.741 52.4691 149.626 52.1364 149.535 52.0255C149.444 51.9146 149.196 51.3701 148.984 50.8156C148.772 50.261 148.526 49.7166 148.438 49.6057C148.35 49.4948 148.235 49.2528 148.184 49.068C147.925 48.1417 146.848 45.4551 146.297 44.3628C146.204 44.178 145.966 43.6033 145.768 43.0857C145.102 41.342 144.703 40.3992 144.46 39.9937C144.327 39.7719 144.218 39.4845 144.218 39.3552C144.217 39.0476 143.744 38.5799 143.445 38.5907C143.316 38.5954 143.059 38.6633 142.874 38.7414ZM101.32 40.2254C101.137 40.4871 101.111 41.4569 101.111 48.0597C101.111 54.6625 101.137 55.6323 101.32 55.894L101.529 56.1929H109.894C117.692 56.1929 118.272 56.1769 118.465 55.9576C118.633 55.7653 118.686 55.1088 118.753 52.3616C118.817 49.742 118.878 42.5657 118.843 41.7294C118.83 41.4226 118.112 41.2709 116.673 41.2709C115.816 41.2709 115.072 41.2059 114.905 41.1165C114.747 41.0316 114.252 40.9479 113.806 40.9306C109.774 40.7741 108.564 40.7011 108.293 40.5979C108.12 40.5319 107.354 40.4398 106.592 40.3933C105.83 40.3468 104.595 40.2227 103.847 40.1176C101.936 39.8492 101.573 39.8647 101.32 40.2254ZM35.2437 65.9468C34.1949 66.4659 33.2807 67.3592 32.8909 68.246C32.5431 69.0373 31.8307 69.1845 31.8214 68.467C31.8203 68.3785 31.6683 68.0216 31.4837 67.674C31.299 67.3264 31.148 66.9654 31.148 66.8718C31.148 66.4915 28.9163 65.6032 27.9612 65.6032C27.6224 65.6032 26.5115 66.0638 26.3949 66.2525C26.3494 66.3262 26.0746 66.4266 25.7842 66.4757C25.3385 66.5511 25.2426 66.6268 25.1691 66.9615C25.1213 67.1796 24.9345 67.6225 24.754 67.9457C24.5736 68.269 24.3359 69.0045 24.2259 69.5802C24.1158 70.156 23.9971 70.6558 23.9619 70.6909C23.9267 70.7261 23.5502 70.6705 23.1252 70.5673C21.4596 70.1628 20.6527 70.426 20.2748 71.4971C20.0864 72.0312 20.0911 72.0702 20.3791 72.3587C20.635 72.6148 20.8552 72.6682 21.8232 72.7085C22.6205 72.7417 23.1645 72.6909 23.6242 72.5405C23.9863 72.4219 24.3113 72.3248 24.3462 72.3248C24.3811 72.3248 24.54 72.5944 24.6994 72.9239C24.9724 73.4886 25.3845 73.9208 26.243 74.543C26.4471 74.6908 26.9845 74.8846 27.4374 74.9734C29.2505 75.3291 30.8329 74.6028 31.606 73.0599C31.9625 72.3484 31.9803 72.2499 31.807 71.941C31.5833 71.542 30.8948 71.3257 30.2401 71.4487C29.8948 71.5135 29.7404 71.6379 29.6015 71.9632C29.3311 72.5961 28.7718 73.1314 28.3809 73.1314C27.8387 73.1314 27.5583 72.9064 27.193 72.178C26.7435 71.2823 26.7085 69.7667 27.1194 68.9991C27.2671 68.7232 27.3879 68.4275 27.3879 68.3418C27.3879 68.1328 27.7075 68.023 28.3155 68.023C28.9158 68.023 29.3468 68.4155 29.5481 69.1456C29.6456 69.4989 29.7764 69.6575 30.0206 69.719C30.5077 69.8413 31.3987 69.694 31.6725 69.4459C31.8018 69.3287 32.0087 69.2329 32.1321 69.2329C32.3259 69.2329 32.3565 69.4052 32.3565 70.4936C32.3565 71.4474 32.4053 71.7948 32.557 71.9207C32.6673 72.0123 32.8189 72.3071 32.894 72.5757C33.1649 73.5459 33.8558 74.2689 35.0829 74.8661C35.7051 75.169 36.2796 75.4168 36.3596 75.4168C36.4396 75.4168 36.7893 75.2655 37.1366 75.0807C37.4839 74.8959 37.8428 74.7446 37.9341 74.7446C38.0256 74.7446 38.456 74.3967 38.8906 73.9716C39.5215 73.3546 39.7416 73.0224 39.9816 72.3248C40.3006 71.3971 40.3899 69.7874 40.1544 69.2056C40.0856 69.0358 39.9974 68.7456 39.9582 68.5607C39.9191 68.3759 39.6455 67.8529 39.3502 67.3985C38.8587 66.6426 38.7151 66.5257 37.6584 66.0206C37.0234 65.717 36.4317 65.4716 36.3438 65.4752C36.2557 65.4787 35.7607 65.691 35.2437 65.9468ZM103.893 66.0102C102.594 66.6688 101.971 67.1588 101.764 67.6841C101.676 67.9075 101.515 68.1952 101.406 68.3236C101.252 68.5037 101.205 68.9792 101.199 70.4073C101.19 72.2065 101.201 72.2775 101.583 72.9787C102.056 73.8455 102.751 74.4364 103.958 74.9975C104.949 75.4582 104.884 75.4656 106.211 74.7423C106.616 74.5217 107.018 74.3413 107.105 74.3413C107.191 74.3413 107.325 74.5227 107.402 74.7442C107.58 75.2533 108.104 75.5165 108.543 75.3165C108.848 75.1772 108.86 75.1099 108.948 72.9433C108.999 71.717 109 70.5576 108.953 70.3668C108.862 70.0037 108.444 69.7706 107.884 69.7706C107.654 69.7706 107.557 69.696 107.557 69.519C107.557 69.3298 107.689 69.2462 108.086 69.1825C108.755 69.0755 108.841 68.9293 108.625 68.2721C108.369 67.4957 107.356 66.5423 106.173 65.9651C105.614 65.6922 105.107 65.4713 105.047 65.4744C104.987 65.4775 104.468 65.7187 103.893 66.0102ZM74.9629 65.8478C74.4686 66.0071 73.9916 66.3219 73.3453 66.9151C72.1245 68.0358 71.9177 68.6099 71.996 70.6595C72.0449 71.9391 72.0995 72.2154 72.4307 72.8568C72.9702 73.902 73.6415 74.531 74.5896 74.8801C75.7485 75.3068 76.0914 75.3437 76.6125 75.0972C76.8663 74.9772 77.2899 74.7763 77.554 74.6508C78.0477 74.4161 78.8196 73.7123 78.8196 73.4968C78.8196 73.4301 78.9402 73.2219 79.0878 73.0342C79.596 72.3872 79.9253 70.7662 79.7369 69.8378C79.4126 68.2395 79.0645 67.5742 78.0375 66.5884C77.61 66.178 77.2674 65.9856 76.7601 65.8708C76.3787 65.7847 75.9761 65.6934 75.8653 65.6681C75.7545 65.6427 75.3484 65.7236 74.9629 65.8478ZM161.003 66.0151C159.563 66.8088 158.788 67.8876 158.31 69.765C158.134 70.4558 158.207 71.0606 158.607 72.2315C159.082 73.6201 159.819 74.4511 160.9 74.8182C161.25 74.9369 161.571 75.09 161.613 75.1581C161.735 75.3558 162.418 75.3025 162.906 75.0573C163.152 74.9336 163.52 74.7482 163.724 74.6455C164.167 74.4222 164.583 74.5251 164.698 74.886C164.908 75.5501 165.878 75.5 166.049 74.8161C166.096 74.6286 166.113 73.5769 166.086 72.4791C166.033 70.2977 165.974 70.1176 165.249 69.9295C164.962 69.8549 164.83 69.7392 164.83 69.5604C164.83 69.3575 164.949 69.2853 165.367 69.2329C166.098 69.1415 166.13 68.7906 165.503 67.7571C164.89 66.7461 164.257 66.2216 163.233 65.8754C162.166 65.5149 161.878 65.5329 161.003 66.0151ZM93.5773 65.8473C93.0791 65.9952 93.0539 66.2262 93.0539 70.6605C93.0539 75.5851 93.017 75.4183 94.1042 75.4148C94.4499 75.4136 94.8148 75.3604 94.9154 75.2966C95.1733 75.1331 95.3537 74.2211 95.4304 72.6945C95.4766 71.7761 95.5462 71.3838 95.6629 71.3838C95.9418 71.3838 96.4513 72.0682 96.9892 73.165C97.2701 73.7381 97.5572 74.2069 97.6271 74.2069C97.6969 74.2069 97.754 74.2913 97.754 74.3946C97.754 74.4978 97.9676 74.77 98.2287 74.9995C98.5857 75.3134 98.8328 75.4168 99.2262 75.4168C100.167 75.4168 100.173 75.3932 100.159 71.8111C100.145 68.4752 100.035 66.2279 99.8755 66.069C99.8239 66.0172 99.5175 65.9452 99.1949 65.9087C98.7622 65.8599 98.55 65.901 98.3861 66.065C97.9723 66.4792 97.7348 67.9333 97.94 68.796C98.0353 69.197 98.0173 69.2329 97.7195 69.2329C97.4616 69.2329 97.3195 69.0834 97.0272 68.5052C96.825 68.105 96.5431 67.6721 96.401 67.5433C96.2588 67.4145 96.1409 67.2126 96.1389 67.0947C96.1369 66.9768 95.9681 66.6785 95.7639 66.432C95.4434 66.0453 95.2804 65.9705 94.5786 65.8876C94.1311 65.8348 93.6805 65.8167 93.5773 65.8473ZM156.236 65.9273C155.363 66.1495 154.886 66.9923 155.032 68.056C155.104 68.5807 155.079 68.7093 154.894 68.7805C154.574 68.9036 154.197 68.4766 153.547 67.2543C153.23 66.6571 152.852 66.1357 152.666 66.0392C152.473 65.9385 151.961 65.8842 151.401 65.9047L150.461 65.9393L150.426 70.5682C150.398 74.1819 150.428 75.2206 150.56 75.3048C150.893 75.5167 151.963 75.427 152.293 75.1597C152.6 74.9109 152.61 74.8434 152.599 73.0088C152.589 71.2635 152.607 71.1149 152.832 71.1149C152.972 71.1149 153.207 71.333 153.38 71.6242C153.548 71.9042 153.758 72.2521 153.848 72.3971C153.938 72.5422 154.282 73.2167 154.613 73.8958C154.944 74.575 155.334 75.1951 155.481 75.2738C155.628 75.3524 156.014 75.4168 156.34 75.4168C157.398 75.4168 157.377 75.512 157.377 70.7434C157.377 68.4435 157.321 66.4148 157.253 66.2352C157.094 65.8175 156.899 65.7583 156.236 65.9273ZM2.78454 66.2599C2.46508 66.5407 2.27466 66.8478 2.21195 67.1837C2.16038 67.4605 2.07122 67.7474 2.01388 67.8213C1.91625 67.9473 1.42758 69.57 0.981752 71.2494C0.873785 71.656 0.728083 72.0463 0.657986 72.1164C0.588023 72.1866 0.530282 72.4286 0.529744 72.6542C0.529342 72.8798 0.408885 73.2457 0.26211 73.4675C-0.0804541 73.9852 -0.0885103 74.763 0.24546 75.0656C0.618776 75.4039 1.40072 75.4935 1.78398 75.2423C2.02757 75.0825 2.12197 74.8672 2.18603 74.3257C2.30205 73.3453 2.48065 73.2097 3.73032 73.1528C4.94454 73.0977 4.95045 73.102 5.30698 74.3183C5.60254 75.3263 5.80451 75.4693 6.81434 75.3855C7.76697 75.3064 7.96397 75.0678 7.84311 74.1397C7.7612 73.5107 7.42427 72.2401 7.0946 71.3166C7.0155 71.0948 6.89585 70.6452 6.82885 70.3176C6.7617 69.99 6.60163 69.5665 6.47312 69.3766C6.34448 69.1866 6.16708 68.759 6.07872 68.4263C5.66539 66.8682 5.48531 66.3381 5.30967 66.1624C5.19928 66.0518 4.73129 65.9444 4.19146 65.9058C3.30047 65.8419 3.2438 65.8562 2.78454 66.2599ZM9.05518 65.967C8.65151 66.2813 8.59431 66.8784 8.58383 70.8783C8.57134 75.6596 8.49265 75.4168 10.0543 75.4168C11.5332 75.4168 11.4664 75.6028 11.3598 71.7731C11.2483 67.7685 11.1504 66.4765 10.9365 66.1835C10.7583 65.9397 9.30509 65.7723 9.05518 65.967ZM13.0501 65.9523C12.9562 65.9955 12.7899 66.2038 12.6808 66.4153C12.5183 66.7299 12.4822 67.544 12.4822 70.899C12.4822 74.9827 12.4832 74.9991 12.7807 75.2075C13.1676 75.4789 14.613 75.4907 14.9744 75.2255C15.207 75.0548 15.235 74.8626 15.235 73.4443C15.235 71.8811 15.2403 71.8535 15.5482 71.81C15.9873 71.7477 16.3277 72.1072 16.5916 72.912C16.991 74.1297 17.4162 74.8128 17.9268 75.0565C18.5688 75.363 19.4938 75.3531 19.7799 75.0365C20.029 74.761 20.0775 74.135 19.8603 74.0005C19.7099 73.9074 19.2573 72.9416 18.8745 71.8964C18.6678 71.3326 18.6644 71.2266 18.8424 70.8881C18.9517 70.6802 19.1667 70.4047 19.3202 70.2761C19.4738 70.1474 19.6012 69.9357 19.6036 69.8056C19.6059 69.6754 19.6966 69.4515 19.8051 69.308C19.9134 69.1644 20.0022 68.8887 20.0022 68.6951C20.0022 68.5016 19.9134 68.2258 19.8051 68.0823C19.6966 67.9388 19.6059 67.7271 19.6036 67.612C19.5968 67.2767 18.9141 66.5426 18.3332 66.2459C17.8716 66.0103 17.4837 65.9659 15.5094 65.9233C14.2507 65.8961 13.1439 65.9092 13.0501 65.9523ZM41.7154 65.9661C41.5819 66.0008 41.4121 66.1888 41.338 66.3838C41.2639 66.5789 41.1672 68.5361 41.1231 70.733C41.0496 74.399 41.0623 74.757 41.279 75.088C41.4927 75.4145 41.5738 75.4421 42.1341 75.3789C43.0518 75.2754 43.2825 74.9276 43.2002 73.7723C43.1561 73.1545 43.1942 72.7541 43.3202 72.511C43.4217 72.3151 43.5422 71.9209 43.5878 71.6349C43.6335 71.3488 43.7423 71.1149 43.8296 71.1149C43.9715 71.1149 45.248 73.1037 45.248 73.3249C45.248 73.3742 45.3991 73.6372 45.5837 73.9091C45.7684 74.1812 45.9195 74.5063 45.9195 74.6317C45.9195 74.9978 46.5682 75.4168 47.1351 75.4168C48.1354 75.4168 48.068 75.7522 48.068 70.7721C48.068 66.2935 48.0679 66.2904 47.7695 66.0814C47.6054 65.9663 47.3184 65.873 47.1317 65.8741C46.441 65.8782 46.3929 66.0006 46.3425 67.8836C46.2832 70.0877 46.1472 70.1555 45.1857 68.4595C44.8191 67.8127 44.4788 67.2533 44.4294 67.2164C44.3801 67.1794 44.2268 66.9096 44.0889 66.617C43.9296 66.279 43.7154 66.0507 43.5023 65.9917C43.1217 65.8864 42.0801 65.8715 41.7154 65.9661ZM50.0152 66.0508C49.7578 66.245 49.7449 66.4355 49.7062 70.617C49.6694 74.5996 49.686 75.0008 49.8971 75.2122C50.0956 75.4109 50.3516 75.4371 51.7028 75.3966C52.91 75.3606 53.3351 75.2989 53.5261 75.1323C53.6631 75.0129 53.9517 74.873 54.1675 74.8215C54.3833 74.77 54.7086 74.6107 54.8906 74.4674C55.0725 74.3241 55.2969 74.2069 55.3891 74.2069C55.6447 74.2069 56.44 73.2641 56.7833 72.554C56.9516 72.2058 57.1557 71.5333 57.2368 71.0593C57.3605 70.3363 57.3471 70.0633 57.1534 69.3661C56.9269 68.5502 56.1069 67.0819 55.8779 67.0819C55.8139 67.0819 55.6134 66.9458 55.4324 66.7795C54.7104 66.1161 54.1572 65.9683 52.1638 65.9065C50.6313 65.859 50.2341 65.8856 50.0152 66.0508ZM58.483 66.0514C58.1035 66.3291 58.0219 67.2367 58.0133 71.2734C58.0063 74.4839 58.0342 75.0233 58.2162 75.2056C58.3702 75.3596 58.6971 75.4168 59.4248 75.4168C61.0236 75.4168 60.9685 75.563 60.8667 71.5838L60.7821 68.2803L61.9115 68.3197L63.041 68.3591L63.0757 71.7199C63.1063 74.6878 63.1368 75.1003 63.3364 75.2487C63.6029 75.447 65.4936 75.4751 65.7938 75.2853C65.9625 75.1787 66.0017 74.5994 66.0353 71.7193L66.0754 68.2808L67.1096 68.3199L68.1438 68.3591L68.211 71.6798C68.2604 74.1268 68.3234 75.0459 68.4503 75.1726C68.6892 75.4114 70.5715 75.4968 70.8316 75.2807C70.9998 75.1408 71.031 74.4827 71.031 71.064C71.031 67.1247 70.9528 66.2106 70.597 65.9845C70.3061 65.7996 69.1832 65.8613 68.602 66.0941C68.0866 66.3006 68.0212 66.3006 67.6722 66.0941C67.1258 65.7711 61.6969 65.7644 61.0199 66.0859C60.6084 66.2814 60.5436 66.2814 60.2647 66.0859C59.8926 65.825 58.8206 65.8043 58.483 66.0514ZM80.9266 66.1932C80.4813 66.6742 80.431 67.2016 80.431 71.3929C80.431 75.5624 80.3885 75.418 81.6156 75.4148C82.8177 75.4115 82.781 75.4929 82.781 72.8333C82.781 70.6119 82.7926 70.51 83.0455 70.51C83.24 70.51 83.3754 70.6874 83.5583 71.1821C83.695 71.5518 83.917 71.9753 84.0514 72.1232C84.1858 72.2711 84.4872 72.755 84.7208 73.1986C84.9546 73.6423 85.2029 74.0628 85.2727 74.1329C85.3426 74.2031 85.3996 74.3948 85.3996 74.5588C85.3996 75.1608 85.5318 75.2823 86.1861 75.2818C86.9191 75.2813 87.6393 74.8971 87.7521 74.4463C87.7944 74.2776 87.811 72.3653 87.7893 70.1965C87.7518 66.4732 87.7351 66.2427 87.489 66.0627C87.1026 65.7801 86.3951 65.8238 86.0925 66.1487C85.7849 66.4793 85.6717 67.0803 85.6697 68.3927C85.6686 69.1315 85.6234 69.3673 85.4827 69.3673C85.2358 69.3673 84.6396 68.5689 84.1316 67.5581C83.3651 66.0331 83.2767 65.9571 82.1985 65.8961C81.3164 65.8462 81.229 65.8667 80.9266 66.1932ZM89.5864 65.9809C89.2461 66.2122 89.1661 67.1746 89.1629 71.0718C89.159 75.7432 89.0634 75.468 90.6653 75.3951C91.4112 75.3613 91.7617 75.2881 91.856 75.1467C92.1118 74.7626 91.8007 66.5837 91.5154 66.1932C91.3229 65.9296 89.8934 65.7723 89.5864 65.9809ZM116.546 66.1486C116.288 66.4071 116.275 66.5317 116.35 68.0642C116.47 70.5455 116.688 73.8159 116.767 74.3142C116.901 75.1623 118.352 75.6245 118.917 74.999C119.125 74.7677 119.176 74.4891 119.191 73.4866C119.202 72.8107 119.217 72.1794 119.225 72.0837C119.236 71.9547 119.492 71.9199 120.213 71.9492L121.187 71.9887L121.225 73.5265C121.246 74.3776 121.329 75.1431 121.409 75.2405C121.588 75.4558 123.429 75.4841 123.814 75.2776C124.053 75.1497 124.073 74.9842 124.065 73.2275C124.061 72.1765 124.01 70.2478 123.954 68.9416C123.824 65.9499 123.763 65.8137 122.58 65.8993C121.466 65.98 121.38 66.1021 121.29 67.737C121.228 68.8602 121.177 69.1001 121 69.108C120.14 69.1459 119.343 69.1122 119.265 69.0346C119.214 68.9839 119.141 68.3092 119.103 67.5352C119.052 66.4958 118.982 66.0952 118.835 66.0022C118.725 65.9328 118.228 65.8753 117.729 65.8741C116.992 65.8725 116.771 65.9235 116.546 66.1486ZM125.279 66.2169C125.095 66.7015 125.106 74.8184 125.292 75.1648C125.431 75.4248 125.56 75.4321 129.555 75.4029C131.821 75.3864 133.773 75.3244 133.893 75.2653C134.025 75.1994 134.143 74.9062 134.195 74.5094C134.343 73.3988 134.516 73.2659 135.815 73.2659H136.933L137.092 73.7028C137.518 74.8702 137.971 75.2556 138.936 75.2725C139.392 75.2805 139.551 75.2143 139.781 74.9218C139.948 74.7087 140.027 74.4751 139.974 74.3505C139.924 74.2346 139.84 73.8977 139.786 73.6019C139.644 72.8186 139.099 71.2163 138.891 70.9699C138.792 70.8532 138.711 70.58 138.711 70.3629C138.711 70.1459 138.59 69.7425 138.443 69.4667C138.295 69.1907 138.174 68.8539 138.174 68.7183C138.174 68.5826 138.048 68.0531 137.893 67.5414C137.51 66.2756 137.077 65.8692 136.124 65.8799C135.738 65.884 135.18 65.9304 134.885 65.9827C134.368 66.0745 134.347 66.0998 134.26 66.7058C134.211 67.0512 133.979 67.9274 133.745 68.6529C133.104 70.6404 133.071 70.7653 133.071 71.2072C133.071 71.4322 132.96 71.7606 132.823 71.937C132.687 72.1134 132.535 72.4239 132.485 72.6273C132.381 73.0548 132.191 73.0934 131.826 72.7617C131.617 72.5714 131.23 72.5137 129.801 72.4593L128.036 72.392V71.9887V71.5854L129.35 71.5182C130.318 71.4688 130.698 71.3978 130.792 71.2494C130.861 71.1385 130.919 70.6717 130.921 70.2122C130.923 69.1811 130.777 69.0736 129.405 69.0997C128.873 69.1099 128.363 69.1136 128.271 69.1083C128.176 69.1027 128.103 68.9229 128.103 68.6951V68.2918H129.845C131.556 68.2918 131.592 68.2857 131.808 67.9558C132.106 67.501 131.963 66.204 131.593 66.0059C131.449 65.9286 130.091 65.8721 128.377 65.8721H125.41L125.279 66.2169ZM139.549 66.0115C139.193 66.1542 138.98 66.6385 138.98 67.3012C138.98 68.1288 139.155 68.2918 140.044 68.2918C140.638 68.2918 140.851 68.3441 140.913 68.5045C140.957 68.6215 140.994 70.1036 140.994 71.7981C140.994 75.5188 140.951 75.4168 142.518 75.4168C144.002 75.4168 143.948 75.5504 143.948 71.8211C143.948 70.114 143.985 68.6215 144.03 68.5045C144.09 68.3475 144.298 68.2918 144.826 68.2918C145.81 68.2918 145.956 68.1173 145.868 67.0512C145.823 66.5126 145.721 66.1474 145.586 66.0401C145.333 65.8392 140.039 65.814 139.549 66.0115ZM146.826 65.9749C146.542 66.1698 146.513 66.5913 146.49 70.8559C146.472 74.3845 146.502 75.2022 146.652 75.3035C146.917 75.4822 148.871 75.3822 149.074 75.1795C149.27 74.983 149.264 73.9188 149.042 69.6362C148.96 68.0465 148.833 66.5852 148.76 66.3889C148.686 66.1927 148.496 65.9969 148.335 65.9539C147.926 65.844 146.998 65.857 146.826 65.9749ZM15.3598 68.3494C15.1805 69.0644 15.6176 69.5017 16.5118 69.5017C16.8966 69.5017 17.3165 69.1002 17.3165 68.7324C17.3165 68.3335 16.7886 68.023 16.1104 68.023C15.5143 68.023 15.4327 68.0585 15.3598 68.3494ZM35.6799 68.34C35.3851 68.6134 35.3251 68.8147 35.2427 69.8026C35.1286 71.1754 35.2324 71.8994 35.6286 72.4898C35.9803 73.0139 36.4756 73.1172 36.9181 72.7585C37.1464 72.5734 37.2651 72.2775 37.3658 71.6427C37.6024 70.1505 37.4331 68.9034 36.9197 68.3564C36.5271 67.9379 36.1191 67.9325 35.6799 68.34ZM75.5051 68.1821C75.1328 68.2803 75.0507 68.3881 74.8673 69.0198C74.6005 69.9385 74.5994 70.9724 74.8641 71.9898C75.1015 72.9024 75.2155 73.0134 75.8653 72.9649C76.2812 72.9338 76.3726 72.8544 76.6597 72.2745C76.936 71.7165 76.9801 71.4483 76.9573 70.4688C76.9278 69.197 76.6115 68.2422 76.1838 68.1334C76.0455 68.0983 75.7401 68.1202 75.5051 68.1821ZM104.495 68.2582C103.596 69.0369 103.259 70.8098 103.811 71.8563C104.271 72.7283 104.587 72.997 105.152 72.997C105.892 72.997 106.08 72.8855 106.08 72.4449C106.08 72.0935 106.036 72.056 105.631 72.056C104.974 72.056 104.667 71.6549 104.68 70.8134C104.692 70.0158 104.93 69.7706 105.695 69.7706C105.972 69.7706 106.235 69.7113 106.279 69.639C106.398 69.4465 106.07 68.3872 105.831 68.191C105.534 67.9482 104.811 67.9847 104.495 68.2582ZM161.527 68.4405C161.141 68.8534 161.137 68.8758 161.137 70.4779C161.137 72.0073 161.156 72.1229 161.48 72.5474C161.76 72.9155 161.912 72.9966 162.319 72.995C162.963 72.9923 163.186 72.8408 163.13 72.4441C163.092 72.1799 163.017 72.1303 162.703 72.1636C162.11 72.2268 161.943 71.9912 161.943 71.0897C161.943 69.9134 162.059 69.7706 163.014 69.7706C163.45 69.7706 163.845 69.7084 163.892 69.6321C163.939 69.556 163.792 69.2817 163.565 69.0225C163.337 68.7634 163.151 68.5026 163.151 68.4432C163.151 68.2953 162.53 68.023 162.192 68.023C162.04 68.023 161.741 68.2109 161.527 68.4405ZM52.8447 68.3686C52.6712 68.5423 52.6342 68.9428 52.6358 70.6204C52.6379 72.6658 52.7186 73.1123 53.0566 72.9479C53.8703 72.5519 54.0373 72.3535 54.3618 71.3974L54.6947 70.4162L54.4403 69.6565C54.1781 68.8733 53.6134 68.1574 53.2579 68.1574C53.1467 68.1574 52.9609 68.2525 52.8447 68.3686ZM3.34734 69.8465C3.19063 70.2591 3.17935 70.9828 3.32585 71.2137C3.38373 71.305 3.61282 71.4161 3.83493 71.4606C4.62413 71.6187 4.75708 70.895 4.11411 69.9396C3.76013 69.4134 3.52272 69.3846 3.34734 69.8465ZM135.495 70.3681C135.214 70.7071 135.376 71.1769 135.791 71.2246C136.106 71.2609 136.16 71.2183 136.16 70.9332C136.16 70.2251 135.839 69.9526 135.495 70.3681ZM109.734 72.5734C109.608 72.6535 109.571 73.0271 109.599 73.9493C109.635 75.1144 109.662 75.2256 109.94 75.3478C110.325 75.5165 110.33 75.9417 109.954 76.4201C109.716 76.7233 109.698 76.8084 109.853 76.9067C110.216 77.1368 110.493 77.0246 111.003 76.4401C112.195 75.0753 112.815 72.9645 112.131 72.5984C111.824 72.434 109.983 72.4148 109.734 72.5734ZM167.583 72.6053C167.161 72.762 166.643 73.5094 166.643 73.9606C166.643 74.1487 166.854 74.5799 167.113 74.9188C167.632 75.5999 167.685 75.8367 167.375 76.0946C167.071 76.3468 167.178 76.9528 167.534 77.0038C167.881 77.0534 168.58 76.2398 169.109 75.1705C169.497 74.3834 169.608 72.9271 169.302 72.6206C169.114 72.433 168.071 72.4238 167.583 72.6053ZM3.68641 81.3844C2.81543 81.6586 2.03617 82.2281 1.74208 82.8052C1.42489 83.4274 1.40623 83.8238 1.67212 84.2893C2.01414 84.8882 1.91974 85.2634 1.26496 85.9067C0.896477 86.2689 0.594603 86.7172 0.499394 87.0437C0.413048 87.3403 0.284535 87.6227 0.2139 87.6713C0.136283 87.7245 0.173617 87.9458 0.308038 88.2293C0.430507 88.4877 0.530683 88.7955 0.530683 88.9136C0.530683 89.3025 1.46786 90.1931 2.05617 90.3633C2.36194 90.4517 2.75621 90.6336 2.93239 90.7675C3.3519 91.0865 3.90275 91.0764 4.32736 90.7421C4.51509 90.5942 4.78004 90.4719 4.9162 90.4703C5.05224 90.4687 5.42945 90.3466 5.75428 90.199L6.34501 89.9307L7.34316 90.3342C8.25698 90.7035 8.37233 90.7215 8.70939 90.547C9.26399 90.2599 9.4152 90.0062 9.36874 89.4408C9.33127 88.9865 9.27205 88.9098 8.85643 88.7755C8.59337 88.6905 8.36548 88.5185 8.33889 88.3846C8.31284 88.253 8.54435 87.646 8.85348 87.0357C9.3216 86.1114 9.39062 85.8793 9.26641 85.647C9.08714 85.3116 8.69717 85.1982 7.91938 85.2551C7.33121 85.2983 7.28233 85.3409 6.94796 86.1042C6.70329 86.6629 6.12344 86.6806 6.06046 86.1313C6.02689 85.8384 6.13673 85.6392 6.55692 85.2309C7.38976 84.4219 7.52928 83.4943 6.95924 82.5562C6.69268 82.1176 5.70608 81.4845 5.05425 81.3338C4.36577 81.1748 4.35086 81.1753 3.68641 81.3844ZM51.9623 81.3576C51.7777 81.4435 51.3829 81.6196 51.0849 81.749C50.2765 82.1 49.1658 83.2694 49.072 83.8686C49.0298 84.137 48.9076 84.6508 48.8003 85.0106C48.555 85.8328 48.5527 86.5383 48.7926 87.2758C48.8958 87.5926 49.0209 88.0868 49.0707 88.3738C49.1942 89.0862 50.2326 90.0987 51.1534 90.405C51.5244 90.5284 51.828 90.6838 51.828 90.7503C51.828 91.0501 52.5163 91.0341 52.9715 90.7238C53.2279 90.5491 53.438 90.3615 53.4385 90.3071C53.4391 90.2526 53.6804 90.0486 53.9748 89.8535C54.5627 89.4641 54.4433 89.4405 55.4093 90.1372C55.7524 90.3847 55.8525 89.9108 55.8546 88.0278C55.856 86.7289 55.8087 86.1577 55.6939 86.0866C55.6043 86.0312 54.9345 85.9695 54.2053 85.9496C52.9276 85.9146 52.8678 85.9261 52.5552 86.2636C52.3769 86.4563 52.2309 86.6938 52.2309 86.7913C52.2309 87.0408 52.6703 87.2469 53.2023 87.2469C53.4509 87.2469 53.7269 87.3195 53.8155 87.4082C54.0768 87.6698 54.0008 88.1759 53.647 88.53C53.3785 88.7989 53.1857 88.8593 52.6062 88.8558C51.7597 88.8506 51.5185 88.6922 51.1623 87.9063C50.7707 87.042 50.7742 84.9686 51.1684 84.2321C51.9371 82.7965 53.0651 82.7668 53.9658 84.1581C54.2014 84.5225 54.4493 84.8545 54.5166 84.896C54.6882 85.0022 55.7189 84.4547 55.8139 84.2069C55.9087 83.9594 55.6705 83.4892 55.1609 82.9177C54.9526 82.6843 54.7823 82.393 54.7823 82.2704C54.7823 81.9955 53.4543 81.32 52.7773 81.2506C52.5137 81.2236 52.147 81.2717 51.9623 81.3576ZM93.8597 81.3246C93.7489 81.3857 93.3342 81.5772 92.9383 81.7499C92.1119 82.1105 91.2388 83.0156 91.0979 83.6579C91.0465 83.8921 90.9072 84.2322 90.7885 84.4137C90.4706 84.8995 90.4832 87.1856 90.8065 87.6465C90.9348 87.8292 91.0396 88.0746 91.0396 88.1915C91.0396 88.911 92.6554 90.4733 93.3995 90.4733C93.5606 90.4733 93.7677 90.564 93.8597 90.6749C93.9517 90.7858 94.1934 90.8765 94.3968 90.8765C94.6003 90.8765 94.842 90.7858 94.934 90.6749C95.0259 90.564 95.2205 90.4733 95.3665 90.4733C95.9873 90.4733 97.754 89.221 97.754 88.7809C97.754 88.676 97.8748 88.3645 98.0225 88.0885C98.2452 87.6727 98.2911 87.3301 98.2911 86.0863C98.2911 84.6979 98.2618 84.5266 97.8983 83.7931C97.0491 82.0798 94.8859 80.7575 93.8597 81.3246ZM124.746 81.6519C124.14 81.9606 123.794 82.2371 123.615 82.5545C123.473 82.8063 123.156 83.2644 122.91 83.5725C122.411 84.1974 122.346 84.5906 122.698 84.853C122.828 84.9497 123.103 85.2899 123.311 85.6093C123.605 86.0625 123.884 86.2796 124.586 86.5994C125.08 86.8247 125.775 87.0884 126.13 87.1853C126.843 87.3795 127.431 87.7155 127.431 87.9283C127.431 88.0039 127.283 88.2141 127.102 88.3956C126.845 88.6529 126.632 88.7256 126.137 88.7256C125.555 88.7256 125.455 88.6743 124.918 88.097L124.333 87.4683L123.259 87.7789C122.669 87.9498 122.142 88.0463 122.089 87.9935C122.036 87.9405 121.962 86.5157 121.925 84.8271C121.889 83.1383 121.828 81.7262 121.79 81.6889C121.706 81.6053 121.172 81.5519 120.699 81.5797C120.134 81.6131 119.856 82.3496 119.956 83.5426C120.059 84.7525 119.97 85.1234 119.592 85.0693C119.391 85.0407 119.149 84.7283 118.77 84.006C117.542 81.6684 117.472 81.6004 116.203 81.4984C115.451 81.438 115.336 81.4637 115.043 81.7565C114.741 82.0587 114.712 82.2141 114.629 83.9463C114.58 84.9716 114.54 86.7647 114.54 87.9307C114.54 90.4286 114.56 90.4733 115.7 90.4733C116.993 90.4733 116.985 90.4891 116.941 88.2198C116.913 86.7336 116.945 86.2425 117.073 86.1998C117.292 86.1266 117.517 86.4294 118.099 87.5829C118.36 88.1005 118.863 88.9474 119.217 89.465L119.861 90.406L120.743 90.4454C121.85 90.4948 122.06 90.3264 122.06 89.3882C122.06 88.8168 122.096 88.7256 122.326 88.7256C122.487 88.7256 122.729 88.9316 122.936 89.2439C123.293 89.785 124.434 90.4733 124.973 90.4733C125.133 90.4733 125.351 90.561 125.458 90.6683C125.815 91.025 126.346 91.0695 126.743 90.7759C126.943 90.6276 127.361 90.4634 127.67 90.411C128.55 90.2622 129.467 89.3614 129.775 88.3433C130.011 87.5639 130.01 87.5177 129.768 86.8417C129.598 86.3706 129.353 86.0138 129.011 85.7427C128.434 85.2855 127.285 84.8271 126.715 84.8271C125.909 84.8271 125.086 84.1794 125.349 83.7528C125.395 83.6782 125.78 83.6172 126.205 83.6172C126.819 83.6172 127.07 83.6864 127.436 83.957C127.949 84.336 128.351 84.3162 129.098 83.8754C129.425 83.6822 129.767 83.6285 130.592 83.6412C131.18 83.6504 131.737 83.7165 131.829 83.7885C131.955 83.8863 131.997 84.7174 131.997 87.1144C131.997 89.9045 132.024 90.3204 132.209 90.3916C132.633 90.5543 134.51 90.48 134.664 90.2945C134.76 90.1779 134.825 88.9965 134.848 86.9L134.884 83.6844L135.819 83.6598C136.333 83.6464 136.842 83.6851 136.95 83.7458C137.115 83.8379 137.149 84.3845 137.157 87.0187C137.163 88.758 137.217 90.2315 137.278 90.2931C137.457 90.4731 139.452 90.5177 139.767 90.3489C140.04 90.2022 140.051 90.0951 140.085 86.9409L140.121 83.6844L140.815 83.6442C141.197 83.622 141.711 83.656 141.957 83.7196L142.404 83.8354L142.471 86.9636C142.55 90.6152 142.49 90.4733 143.948 90.4733C145.374 90.4733 145.312 90.6319 145.297 87.0265C145.281 83.5032 145.259 83.5751 146.322 83.643L146.97 83.6844L147.056 85.5355C147.104 86.5536 147.207 87.4636 147.285 87.5575C147.362 87.6515 147.491 88.0173 147.57 88.3703C147.82 89.4872 148.57 90.2206 149.656 90.4098C149.951 90.4613 150.327 90.5874 150.49 90.69C150.872 90.9295 151.659 90.9306 151.857 90.6917C151.942 90.5899 152.259 90.4671 152.562 90.4185C153.368 90.2895 154.194 89.7542 154.496 89.1651C154.716 88.7361 154.766 88.2772 154.824 86.1714L154.893 83.6844H155.967H157.041L157.077 87.0096C157.119 90.8654 156.944 90.5143 158.788 90.446L159.861 90.406L159.897 87.0808C159.938 83.2666 159.799 83.5993 161.339 83.6552L162.144 83.6844L162.18 86.9487L162.216 90.2129L162.565 90.3455C162.767 90.4227 164.159 90.4632 165.886 90.4422L168.859 90.406L168.898 89.419C168.923 88.807 168.878 88.36 168.781 88.2427C168.66 88.0973 168.208 88.0535 166.824 88.0535C164.883 88.0535 164.707 87.9852 164.992 87.3442C165.113 87.0742 165.219 87.0529 166.466 87.0492C168.186 87.0441 168.279 86.9772 168.226 85.7806L168.187 84.8943L166.911 84.8608C165.185 84.8155 165.031 84.7711 165.033 84.3204C165.037 83.68 165.121 83.6513 166.949 83.6684C168.918 83.6868 168.92 83.6852 168.924 82.5784C168.927 81.3998 169.436 81.4673 160.659 81.4823C154.089 81.4934 152.968 81.5237 152.691 81.698L152.37 81.901L152.466 84.9018C152.58 88.4967 152.522 88.719 151.465 88.7236C150.875 88.7262 150.493 88.4663 150.21 87.8697C149.928 87.2743 149.933 86.8621 150.226 86.5375C150.43 86.3122 150.461 85.9845 150.461 84.094C150.461 82.441 150.417 81.8566 150.277 81.6885C150.112 81.4896 149.603 81.4663 145.435 81.4663C141.547 81.4663 140.734 81.4989 140.516 81.6636C140.177 81.9204 139.95 81.9187 139.689 81.6577C139.52 81.4883 139.286 81.461 138.524 81.5219C137.999 81.5637 137.419 81.5942 137.234 81.5895C132.96 81.4804 130.5 81.4802 130.214 81.5893C129.935 81.6956 129.849 81.8409 129.775 82.3332C129.671 83.0317 129.34 83.1655 129.052 82.6261C128.751 82.0631 126.917 81.2038 126.021 81.2059C125.8 81.2064 125.226 81.4071 124.746 81.6519ZM13.8018 81.5469C13.362 81.683 13.2879 82.3688 13.2879 86.299C13.2879 89.1155 13.3313 90.194 13.449 90.3119C13.5418 90.4048 13.9862 90.4733 14.4965 90.4733C15.0067 90.4733 15.4511 90.4048 15.5439 90.3119C15.6462 90.2095 15.705 89.6926 15.705 88.8962C15.705 87.498 15.7567 87.4199 16.5804 87.5746C17.0018 87.6537 17.0917 87.7526 17.4395 88.5207C17.6533 88.9925 17.8696 89.568 17.9204 89.7995C17.9808 90.0748 18.1277 90.2642 18.3448 90.3469C18.7163 90.4883 19.9083 90.5128 20.3715 90.3886C20.8345 90.2643 20.7563 89.7145 20.0693 88.2624C19.737 87.5597 19.4651 86.9063 19.4651 86.8105C19.4651 86.7145 19.7273 86.3501 20.0477 86.0007C20.8589 85.1162 21.0402 84.5155 20.7525 83.6669C20.4116 82.6623 19.8832 81.9905 19.2636 81.774C18.725 81.5858 14.2745 81.4007 13.8018 81.5469ZM21.9726 81.6281C21.7475 81.7986 21.7217 82.1416 21.6604 85.7739C21.6158 88.4184 21.6413 89.8589 21.7372 90.1104L21.8807 90.4868L25.1094 90.4465C27.7378 90.4136 28.3602 90.3701 28.457 90.2131C28.6666 89.873 28.7755 88.4478 28.605 88.2765C28.5082 88.1793 27.7071 88.0954 26.4753 88.0535L24.5008 87.9862L24.4592 87.6256C24.3963 87.0804 24.7772 86.9514 26.3257 86.9931C27.1182 87.0143 27.716 86.9722 27.7989 86.8893C27.8769 86.8112 27.9205 86.3411 27.8981 85.822L27.8579 84.8943L26.3137 84.8271C25.4643 84.7901 24.6939 84.7109 24.6015 84.6511C24.388 84.5128 24.384 83.9895 24.5948 83.7785C24.7026 83.6705 25.3021 83.6172 26.4077 83.6172C27.8804 83.6172 28.0885 83.588 28.3279 83.3483C28.6732 83.0027 28.6925 82.1312 28.3615 81.8364C28.022 81.5341 22.3413 81.3489 21.9726 81.6281ZM29.6944 81.6394C29.5741 81.7846 29.5418 82.9305 29.5682 86.1203L29.6037 90.406L30.6218 90.4449C31.1818 90.4662 31.8013 90.4224 31.9983 90.3474C32.3516 90.213 32.3565 90.1932 32.3565 88.9418C32.3565 88.048 32.4062 87.6549 32.5244 87.6126C32.6168 87.5797 33.1455 87.5803 33.6994 87.614C35.0404 87.6955 35.2117 87.5664 35.2804 86.4229C35.3566 85.1525 35.2456 85.0563 33.6857 85.0411L32.4237 85.0287L32.3827 84.3902C32.354 83.9414 32.3939 83.7453 32.517 83.7304C32.6134 83.7187 33.2965 83.6968 34.0351 83.6814C34.7737 83.6663 35.5593 83.6305 35.7808 83.6019L36.1837 83.55L36.2197 86.8327C36.2432 88.979 36.3071 90.1774 36.4041 90.2943C36.6088 90.5414 38.8447 90.5445 39.049 90.298C39.129 90.2016 39.2119 89.5512 39.2333 88.8528L39.2723 87.5829L39.6907 87.5422C40.022 87.5098 40.1829 87.5891 40.4629 87.9221C40.6574 88.1536 40.817 88.4744 40.8174 88.6352C40.8179 88.7958 40.9086 89.1006 41.0188 89.3123C41.1292 89.5242 41.2194 89.7769 41.2194 89.8741C41.2194 90.2752 41.6344 90.4732 42.4711 90.4714C43.6773 90.4687 43.9052 90.3821 43.9052 89.9258C43.9052 89.716 43.6634 88.9944 43.368 88.3223C43.0726 87.6503 42.8309 86.992 42.8309 86.8594C42.8309 86.7269 43.0575 86.378 43.3344 86.0843C43.787 85.6042 44.1737 84.7522 44.1737 84.2354C44.1737 83.8795 43.6385 82.7885 43.2666 82.3864C42.5208 81.5801 42.5205 81.5801 35.9071 81.5091C30.7268 81.4536 29.8329 81.4723 29.6944 81.6394ZM45.3072 81.6569C45.0607 81.8373 45.0444 82.0686 45.0075 85.9437C44.9608 90.8358 44.8548 90.523 46.535 90.4525C47.1444 90.427 47.6865 90.3624 47.7397 90.3091C47.793 90.2557 47.8336 88.352 47.8299 86.0787C47.8234 81.9861 47.8204 81.9428 47.5279 81.7057C47.1553 81.4036 45.6973 81.3716 45.3072 81.6569ZM57.3674 81.6049C57 81.7527 57.0175 81.4829 57.0578 86.3728C57.0808 89.1476 57.1348 90.2996 57.2454 90.3701C57.5235 90.5473 63.9746 90.493 64.1555 90.3119C64.2463 90.2211 64.3167 89.7854 64.3167 89.3132C64.3167 88.068 64.2889 88.0535 61.9044 88.0535C60.2183 88.0535 59.9016 88.0212 59.833 87.8421C59.7884 87.7258 59.8142 87.5141 59.8905 87.3716C60.0139 87.1407 60.1856 87.1122 61.4678 87.1104C62.2591 87.1092 62.9931 87.0535 63.0987 86.9866C63.3726 86.813 63.4552 85.3742 63.2102 85.0471C63.0448 84.8267 62.8433 84.7991 61.5285 84.8171C60.1694 84.8357 60.0218 84.8138 59.8934 84.5735C59.8083 84.4144 59.7973 84.1872 59.8658 84.0019C59.9769 83.7012 60.0222 83.6943 61.9394 83.6895C63.3494 83.6859 63.9478 83.636 64.0721 83.5119C64.3234 83.2612 64.3027 81.759 64.0458 81.5965C63.7912 81.4353 57.77 81.4429 57.3674 81.6049ZM65.391 81.5595C64.8777 81.7432 64.8538 81.9455 64.8538 86.1135C64.8538 89.4415 64.8879 90.1998 65.0432 90.3287C65.1589 90.425 65.5894 90.4706 66.151 90.4461L67.0695 90.406L67.1081 89.0902C67.1438 87.8696 67.1686 87.7643 67.4525 87.6347C67.645 87.5469 67.9272 87.539 68.213 87.6131C68.5753 87.707 68.6909 87.8217 68.7833 88.1786C68.847 88.4248 68.9792 88.7545 69.0771 88.9111C69.175 89.0679 69.2944 89.4209 69.3425 89.6955C69.3907 89.9702 69.5032 90.2418 69.5927 90.2989C69.8316 90.4516 74.4057 90.4733 74.6861 90.3231C74.8177 90.2525 74.9253 90.0731 74.9253 89.9241C74.9253 89.5474 75.2746 88.9094 75.5356 88.8091C75.8895 88.6732 77.0355 88.7138 77.3885 88.8748C77.7344 89.0327 78.0139 89.5072 78.0139 89.9371C78.0139 90.3138 78.4225 90.4733 79.3882 90.4733C80.3009 90.4733 80.5653 90.3345 80.5653 89.8558C80.5653 89.3989 79.8133 86.556 79.5729 86.1042C79.4549 85.8824 79.3581 85.6142 79.3575 85.5081C79.3571 85.402 79.2414 85.0693 79.1003 84.7687C78.9593 84.4681 78.8158 84.0104 78.7815 83.7516C78.7471 83.4928 78.6419 83.0694 78.5477 82.8106C78.4535 82.5518 78.3202 82.1794 78.2513 81.9831C78.1016 81.5562 77.8331 81.4706 76.6383 81.4681L75.7328 81.4663L75.329 82.0242C75.107 82.3311 74.9249 82.7091 74.9245 82.8644C74.924 83.0196 74.8255 83.3281 74.7055 83.55C74.5854 83.7718 74.4424 84.165 74.3875 84.4238C74.2011 85.3014 73.3767 87.9089 72.9 89.1289C72.5633 89.9901 72.224 90.0034 71.8715 89.1694C71.7216 88.8144 71.5594 88.3933 71.5112 88.2336C71.4629 88.0739 71.3352 87.87 71.2272 87.7803C70.9178 87.5231 70.9796 86.6411 71.3331 86.2682C72.1437 85.4132 72.3739 84.9603 72.3739 84.2197C72.3739 83.7245 72.1319 83.0794 71.9462 83.0794C71.8822 83.0794 71.7774 82.9408 71.713 82.7713C71.6487 82.6018 71.3384 82.2843 71.0233 82.0656C70.5202 81.7162 70.2942 81.6573 69.1629 81.5805C67.5812 81.4732 65.6621 81.4626 65.391 81.5595ZM79.8783 81.7507C79.6425 81.9868 79.605 82.1494 79.6585 82.7061C79.731 83.4616 79.8839 83.6122 80.5821 83.6152C80.8499 83.6162 81.2577 83.655 81.4885 83.7012L81.9082 83.7852V86.4916C81.9082 87.9801 81.8543 89.386 81.7884 89.616C81.589 90.3121 81.7505 90.406 83.1452 90.406H84.3925L84.4285 87.1904C84.4529 85.0198 84.5147 83.9144 84.6186 83.7891C84.7324 83.6517 84.9555 83.6263 85.4752 83.6913C86.0885 83.768 86.2157 83.7413 86.4755 83.4811C86.7297 83.2267 86.7642 83.0755 86.7121 82.4468C86.6767 82.0173 86.5722 81.6604 86.4618 81.5903C86.3578 81.5243 84.8978 81.4695 83.2175 81.4683C80.2843 81.4664 80.1512 81.4775 79.8783 81.7507ZM87.4139 81.5977C87.2416 81.7068 87.2125 82.3536 87.2125 86.0656V90.406H88.4597C89.4008 90.406 89.7363 90.3585 89.8264 90.2125C89.9458 90.0187 89.8848 82.8533 89.757 82.0506C89.7199 81.8174 89.5955 81.5906 89.4807 81.5465C89.1505 81.4196 87.6362 81.4571 87.4139 81.5977ZM99.4487 81.774C99.1598 82.0633 99.1359 82.2231 99.0522 84.429C98.9291 87.6822 98.9439 89.9667 99.0897 90.1974C99.2852 90.507 100.887 90.5631 101.325 90.2756L101.674 90.0468L101.628 88.3444C101.583 86.7273 101.594 86.6419 101.844 86.6419C102.037 86.6419 102.244 86.9121 102.618 87.6502C102.898 88.2047 103.247 88.8399 103.393 89.0617C103.54 89.2835 103.76 89.6568 103.882 89.8914C104.005 90.126 104.232 90.352 104.387 90.3937C104.886 90.5276 105.887 90.4784 106.053 90.3119C106.3 90.0643 106.282 81.9587 106.033 81.7523C105.744 81.5117 105.062 81.4263 104.753 81.592C104.485 81.7355 104.468 81.8487 104.468 83.4875C104.468 85.0919 104.449 85.2304 104.221 85.2304C103.968 85.2304 103.528 84.8392 103.528 84.6137C103.528 84.4118 102.845 83.1784 102.511 82.7776C102.342 82.5748 102.167 82.2933 102.123 82.1521C101.908 81.4743 100.015 81.2068 99.4487 81.774ZM110.981 81.6468C110.725 81.8386 110.711 82.0293 110.672 85.9419C110.624 90.7479 110.543 90.4733 112.007 90.4733C113.586 90.4733 113.466 90.8374 113.463 86.0659C113.462 83.741 113.407 81.8499 113.336 81.7381C113.152 81.4465 111.343 81.3763 110.981 81.6468ZM4.04899 83.2408C3.81237 83.4776 3.85024 83.6693 4.19858 83.9971C4.56867 84.345 4.90237 84.3723 5.07225 84.0686C5.25649 83.739 5.10179 83.3437 4.73358 83.2035C4.31192 83.043 4.24276 83.0468 4.04899 83.2408ZM67.506 83.6196C67.3401 83.7222 67.271 83.9379 67.271 84.3521V84.9392L67.949 85.0848C68.8393 85.2759 68.8449 85.2754 69.2982 84.9524C69.7837 84.6062 69.8149 84.1099 69.3693 83.8176C68.9638 83.5516 67.8138 83.4294 67.506 83.6196ZM16.3581 83.9401C16.26 84.1553 16.2535 84.3906 16.3383 84.6455C16.4403 84.9514 16.5686 85.0444 16.9808 85.1115C17.4184 85.1828 17.5431 85.1445 17.809 84.8572C17.9813 84.6711 18.1222 84.4102 18.1222 84.2774C18.1222 83.9266 17.6032 83.6172 17.0151 83.6172C16.6069 83.6172 16.4757 83.6817 16.3581 83.9401ZM39.7423 83.7357C39.33 83.8086 39.267 83.8729 39.23 84.259C39.1922 84.6515 39.239 84.7205 39.6621 84.8975C40.1834 85.1156 40.6591 85.1493 40.9153 84.9864C41.2043 84.8026 41.2699 84.0902 41.0208 83.8409C40.7911 83.6109 40.5569 83.5916 39.7423 83.7357ZM93.8998 83.8192C93.4756 84.1167 93.3381 84.7401 93.3811 86.1714C93.4308 87.8277 93.404 87.7011 93.8045 88.1775C94.6415 89.1734 95.4365 88.393 95.5698 86.4446C95.715 84.3254 94.9323 83.0952 93.8998 83.8192ZM76.2088 85.3984C76.0091 86.0563 76.0307 86.2132 76.3636 86.522C76.5543 86.6989 76.7618 86.8436 76.8249 86.8436C76.993 86.8436 76.9647 85.9704 76.7837 85.5728C76.6196 85.2122 76.2952 85.1138 76.2088 85.3984ZM3.01444 87.2959C2.77689 87.6589 2.9195 88.2359 3.32236 88.5424C3.62276 88.7708 4.44231 88.7736 4.75144 88.5474C4.9808 88.3796 4.96858 88.3383 4.54208 87.8416C3.71179 86.8743 3.3703 86.7524 3.01444 87.2959Z" fill="#2894CC"/>
</svg>
