<svg width="135" height="141" viewBox="0 0 135 141" fill="none" xmlns="http://www.w3.org/2000/svg">
<path fill-rule="evenodd" clip-rule="evenodd" d="M0.254433 0.277512C-0.0583071 0.592026 -0.0778055 8.4326 0.231935 9.24512C0.570174 10.1328 5.82076 10.1132 6.16012 9.22285C6.6716 7.88022 6.04312 7.19946 4.29155 7.19946C3.06384 7.19946 2.62923 7.05145 2.62923 6.63311C2.62923 6.24157 3.01997 6.06676 3.89594 6.06676C5.49451 6.06676 6.22049 5.29161 5.64188 4.20308C5.34302 3.64051 4.85778 3.42378 3.89707 3.42378C1.9955 3.42378 2.46274 2.51045 4.43968 2.36395C5.895 2.25559 6.00412 2.17026 6.00412 1.13686V0.0256749H3.25434C1.74164 0.0256749 0.391679 0.138945 0.254433 0.277512ZM16.7715 0.259391C16.6242 0.407775 16.5038 2.04981 16.5038 3.90858V7.28819L17.9595 8.75428C19.5802 10.3861 20.9793 10.6425 22.8745 9.65592C24.7936 8.65649 25.1285 7.7745 25.1285 3.71715V0.0256749H23.8161H22.5036V3.20819C22.5036 6.39486 22.0611 7.58647 20.8833 7.57137C19.7797 7.55664 19.5318 6.88193 19.4257 3.60011L19.3162 0.214459L18.1777 0.102322C17.5515 0.0404011 16.9189 0.111384 16.7715 0.259391ZM36.0857 4.83966L36.1907 9.65365H37.3156C38.345 9.65365 38.4503 9.53321 38.5568 8.23777C38.621 7.45923 38.8096 6.82189 38.9757 6.82189C39.1422 6.82189 39.7249 7.50151 40.2709 8.33216C41.1135 9.61401 41.4611 9.84243 42.5707 9.84243C43.2896 9.84243 43.8779 9.7118 43.8779 9.55246C43.8779 9.39313 43.4339 8.60439 42.8909 7.80017C41.9445 6.39789 41.9291 6.29481 42.516 5.29426C43.3488 3.8746 43.2847 2.21595 42.3506 1.02057C41.6351 0.104587 41.3516 0.0256749 38.7773 0.0256749H35.9807L36.0857 4.83966ZM54.3333 1.49139C53.0272 2.80646 52.8776 3.15307 52.8776 4.86081C52.8776 7.09676 54.0172 8.76788 56.1558 9.66762C57.8935 10.3986 58.6247 10.3654 60.3568 9.47544C62.5609 8.34311 63.3795 7.06844 63.3653 4.78869C63.3525 2.73774 63.0799 2.20424 61.358 0.866517C60.5161 0.212192 59.7785 0.0256749 58.0326 0.0256749C55.9267 0.0256749 55.7002 0.115537 54.3333 1.49139ZM72.002 0.306964C72.002 0.667919 74.3614 6.67389 75.2659 8.61534C76.0913 10.3873 77.3925 10.3034 78.2032 8.42656C78.5396 7.64801 78.9693 6.7158 79.1583 6.35522C79.3473 5.99464 79.5018 5.52533 79.5018 5.31275C79.5018 5.09981 79.8258 4.20573 80.2214 3.32524C80.6174 2.44513 81.0542 1.3313 81.1922 0.850282C81.4255 0.0362461 81.3478 -0.0154807 80.0661 0.0951466C78.7792 0.206529 78.6457 0.340565 78.0146 2.15138C76.7966 5.64615 76.7152 5.66918 75.7159 2.80117C74.8347 0.272603 74.7829 0.211817 73.4082 0.0974137C72.635 0.0328496 72.002 0.127242 72.002 0.306964ZM91.2089 4.83966L91.3139 9.65365L94.2452 9.76428L97.1761 9.87528L97.0576 8.63157C96.9455 7.46074 96.8457 7.38145 95.345 7.27233C93.2807 7.12168 93.1401 6.16341 95.1575 5.99502C96.4441 5.88779 96.5637 5.78169 96.5637 4.74527C96.5637 3.70545 96.4464 3.60275 95.1343 3.49401C93.2166 3.33505 93.5267 2.5146 95.5618 2.36395C97.0171 2.25559 97.1262 2.17026 97.1262 1.13686V0.0256749H94.1151H91.1039L91.2089 4.83966ZM107.876 0.277512C107.563 0.592026 107.544 8.4326 107.853 9.24512C107.988 9.59815 108.522 9.84243 109.159 9.84243C110.422 9.84243 110.86 8.7641 110.463 6.63047C110.327 5.90516 110.366 5.31162 110.549 5.31162C110.731 5.31162 111.667 6.33106 112.627 7.57703C113.929 9.26476 114.612 9.84243 115.306 9.84243C116.526 9.84243 116.684 9.12166 116.548 4.17892L116.438 0.214459H115.126H113.813L113.776 2.20273C113.755 3.29654 113.66 4.27067 113.563 4.36733C113.467 4.46436 112.64 3.53403 111.726 2.29977C110.459 0.589762 109.833 0.0524826 109.095 0.040778C108.562 0.0324715 108.013 0.138945 107.876 0.277512ZM126.375 1.12289C126.375 2.14232 126.502 2.25635 127.748 2.36282L129.12 2.47986L129.039 5.50758C128.938 9.25267 129.14 9.84243 130.527 9.84243H131.598L131.705 6.16115L131.813 2.47986L133.125 2.29108C134.225 2.13288 134.438 1.94938 134.438 1.15838C134.438 0.216724 134.428 0.214082 130.406 0.107231L126.375 0V1.12289ZM38.6281 3.235C38.6281 4.05243 38.7796 4.20988 39.4718 4.11096C40.0257 4.03167 40.3155 3.73075 40.3155 3.235C40.3155 2.73925 40.0257 2.43833 39.4718 2.35904C38.7796 2.26012 38.6281 2.41757 38.6281 3.235ZM56.5551 2.95182C55.678 3.97994 55.4868 4.86345 55.9289 5.84097C56.467 7.02993 57.8695 7.65707 59.0124 7.21947C60.0065 6.83888 60.3774 6.12301 60.3774 4.58405C60.3774 2.59729 57.7975 1.49555 56.5551 2.95182ZM0.975159 17.4229C-0.247677 18.8859 -0.329799 21.0173 0.781665 22.44C1.45139 23.2978 1.84101 23.4349 3.6057 23.4349C5.1049 23.4349 5.71201 23.2789 5.87475 22.8523C6.18674 22.0333 5.8815 21.8544 4.83979 22.2459C3.86894 22.6106 2.27449 22.1825 1.79901 21.4289C1.26165 20.5782 1.50652 18.9018 2.28237 18.1206C2.9161 17.4825 3.33383 17.3836 4.5323 17.5875C5.34189 17.7249 6.00412 17.6868 6.00412 17.5025C6.00412 16.7549 5.01753 16.2611 3.52508 16.2611C2.222 16.2611 1.77613 16.4642 0.975159 17.4229ZM7.75419 16.5129C7.61657 16.6511 7.50408 18.2652 7.50408 20.0998V23.4349H9.78513C11.4422 23.4349 12.0242 23.3057 11.9124 22.9629C11.8277 22.7035 11.1388 22.4381 10.3814 22.3739C9.32577 22.284 9.00403 22.0911 9.00403 21.5482C9.00403 21.0252 9.32239 20.8089 10.2197 20.7213C11.9533 20.5529 12.1217 19.3764 10.4357 19.2129C8.79479 19.054 8.41642 17.7744 10.0079 17.7657C11.3125 17.7585 12.1866 17.2416 11.8423 16.6809C11.5667 16.232 8.17155 16.0923 7.75419 16.5129ZM13.6794 17.1185C13.562 17.5901 13.5166 19.1616 13.5785 20.611C13.6816 23.0158 13.7653 23.2567 14.5351 23.3669C15.275 23.4726 15.3788 23.3212 15.3788 22.1398C15.3788 20.4506 15.7036 20.4453 16.8334 22.116C17.3239 22.8413 18.0412 23.4349 18.4271 23.4349C19.3177 23.4349 19.3072 23.2699 18.3334 21.9439C17.5886 20.929 17.5766 20.8055 18.1459 19.9873C18.8763 18.9373 18.9075 17.8182 18.2317 16.9218C17.8714 16.4438 17.2024 16.2611 15.8134 16.2611C14.1294 16.2611 13.8669 16.3668 13.6794 17.1185ZM19.3818 16.5095C18.9551 16.9392 19.9312 17.7714 20.8619 17.7714C21.7217 17.7714 21.7536 17.8733 21.7536 20.6031C21.7536 23.183 21.8204 23.4349 22.5036 23.4349C23.1865 23.4349 23.2536 23.183 23.2536 20.628C23.2536 17.8491 23.2637 17.8204 24.2814 17.7019C24.9016 17.6301 25.3591 17.3202 25.4341 16.9218C25.544 16.3377 25.2148 16.2611 22.5936 16.2611C20.9628 16.2611 19.5176 16.3728 19.3818 16.5095ZM27.0035 19.848C27.0035 23.1136 27.0713 23.4772 27.6597 23.3631C28.2267 23.2533 28.3159 22.7741 28.3159 19.848C28.3159 16.9218 28.2267 16.4427 27.6597 16.3328C27.0713 16.2188 27.0035 16.5824 27.0035 19.848ZM30.5373 16.7663C30.4312 17.0445 30.3945 18.616 30.4552 20.2588C30.555 22.9572 30.6382 23.2461 31.3158 23.2461C31.8963 23.2461 32.0684 22.9905 32.0778 22.1134C32.0879 21.1955 32.2657 20.9592 33.0153 20.8678C34.6487 20.6684 35.0499 20.4362 34.5793 19.9624C34.3457 19.7272 33.7694 19.507 33.2976 19.4731C32.7393 19.4327 32.4003 19.1348 32.3242 18.6171C32.2285 17.9647 32.4292 17.8012 33.4461 17.7026C34.2677 17.623 34.7263 17.3602 34.8088 16.9218C34.9153 16.3562 34.6303 16.2611 32.8315 16.2611C31.4219 16.2611 30.6663 16.4276 30.5373 16.7663ZM37.0033 16.5129C36.8656 16.6511 36.7531 18.2652 36.7531 20.0998C36.7531 22.6877 36.8694 23.4349 37.2718 23.4349C37.9257 23.4349 38.243 22.2637 38.243 19.848C38.243 16.9634 37.7832 15.7272 37.0033 16.5129ZM40.3684 17.4882C40.2754 18.1629 40.1997 19.225 40.1997 19.848C40.1997 20.471 40.2754 21.5331 40.3684 22.2078L40.5371 23.4349H42.7582C44.5784 23.4349 44.9403 23.3326 44.7636 22.8685C44.6301 22.5189 44.0605 22.3022 43.2753 22.3022C42.5756 22.3022 42.003 22.1323 42.003 21.9246C42.003 21.7169 41.9704 21.4194 41.9306 21.2639C41.8905 21.1083 42.3525 20.8946 42.9569 20.7889C44.4513 20.5284 44.6631 19.3783 43.2472 19.2144C41.7285 19.0385 41.5594 17.7714 43.0544 17.7714C44.1573 17.7714 45.2185 16.9815 44.7498 16.5095C44.614 16.3728 43.6105 16.2611 42.5201 16.2611C40.5675 16.2611 40.5345 16.28 40.3684 17.4882ZM46.753 16.5129C46.6153 16.6511 46.5028 18.2652 46.5028 20.0998V23.4349H48.6826C50.5812 23.4349 50.9922 23.2982 51.87 22.3758C54.2272 19.8986 52.3868 16.2611 48.7756 16.2611C47.8007 16.2611 46.8902 16.3744 46.753 16.5129ZM57.2571 17.2801C57.1532 17.862 57.0959 19.4398 57.1292 20.7866C57.178 22.7481 57.3152 23.2601 57.8192 23.3578C58.2632 23.4439 58.4837 23.177 58.5692 22.4502C58.6626 21.655 58.9884 21.3212 60.0024 20.9822C60.8094 20.7126 61.5113 20.1387 61.8248 19.4919C62.2782 18.5563 62.2531 18.3298 61.5995 17.4448C61.025 16.6673 60.491 16.4249 59.1549 16.3362C57.5425 16.229 57.4349 16.2826 57.2571 17.2801ZM63.7523 19.848V23.4349H66.0333C67.6904 23.4349 68.2724 23.3057 68.1606 22.9629C68.0759 22.7035 67.387 22.4381 66.6296 22.3739C65.574 22.284 65.2522 22.0911 65.2522 21.5482C65.2522 21.0249 65.5706 20.8089 66.4709 20.7213C68.0478 20.5684 68.1171 19.5523 66.5692 19.2824C65.0014 19.009 64.7842 17.7714 66.3037 17.7714C67.4065 17.7714 68.4678 16.9815 67.999 16.5095C67.8633 16.3728 66.8523 16.2611 65.7521 16.2611H63.7523V19.848ZM69.9111 16.7663C69.805 17.0445 69.7682 18.6141 69.829 20.255C69.9212 22.7432 70.0483 23.2589 70.5958 23.3639C71.1219 23.4651 71.252 23.2223 71.252 22.1409C71.252 20.446 71.6462 20.4396 72.914 22.1134C73.49 22.8738 74.2448 23.4349 74.6918 23.4349C75.429 23.4349 75.4373 23.3918 74.8549 22.5853C73.8552 21.2012 73.7348 20.73 74.1927 19.9918C74.7578 19.0808 74.7492 17.2903 74.1769 16.7142C73.5481 16.081 70.1563 16.1225 69.9111 16.7663ZM77.127 16.5129C76.9893 16.6511 76.8769 18.2652 76.8769 20.0998C76.8769 22.8126 76.9819 23.4349 77.4393 23.4349C77.8323 23.4349 78.0018 23.0362 78.0018 22.1134C78.0018 20.8674 78.0731 20.7919 79.2517 20.7919C79.9394 20.7919 80.6129 20.6801 80.7486 20.5435C81.2173 20.0715 80.1561 19.2816 79.0533 19.2816C77.508 19.2816 77.7393 18.0122 79.3177 17.8325C80.5859 17.6879 81.4697 17.0959 81.163 16.596C80.9252 16.2082 77.4993 16.138 77.127 16.5129ZM83.0975 17.4229C81.8747 18.8859 81.7926 21.0173 82.904 22.44C83.5831 23.3095 83.954 23.4349 85.8458 23.4349C88.1066 23.4349 88.6346 23.1256 89.6103 21.2287C90.1889 20.1036 89.8856 18.8946 88.6556 17.4229C87.8186 16.4212 87.4354 16.2611 85.8766 16.2611C84.3177 16.2611 83.9345 16.4212 83.0975 17.4229ZM93.1255 16.733C92.9368 16.9928 92.5956 17.6298 92.3669 18.1489C92.1381 18.6681 91.5966 19.8982 91.1639 20.8821C90.7308 21.8665 90.3764 22.8432 90.3764 23.0532C90.3764 23.8211 91.5299 23.4077 91.9446 22.491C92.2769 21.7566 92.6515 21.547 93.6321 21.547C94.6127 21.547 94.9873 21.7566 95.3195 22.491C95.7193 23.3741 97.1262 23.8442 97.1262 23.0951C97.1262 22.4049 94.1488 16.2611 93.8143 16.2611C93.6238 16.2611 93.3141 16.4737 93.1255 16.733ZM98.4267 17.1185C98.3093 17.5901 98.2639 19.1616 98.3258 20.611C98.4263 22.9565 98.5212 23.2461 99.1886 23.2461C99.8434 23.2461 99.9386 22.9942 99.9386 21.2631C99.9386 20.1727 100.011 19.2805 100.099 19.2809C100.187 19.2812 100.707 19.8223 101.256 20.4834L102.252 21.6852L103.135 20.4834C103.62 19.8223 104.112 19.2812 104.228 19.2809C104.344 19.2805 104.438 20.1693 104.438 21.2555C104.438 22.836 104.57 23.257 105.095 23.3605C105.681 23.4764 105.751 23.1256 105.751 20.0866C105.751 17.9058 105.594 16.5858 105.314 16.4117C104.898 16.1527 103.648 17.3311 102.773 18.8074C102.422 19.3994 102.229 19.2975 100.972 17.8601C99.3908 16.0515 98.7398 15.862 98.4267 17.1185ZM109.925 16.7682C109.469 17.3205 107.251 22.5816 107.251 23.1094C107.251 23.8332 108.42 23.3722 108.819 22.491C109.151 21.7566 109.526 21.547 110.507 21.547C111.487 21.547 111.862 21.7566 112.194 22.491C112.594 23.3741 114.001 23.8442 114.001 23.0951C114.001 22.4049 111.023 16.2611 110.689 16.2611C110.498 16.2611 110.154 16.4891 109.925 16.7682ZM115.301 17.1185C115.184 17.5901 115.138 19.1616 115.2 20.611C115.301 22.9565 115.396 23.2461 116.063 23.2461C116.708 23.2461 116.813 22.9942 116.813 21.4519C116.813 20.4653 116.982 19.6656 117.188 19.6747C117.394 19.6837 118.208 20.5336 118.997 21.5633C119.837 22.6601 120.729 23.4349 121.153 23.4349C121.812 23.4349 121.875 23.1404 121.875 20.059C121.875 16.5903 121.558 15.8072 120.507 16.6858C120.081 17.0415 119.97 17.6173 120.102 18.7949C120.202 19.6856 120.161 20.4143 120.011 20.4143C119.86 20.4143 118.997 19.4798 118.092 18.3377C116.305 16.0836 115.633 15.7895 115.301 17.1185ZM124.141 17.6226C123.112 18.8021 122.954 19.2276 123.134 20.3384C123.25 21.0626 123.726 22.0632 124.191 22.5616C124.918 23.3412 125.327 23.4522 127.112 23.3567C128.658 23.2744 129.188 23.1015 129.188 22.6797C129.188 22.2399 128.8 22.1413 127.449 22.238C125.981 22.3437 125.616 22.2278 125.105 21.4934C124.251 20.2656 124.353 19.1748 125.417 18.1689C126.17 17.4565 126.577 17.3477 127.699 17.5599C128.886 17.7838 129.047 17.7283 128.935 17.1336C128.837 16.613 128.395 16.4231 127.083 16.337C125.504 16.2335 125.258 16.3411 124.141 17.6226ZM130.676 17.1185C130.558 17.5901 130.513 19.1616 130.575 20.611L130.688 23.2461L132.844 23.3594C134.59 23.4511 135 23.3612 135 22.8874C135 22.4702 134.623 22.3022 133.688 22.3022C132.639 22.3022 132.375 22.1549 132.375 21.5708C132.375 21.0218 132.679 20.8104 133.594 20.7213C135.171 20.5684 135.24 19.5523 133.692 19.2824C132.058 18.9973 131.969 17.8574 133.568 17.7026C134.39 17.623 134.848 17.3602 134.931 16.9218C135.037 16.357 134.753 16.2611 132.972 16.2611C131.119 16.2611 130.866 16.3559 130.676 17.1185ZM84.4475 18.1636C82.8287 19.6818 83.7946 22.3022 85.9729 22.3022C88.1347 22.3022 89.0208 19.2035 87.2022 18.0036C85.9879 17.2024 85.4378 17.2345 84.4475 18.1636ZM15.3788 18.7153C15.3788 19.7676 16.1532 19.973 16.8653 19.1095C17.4323 18.4212 17.064 17.7714 16.1067 17.7714C15.5802 17.7714 15.3788 18.0326 15.3788 18.7153ZM48.0028 20.0368C48.0028 22.1425 48.0632 22.3022 48.8566 22.3022C50.204 22.3022 51.3777 21.2646 51.3777 20.0738C51.3777 18.7787 50.3393 17.7714 49.0044 17.7714C48.0302 17.7714 48.0028 17.8333 48.0028 20.0368ZM58.7743 18.5046C58.5497 19.3707 58.7683 19.6592 59.6499 19.6592C60.3369 19.6592 60.8975 18.6907 60.5439 18.1149C60.1625 17.4935 58.9689 17.7566 58.7743 18.5046ZM71.3945 18.3196C71.1294 19.0154 71.5156 19.6592 72.1985 19.6592C72.7932 19.6592 73.6025 18.3758 73.2387 18.0096C72.7989 17.5667 71.6049 17.7676 71.3945 18.3196ZM93.229 19.1238C92.8453 20.1308 92.9687 20.4143 93.7914 20.4143C94.3577 20.4143 94.517 20.2452 94.3539 19.817C94.2287 19.4885 94.1263 19.0638 94.1263 18.8731C94.1263 18.3003 93.4734 18.4827 93.229 19.1238ZM6.37911 34.3186C6.37911 34.6188 13.3475 47.976 16.7543 54.2066C17.6629 55.8679 18.9435 58.2915 19.6004 59.5923L20.7948 61.957L32.5582 61.8577L44.3212 61.758L45.5264 58.7031C47.9623 52.5283 52.8169 48.7293 58.9101 48.2301C61.3869 48.027 62.1642 48.1316 64.9099 49.0385C69.0925 50.4193 71.6904 52.4989 73.961 56.2833C76.2383 60.0789 77.0407 63.5175 76.6901 67.9765L76.4314 71.2697L64.4321 71.4887C57.8327 71.6091 52.3568 71.7847 52.2638 71.8783C52.1704 71.9723 52.5285 73.1315 53.0595 74.4548C54.9232 79.1 59.2239 82.3668 64.1794 82.901C66.4664 83.1476 66.8336 83.0732 69.8725 81.7441C72.8255 80.4529 73.3223 80.0768 75.3349 77.6075C77.1798 75.3444 77.7191 74.3317 78.5684 71.534C79.4654 68.5818 79.5655 67.7439 79.4013 64.5897C79.0368 57.604 75.9975 51.9729 70.5797 48.2456C66.9682 45.7608 63.5472 44.8097 59.1924 45.0793C56.3526 45.2553 55.5547 45.4765 52.8371 46.8418C48.8293 48.8554 46.141 51.4836 44.101 55.3824L42.5433 58.3599L38.8313 58.4686C36.7895 58.5286 34.9243 58.5022 34.6862 58.4105C34.003 58.1466 36.1007 52.1848 37.9182 49.2243C47.96 32.8699 70.4717 32.6109 80.9789 48.7289C85.013 54.9168 86.6757 61.4167 86.1957 69.1206C85.7821 75.7631 83.5348 80.9516 79.1452 85.3994C74.9532 89.6474 70.6352 91.385 64.2529 91.3925C60.8697 91.3967 60.0909 91.2623 57.3239 90.1983C51.2022 87.8445 46.4222 82.6439 44.1033 75.8133L42.9206 72.3299L35.2498 72.4367C31.0308 72.4953 27.4714 72.6652 27.3398 72.8143C27.2086 72.9631 29.376 77.1628 32.1569 82.1466C34.9375 87.1305 37.6801 92.0578 38.2512 93.0961C38.8223 94.1344 42.4492 100.676 46.3108 107.632C50.1728 114.589 55.0297 123.339 57.1045 127.077C59.1793 130.815 61.4922 135.022 62.2445 136.427C62.9967 137.83 63.9495 139.434 64.3616 139.99L65.1109 141L70.1046 131.773C72.851 126.698 75.645 121.527 76.3136 120.281C76.9822 119.035 78.0337 117.081 78.6502 115.939C79.267 114.797 81.4183 110.804 83.4313 107.066C85.4442 103.328 88.062 98.4859 89.2492 96.3054C91.4035 92.3478 92.8303 89.6954 95.3934 84.884C97.6017 80.7391 99.3015 77.583 102.663 71.386C106.737 63.8765 107.364 62.7163 114.196 50.0534C117.334 44.2388 120.514 38.3631 121.263 36.996C122.012 35.6288 122.625 34.3972 122.625 34.2586C122.625 34.12 96.47 34.0068 64.5023 34.0068C32.5345 34.0068 6.37911 34.1472 6.37911 34.3186ZM90.8204 66.6173C88.7021 68.1192 88.5802 68.2827 89.1506 68.857C89.6973 69.4075 89.7168 69.8455 89.3265 72.7913C87.5048 86.5347 75.3128 96.7317 62.4739 95.2494C53.2695 94.1869 44.9249 87.2079 42.1563 78.2573C41.6617 76.6587 41.1184 75.136 40.9489 74.8739C40.7141 74.5107 39.7875 74.4658 37.0591 74.6852L33.4776 74.9729L34.2137 77.6158C37.7817 90.4339 46.5073 99.1323 58.6258 101.953C71.7894 105.017 86.0839 97.7602 92.5765 84.7168C94.2688 81.3175 95.8966 75.7835 96.1846 72.4533C96.3695 70.3122 96.5911 69.4959 97.0332 69.3252C97.511 69.1406 97.2976 68.749 95.9728 67.3792C93.4588 64.7804 93.4194 64.7747 90.8204 66.6173Z" fill="#2894CC"/>
</svg>
