<svg width="149" height="141" viewBox="0 0 149 141" fill="none" xmlns="http://www.w3.org/2000/svg">
<path fill-rule="evenodd" clip-rule="evenodd" d="M57.8386 0.97823C51.7191 2.77954 49.6866 4.11189 48.5671 7.05688C48.021 8.49365 47.5896 8.85391 43.2267 11.5162L42.0688 12.2227L42.9393 10.8933C43.4182 10.1621 44.0456 9.0145 44.3334 8.34282C44.9632 6.87308 46.3714 1.67921 46.1897 1.49603C45.8787 1.18248 39.8458 5.62987 38.2233 7.3689C35.5762 10.2058 34.9072 11.7223 34.8977 14.9069L34.8897 17.502L31.9476 20.3407L29.0054 23.1792L29.9493 20.4934C30.8214 18.0122 30.8926 17.5035 30.8847 13.8228C30.8724 8.4161 30.7128 8.2088 28.588 10.8399C24.1542 16.329 23.069 18.5397 22.8865 22.4525C22.7412 25.5657 22.9241 27.0224 23.5708 27.9056C23.9903 28.4784 24.0218 28.4741 24.8395 27.7298C25.8271 26.8306 25.6088 27.2587 23.8818 29.6092C23.184 30.559 21.9603 32.4483 21.1622 33.8072C20.3641 35.1664 19.6899 36.2786 19.6639 36.2786C19.6379 36.2789 19.6621 34.8003 19.718 32.9932C19.7978 30.4091 19.6841 29.1861 19.1854 27.2681C18.2344 23.6118 17.1198 20.2934 16.9437 20.5941C16.8578 20.7407 16.2193 22.6702 15.5246 24.8822C12.8888 33.2759 12.7231 36.4179 14.7057 40.4235C15.5491 42.1268 15.9716 42.687 16.3147 42.5557C16.6651 42.4214 16.7232 42.5099 16.5505 42.9154C16.4242 43.2109 15.7515 45.105 15.0552 47.124L13.7896 50.795L12.9194 48.0002C12.4408 46.463 11.688 44.5796 11.2462 43.8145C9.53199 40.8448 7.38238 37.4996 7.18882 37.4996C6.90414 37.4996 6.49348 43.4054 6.49899 47.422C6.50388 51.0918 6.93258 53.3739 8.02665 55.5547C8.75562 57.008 10.9823 59.1763 11.7458 59.1763C12.0886 59.1763 12.1332 59.5558 11.9699 61.0844C11.858 62.1341 11.6752 64.2773 11.5636 65.8478L11.3605 68.7031L10.0784 66.4584C8.00371 62.8271 6.18557 60.5651 3.65068 58.4616C2.34104 57.3753 1.22098 56.5336 1.16135 56.5913C1.00449 56.743 1.96921 61.8816 2.82202 65.4351C4.17172 71.0588 6.61243 74.7518 10.3842 76.8773C11.8825 77.7218 12.1296 77.9932 12.2858 78.9687C12.572 80.7529 13.5805 85.5266 13.8129 86.1959C13.9318 86.5387 13.3732 86.1315 12.5396 85.2677C10.6254 83.2845 0.406081 76.271 0.00857106 76.6679C-0.253785 76.9295 5.58441 88.1196 6.87051 89.8208C7.5264 90.6878 8.82809 91.9869 9.76346 92.7074C11.5966 94.1195 15.1668 95.7877 16.4058 95.8109C17.0611 95.8231 17.3522 96.2056 18.4451 98.4905C19.1465 99.9563 20.2375 102.044 20.8702 103.131L22.0202 105.105L20.4809 103.977C18.0662 102.207 13.7685 100.2 10.5811 99.353C8.9767 98.9268 7.06406 98.3666 6.3305 98.1083C5.59695 97.8497 4.95696 97.6778 4.90864 97.7261C4.86033 97.7746 6.02993 99.324 7.50775 101.17C10.5539 104.974 14.3461 108.622 16.7734 110.085C18.9732 111.41 23.0201 112.422 25.2932 112.216L27.027 112.06L31.4779 116.435C33.9256 118.842 35.6982 120.714 35.4169 120.596C35.1356 120.478 34.0779 119.951 33.0664 119.425C31.976 118.859 30.171 118.277 28.6326 117.997C25.2703 117.386 16.7829 116.5 15.5108 116.627C14.533 116.726 14.547 116.744 17.0703 118.598C24.367 123.962 28.5904 125.737 34.032 125.729C36.9118 125.724 40.4723 124.89 40.3329 124.251C40.2271 123.767 40.4543 123.811 41.4153 124.464C43.8924 126.147 45.0134 126.774 48.3191 128.33C50.315 129.269 51.8974 130.085 51.8356 130.144C51.7735 130.202 50.8975 130.114 49.8884 129.947C46.2393 129.344 41.3138 129.874 31.2779 131.95L29.4854 132.321L31.8895 133.035C33.2119 133.428 35.3258 134.071 36.5871 134.464C43.9453 136.756 51.9007 135.945 55.4116 132.545L56.3482 131.638L60.457 132.601C65.8503 133.865 65.7487 133.811 63.8269 134.39C62.916 134.665 61.8947 135.13 61.5574 135.425C61.2202 135.72 61.0511 135.779 61.1816 135.557C61.3786 135.221 61.3085 135.221 60.7719 135.556C60.416 135.778 60.1983 136.151 60.2882 136.385C60.4187 136.725 60.3622 136.736 60.0081 136.443C59.6583 136.153 59.3656 136.178 58.6251 136.56C58.1083 136.827 57.6836 137.213 57.6811 137.419C57.6778 137.688 57.6041 137.679 57.4178 137.385C57.2111 137.06 57.1203 137.079 56.9659 137.481C56.8598 137.758 56.6543 137.911 56.5097 137.822C56.3654 137.732 55.9859 137.869 55.6667 138.124C55.1169 138.565 55.1224 138.572 55.7746 138.257C56.1532 138.073 56.4626 138.014 56.4626 138.124C56.4626 138.235 56.669 138.154 56.9213 137.945C57.1735 137.736 57.3799 137.667 57.3799 137.79C57.3799 137.914 57.7154 137.796 58.1254 137.528C58.8256 137.07 58.8828 137.077 59.0635 137.645C59.1858 138.03 59.5265 138.251 59.9995 138.251C60.9352 138.251 60.9771 138.776 60.0555 138.953C59.6769 139.026 59.9111 139.029 60.5753 138.96C61.2397 138.891 61.928 138.715 62.1048 138.568C62.2815 138.422 63.2515 138.265 64.2602 138.22C65.4897 138.166 66.2157 137.981 66.4615 137.66C66.7703 137.258 66.7994 137.297 66.6447 137.91C66.508 138.45 66.571 138.6 66.889 138.492C67.1247 138.412 67.2776 138.068 67.2287 137.727C67.1253 137.009 68.3325 136.528 68.8414 137.084C69.0624 137.326 69.0282 137.354 68.7227 137.18C68.4267 137.011 68.3646 137.05 68.5233 137.307C68.6805 137.56 69.3159 137.116 70.5295 135.903L72.3058 134.129L74.7786 134.282C77.2187 134.432 77.2707 134.453 78.6687 135.808C79.4481 136.564 80.1997 137.182 80.3392 137.182C80.4786 137.182 80.8006 137.457 81.0547 137.793C81.3088 138.128 81.5213 138.274 81.5265 138.116C81.532 137.958 81.7216 138.082 81.9482 138.391C82.2698 138.83 82.4145 138.866 82.6071 138.555C82.7701 138.291 82.7343 138.23 82.501 138.374C82.3068 138.494 82.1478 138.433 82.1478 138.24C82.1478 138.046 82.423 137.816 82.7594 137.728C83.0958 137.641 83.371 137.449 83.371 137.302C83.371 137.155 83.6431 137.268 83.9761 137.553C84.3088 137.837 84.4672 138.145 84.328 138.237C83.8837 138.529 84.0519 139.426 84.5179 139.247C84.8378 139.125 84.8561 139.023 84.5873 138.857C84.351 138.711 84.5754 138.458 85.2298 138.131C85.9107 137.793 86.3361 137.731 86.5464 137.941C86.9904 138.384 89.3993 138.328 89.614 137.869C89.7565 137.564 89.828 137.564 89.9705 137.869C90.0687 138.079 90.5374 138.251 91.0123 138.251C91.7508 138.251 91.8501 138.153 91.6997 137.58C91.5438 136.985 91.5777 136.959 92.0021 137.351C92.2651 137.594 92.403 137.919 92.3091 138.073C92.2131 138.231 92.3801 138.262 92.6901 138.143C93.157 137.964 93.1824 138.003 92.8558 138.396C92.6146 138.686 92.5917 138.861 92.7947 138.861C92.9733 138.861 93.205 138.723 93.3093 138.555C93.4344 138.353 93.7086 138.361 94.1178 138.58C94.4584 138.762 94.7939 138.854 94.8633 138.785C94.9327 138.715 94.6113 138.467 94.149 138.234C93.6869 138 92.9904 137.572 92.6011 137.283C92.2122 136.995 91.6734 136.842 91.4043 136.946C91.1013 137.062 90.9918 137.009 91.1163 136.808C91.3994 136.351 90.5518 136.088 90.1353 136.504C89.8819 136.757 89.7923 136.711 89.7923 136.327C89.7923 135.879 89.4097 135.643 89.0749 135.884C89.0165 135.926 88.7759 135.803 88.5398 135.611C88.3037 135.419 87.0785 134.954 85.8172 134.578C83.1202 133.775 83.0832 133.803 88.5692 132.5C90.6714 132 92.873 131.445 93.4616 131.267C94.3728 130.991 94.4523 131.003 93.9967 131.348C93.7025 131.571 93.4616 131.856 93.4616 131.981C93.4616 132.361 95.0223 133.463 96.6573 134.238C101.789 136.67 108.194 136.282 117.748 132.959C119.513 132.345 119.537 132.322 118.665 132.076C118.173 131.937 115.5 131.391 112.726 130.862C106.407 129.659 100.688 129.5 97.356 130.435C94.9241 131.118 94.3395 130.944 96.4362 130.161C98.7745 129.289 104.343 126.444 107.034 124.748C111.968 121.637 117.467 116.889 121.048 112.644C122.086 111.413 122.213 111.348 122.67 111.804C123.304 112.438 124.989 112.438 127.772 111.806C130.724 111.136 131.477 110.787 134.296 108.782C137.434 106.549 138.395 105.623 140.47 102.835C141.406 101.576 142.737 99.9456 143.426 99.2129L144.679 97.8802L143.762 98.0256C143.257 98.1056 141.273 98.6081 139.351 99.1421C135.339 100.258 131.585 102.093 128.38 104.506C127.152 105.431 126.204 106.086 126.274 105.961C126.344 105.837 127.162 104.43 128.093 102.835C129.024 101.24 130.214 99.0248 130.738 97.9132C131.671 95.9333 131.719 95.8884 133.034 95.7404C134.899 95.5306 138.61 93.6292 140.584 91.8721C141.759 90.8265 142.779 89.4416 144.117 87.0776C146.348 83.1352 149.212 77.1866 148.988 76.9625C148.83 76.8053 143.645 79.975 140.704 82.026C138.753 83.3865 136.757 85.25 135.583 86.8065C134.759 87.8989 134.682 87.9407 134.856 87.2034C135.431 84.7722 136.546 79.3607 136.631 78.5904C136.694 78.021 136.923 77.6742 137.269 77.6247C138.238 77.4858 140.654 75.8951 142.124 74.4269C144.696 71.8593 146.18 68.1053 147.552 60.7028C147.878 58.9397 148.24 57.2568 148.356 56.9628C148.828 55.7669 147.657 56.5528 145.159 59.1094C141.243 63.1166 139.826 64.8901 138.521 67.4195L137.341 69.7093L137.143 64.8989C137.035 62.2532 136.864 59.8742 136.763 59.6126C136.621 59.2441 136.722 59.1815 137.209 59.3357C138.185 59.6449 140.899 56.7543 141.724 54.528C142.811 51.594 143.112 47.7963 142.699 42.2324C142.5 39.5463 142.295 37.3069 142.244 37.2565C142.08 37.0923 139.057 42.1561 137.568 45.0895C136.211 47.7621 136.107 48.1376 135.952 50.8903C135.826 53.1315 135.729 53.6148 135.543 52.9175C134.786 50.0705 133.324 45.5633 132.424 43.3004C131.475 40.915 131.49 40.7334 132.512 42.2816C132.862 42.8116 132.924 42.7972 133.631 42.0178C134.48 41.0832 135.562 38.3978 135.984 36.1776C136.331 34.3506 135.606 30.4656 133.991 25.4998C132.451 20.763 132.495 20.8036 131.437 23.1502C130.011 26.3119 129.696 28.0708 129.696 32.8671C129.696 35.273 129.591 37.059 129.462 36.8361C125.013 29.1534 120.386 23.1889 115.829 19.263C113.921 17.6192 113.766 17.4006 114.144 16.8847C114.378 16.5656 114.559 15.5737 114.557 14.6196C114.553 12.4846 113.663 10.5059 111.581 8.00851C109.501 5.51325 103.901 1.32903 103.361 1.86759C103.116 2.11275 104.327 6.87705 105.085 8.64813C105.373 9.3198 106.109 10.523 106.721 11.3223C107.333 12.1213 107.833 12.8366 107.833 12.912C107.833 12.9874 107.042 12.593 106.075 12.0355C105.108 11.4777 103.664 10.6543 102.867 10.2055C101.849 9.63213 101.365 9.14272 101.241 8.56081C100.458 4.89805 97.9006 2.85617 91.7948 1.01975C86.6012 -0.542499 86.5119 -0.482048 89.0966 2.84731C92.5635 7.31303 94.6498 8.94306 97.9308 9.74876C99.1289 10.0428 102.822 12.1824 104.303 13.4405C104.463 13.577 103.569 13.6078 102.315 13.5092C100.394 13.3584 99.4826 13.4738 96.5193 14.2423C92.7259 15.2263 90.7096 15.9773 90.7096 16.406C90.7096 16.6646 92.7372 16.9961 98.3461 17.6553C101.526 18.0293 107.27 18.0403 108.843 17.676C109.96 17.4171 110.096 17.4782 112.309 19.2343C113.576 20.2397 114.566 21.1086 114.51 21.1654C114.453 21.2219 113.65 21.0698 112.725 20.8274C109.348 19.9417 101.807 19.9072 102.098 20.7786C102.158 20.959 104.058 21.95 106.32 22.9807C113.265 26.1458 114.635 26.602 118.28 26.9613L120.318 27.1622L122.085 29.5069C123.057 30.7963 123.998 32.0508 124.175 32.2944C124.353 32.538 123.604 32.2443 122.51 31.6416C120.252 30.3969 114.137 28.3404 112.694 28.3404C111.834 28.3404 111.777 28.3935 112.153 28.8472C112.793 29.6205 119.559 35.2281 121.854 36.8874C124.001 38.4405 127.802 40.5526 128.449 40.5526C128.661 40.5526 129.011 40.9306 129.228 41.3922C129.686 42.3667 131.684 47.3625 131.684 47.5331C131.684 47.5966 130.731 46.7509 129.566 45.6537C127.456 43.6667 124.577 41.7949 121.393 40.3392C120.473 39.9185 119.659 39.6343 119.585 39.7075C119.512 39.7811 120.323 40.9452 121.387 42.2944C122.452 43.6435 123.998 45.8985 124.824 47.306C126.522 50.2012 130.046 54.0597 132.443 55.6485L134.053 56.7155L134.417 59.0908C134.617 60.3972 134.847 62.4965 134.929 63.7559L135.077 66.0457L134.098 63.6157C133.185 61.3513 132.84 60.9049 129.019 57.0517C124.271 52.2623 124.383 52.1405 126.79 59.4953C129.007 66.2676 131.061 70.2632 133.991 73.5015L134.989 74.6043L134.421 78.4155C134.108 80.5117 133.846 82.4067 133.838 82.6265C133.812 83.362 133.213 82.6595 133.213 81.8938C133.213 79.8556 129.363 71.9564 127.032 69.212L126.158 68.1828L126.345 71.6938C126.448 73.6249 126.719 77.335 126.947 79.9386C127.316 84.1659 127.476 84.9472 128.445 87.2409C129.042 88.6536 129.866 90.316 130.276 90.9352L131.022 92.0611L129.709 95.0821C128.986 96.7436 128.035 98.7211 127.597 99.4767L126.799 100.851L126.795 96.8816C126.79 92.8149 126.056 88.6478 124.786 85.4781C124.231 84.0914 123.736 83.82 123.73 84.8983C123.726 85.577 123.318 87.5902 121.737 94.7444C120.677 99.5414 120.635 102.815 121.595 105.776L122.302 107.954L120.453 110.203C119.437 111.44 118.228 112.796 117.768 113.215C117.019 113.898 116.949 113.915 117.103 113.368C117.974 110.287 118.316 105.568 117.978 101.309L117.771 98.7134L116.269 101.614C115.443 103.209 114.087 105.613 113.254 106.957C112.422 108.3 111.497 110.017 111.198 110.773C110.525 112.477 109.975 115.917 109.969 118.464L109.965 120.39L107.141 122.273C103.846 124.47 102.941 124.959 102.941 124.54C102.941 124.377 103.069 124.163 103.227 124.066C104.289 123.41 106.594 117.55 107.342 113.601L107.76 111.392L106.191 112.828C105.328 113.618 104.158 114.681 103.591 115.19C101.495 117.07 97.133 122.144 96.1763 123.814C95.6335 124.761 95.0376 126.292 94.852 127.217C94.5746 128.6 94.3801 128.939 93.7588 129.124C90.9175 129.97 87.5145 130.888 87.4525 130.826C87.4118 130.785 88.3686 129.702 89.5791 128.42C92.377 125.455 94.9269 121.293 94.3184 120.686C94.2159 120.584 93.5555 120.794 92.85 121.153C92.1449 121.512 90.3561 122.268 88.8749 122.833C85.2451 124.216 83.8813 124.94 82.3879 126.28C80.8397 127.67 78.7042 130.89 78.8815 131.567C78.9879 131.973 78.6709 132.101 77.1716 132.258C74.8315 132.502 73.0057 132.502 71.782 132.257C70.9479 132.091 70.6742 131.765 69.7394 129.824C68.1164 126.455 66.2367 125.042 60.4377 122.833C58.9669 122.272 57.046 121.451 56.169 121.007L54.575 120.2L54.7937 120.906C55.47 123.089 57.5142 126.019 60.3432 128.862C62.7579 131.289 62.6399 131.345 57.9866 129.99L54.7707 129.054L54.2527 126.778C53.5562 123.717 52.6437 122.499 45.9784 115.733C43.7863 113.507 41.9272 111.751 41.8471 111.831C41.5933 112.084 42.3966 115.713 43.3494 118.617C43.856 120.161 44.8091 122.256 45.4675 123.273C46.1258 124.29 46.5163 125.122 46.3353 125.122C46.1543 125.122 44.515 124.152 42.6922 122.965L39.3782 120.807L39.5516 118.741C39.8403 115.305 38.2995 110.524 35.3564 105.723C34.695 104.644 33.6749 102.831 33.0899 101.695C31.2917 98.203 31.3409 98.0937 31.4834 105.278C31.5846 110.369 31.7265 112.143 32.1163 113.187C32.3925 113.927 32.5668 114.584 32.5035 114.647C32.3705 114.78 28.4424 110.428 27.5324 109.14C26.9255 108.28 26.9249 108.249 27.4893 106.579C28.6965 103.009 28.5219 98.3107 26.9359 91.6914C26.5335 90.0122 26.0182 87.5392 25.7907 86.1959L25.3773 83.7534L24.8734 84.7173C24.1827 86.039 23.2559 89.5665 22.6474 93.1895C22.1648 96.0631 22.1765 97.7719 22.6993 100.851C22.8449 101.707 22.8097 101.981 22.5822 101.766C22.0777 101.292 19.6113 96.4926 18.6869 94.1879L17.8552 92.113L18.6108 91.2917C20.5253 89.2102 21.7796 85.817 22.2181 81.5326C22.6394 77.4162 23.1387 69.1555 22.9761 68.9931C22.6889 68.7064 21.8404 69.7402 20.4115 72.1164C17.2272 77.4119 16.1793 80.1749 16.0423 83.6368C16.0034 84.6211 15.879 85.3248 15.7662 85.2006C15.5206 84.9307 14.3938 79.2685 14.1052 76.855C13.9171 75.2809 13.9657 75.0772 14.7268 74.2599C15.9674 72.9276 18.9952 68.6542 19.681 67.2669C20.8066 64.9914 24.4771 53.6997 24.1857 53.4091C23.8821 53.1059 17.4158 59.8473 16.3835 61.543C15.8071 62.4901 14.9537 64.3714 14.4871 65.7239L13.6389 68.1828L13.811 65.1298C13.9055 63.4506 14.1361 60.9443 14.3232 59.5601C14.6611 57.0596 14.6715 57.0385 15.9169 56.3088C18.867 54.5799 21.7172 51.4243 26.1497 44.9796C27.5355 42.9645 28.9626 40.9404 29.3206 40.4812C30.7296 38.6756 29.6267 39.0725 24.3209 42.28C21.4184 44.0343 19.1939 45.9175 17.3443 48.1853L16.7217 48.9485L17.3323 47.1167C18.0632 44.9246 19.4758 41.4524 19.833 40.9712C19.9736 40.7813 20.4889 40.5462 20.9778 40.4488C22.2945 40.1856 26.1213 37.9636 28.9008 35.8482C32.0503 33.4512 37.3219 29.0014 37.4534 28.6289C37.6142 28.1737 36.2755 28.2891 33.6547 28.9559C30.9715 29.6385 27.5331 31.1675 25.4281 32.6134C24.6704 33.134 24.0503 33.471 24.0503 33.3627C24.0503 33.155 27.0126 28.9525 27.9407 27.8439C28.3681 27.3332 28.9647 27.1527 30.7361 26.9989C31.9745 26.8911 33.8321 26.5885 34.8641 26.326C37.0901 25.7599 47.0529 21.2667 47.0135 20.8466C46.9282 19.9313 39.6293 19.9341 36.2813 20.8506C35.3564 21.104 34.5412 21.3128 34.4699 21.3147C34.1797 21.3229 35.904 19.6859 37.3965 18.5361C38.9113 17.3692 39.0474 17.3246 40.1583 17.6327C42.4464 18.2671 52.8789 17.7603 57.8386 16.7739L59.0617 16.5305L57.3799 15.7331C54.0069 14.1339 48.7582 13.2085 45.6075 13.6582C44.5985 13.802 43.7463 13.8979 43.7135 13.8707C43.6808 13.8438 44.7085 13.0073 45.9974 12.012C48.1024 10.3859 48.5372 10.1783 50.278 9.96919C51.4414 9.82936 52.8477 9.39674 53.7962 8.88688C56.2788 7.55269 61.9666 1.55648 61.9666 0.273584C61.9666 -0.191702 61.6012 -0.12942 57.8386 0.97823ZM118.622 13.777C118.828 19.7634 119.243 21.3895 121.328 24.3809C122.628 26.2466 125.102 28.4756 125.559 28.1935C126.09 27.8656 126.482 25.7819 126.484 23.2744C126.486 20.5816 125.849 18.25 124.471 15.9022C123.621 14.4532 118.914 8.49548 118.619 8.49548C118.521 8.49548 118.522 10.8723 118.622 13.777ZM54.7371 42.9783C54.0986 43.2494 53.0991 44.419 53.0991 44.895C53.0991 45.37 54.2417 45.1163 54.7808 44.5216C55.4444 43.7898 56.5436 43.7302 57.2053 44.3906C58.0193 45.2033 57.7661 45.7303 55.3924 48.166C53.9617 49.6339 53.0991 50.7691 53.0991 51.184C53.0991 51.8205 53.2238 51.8489 56.0039 51.8489C58.3823 51.8489 58.9088 51.7659 58.9088 51.391C58.9088 51.0261 58.4596 50.933 56.7008 50.933H54.4928L56.3605 49.0249C59.1238 46.2017 59.4757 45.207 58.2208 43.765C57.4655 42.8971 55.8095 42.5231 54.7371 42.9783ZM66.9419 43.275C65.0506 44.1531 64.3538 45.436 64.4865 47.7939C64.6027 49.858 65.2246 50.8448 66.9862 51.7592C69.0037 52.807 72.285 51.619 73.162 49.5234C74.8856 45.4048 70.9243 41.4255 66.9419 43.275ZM80.7281 42.9783C80.0897 43.2494 79.0901 44.419 79.0901 44.895C79.0901 45.37 80.2328 45.1163 80.7719 44.5216C81.4354 43.7898 82.5347 43.7302 83.1964 44.3906C84.0914 45.2846 83.7587 45.9455 81.0685 48.6185C79.9047 49.7747 79.0901 50.8445 79.0901 51.2167C79.0901 51.8117 79.2607 51.8489 81.995 51.8489C84.3733 51.8489 84.8998 51.7659 84.8998 51.391C84.8998 51.0261 84.4506 50.933 82.6918 50.933H80.4838L82.3515 49.0249C84.4011 46.9308 84.8998 46.1535 84.8998 45.0528C84.8998 43.5339 82.3756 42.2785 80.7281 42.9783ZM92.0419 42.9783C91.4034 43.2494 90.4038 44.419 90.4038 44.895C90.4038 45.0253 90.7478 45.1322 91.1683 45.1322C91.6178 45.1322 91.9327 44.957 91.9327 44.7069C91.9327 43.6927 93.8897 43.653 94.5465 44.6538C95.1721 45.607 94.9721 45.966 92.4134 48.4817C91.1047 49.7686 90.4038 50.7001 90.4038 51.1531C90.4038 51.8285 90.4891 51.8489 93.3087 51.8489C95.687 51.8489 96.2136 51.7659 96.2136 51.391C96.2136 51.0277 95.772 50.933 94.0731 50.933C92.8959 50.933 91.9327 50.857 91.9327 50.7642C91.9327 50.6714 92.75 49.84 93.749 48.9168C96.2545 46.6004 96.7652 44.6443 95.2024 43.3495C94.5832 42.8363 92.8543 42.6333 92.0419 42.9783ZM66.8923 44.7158C64.4565 46.9073 65.7243 50.933 68.8499 50.933C73.1788 50.933 73.5625 44.4828 69.2624 43.9989C68.0368 43.8609 67.7439 43.9495 66.8923 44.7158ZM49.0426 58.2677C46.224 58.9784 44.1367 60.704 42.9574 63.2979C41.9263 65.5654 41.9828 69.426 43.0781 71.5412C44.0692 73.4545 45.1837 74.5191 47.1364 75.4174C48.3987 75.9977 49.172 76.1186 51.5702 76.1113C53.1679 76.1064 55.0597 75.9293 55.7746 75.7181L57.0742 75.334V71.8346V68.3355H56.0039H54.9337V71.0927C54.9337 74.343 54.9747 74.3042 51.5702 74.2572C47.6382 74.2028 45.5262 72.665 44.8253 69.346C44.0242 65.5523 45.3302 62.2498 48.2127 60.7791C49.8193 59.9597 53.2137 59.8367 55.1734 60.527C56.5785 61.0219 56.7684 60.9312 56.7684 59.7658C56.7684 59.1006 56.5663 58.8579 55.7746 58.5724C54.4335 58.0891 50.4639 57.9093 49.0426 58.2677ZM65.9417 58.2405C63.2906 59.0487 61.474 60.639 60.3417 63.1428C59.4681 65.0748 59.4681 69.1537 60.3417 71.0857C61.7012 74.092 64.2367 75.8994 67.5103 76.1959C72.0896 76.6105 75.8189 73.7006 76.624 69.0844C77.6985 62.9227 73.8191 57.8806 68.0821 57.9831C67.3253 57.9966 66.3621 58.1123 65.9417 58.2405ZM79.7016 67.1219V75.9837L84.5176 75.8994L89.3336 75.8155V74.8996V73.9836L85.6643 73.9207L81.995 73.8578L81.9133 66.0591L81.8317 58.2604H80.7667H79.7016V67.1219ZM91.4844 58.5492C91.3618 58.747 91.3627 62.763 91.4863 67.4739L91.711 76.0389L95.4146 75.8829C99.6551 75.704 100.789 75.4244 102.833 74.0517C107.59 70.8579 107.596 63.4661 102.843 60.2046C102.033 59.6486 100.864 59.0377 100.244 58.8475C98.5647 58.3315 91.7624 58.0998 91.4844 58.5492ZM66.4181 60.2424C64.5993 60.8894 63.7263 61.6483 62.8861 63.3138C62.2549 64.5643 62.1271 65.2452 62.1442 67.2669C62.1754 71.0219 63.5569 73.1715 66.4847 74.0212C69.7281 74.9627 72.6853 73.4701 73.8769 70.29C75.5076 65.9385 73.5708 61.0811 69.8299 60.1407C68.0947 59.7045 67.9158 59.7097 66.4181 60.2424ZM93.838 67.1906L93.9202 73.9836L96.3665 73.9107C101.229 73.7656 104.034 71.2731 103.989 67.1377C103.964 64.8782 103.511 63.7947 101.972 62.3188C100.594 60.9974 98.7347 60.3975 96.0163 60.3975H93.7557L93.838 67.1906ZM49.1478 83.5055C51.2029 90.642 51.1354 90.4702 51.8873 90.4702C52.5328 90.4702 52.6921 90.1334 53.662 86.7189C54.2479 84.6556 54.8276 83.0757 54.9502 83.2078C55.0725 83.34 55.6165 85.0626 56.1584 87.0355C57.0399 90.2439 57.2154 90.6228 57.8236 90.6228C58.4349 90.6228 58.6312 90.1838 59.7763 86.26C60.4765 83.8606 61.0492 81.7998 61.0492 81.6804C61.0492 81.5613 60.7948 81.4636 60.4839 81.4636C60.0215 81.4636 59.7641 82.0614 59.0709 84.7457C57.9994 88.8948 57.8527 89.1741 57.4451 87.8442C57.2702 87.2736 56.7629 85.6045 56.3177 84.1351C55.6211 81.8352 55.4153 81.4636 54.8389 81.4645C54.2583 81.4652 54.0592 81.8401 53.3403 84.2886C52.8844 85.8414 52.4224 87.4898 52.3135 87.9514C52.2047 88.413 52.0236 88.791 51.9111 88.791C51.7989 88.791 51.2879 87.1765 50.7758 85.2036C49.9804 82.1414 49.7493 81.6022 49.1964 81.521L48.5488 81.4261L49.1478 83.5055ZM62.6968 81.9005C62.6044 82.1408 62.6063 84.0987 62.701 86.2511C62.7955 88.4039 62.8757 90.2677 62.8784 90.3938C62.8815 90.5199 63.0903 90.6228 63.3426 90.6228C63.73 90.6228 63.8012 89.9105 63.8012 86.0432C63.8012 82.1344 63.7327 81.4636 63.3331 81.4636C63.0753 81.4636 62.7891 81.6602 62.6968 81.9005ZM66.2475 86.0432C66.2475 90.4192 66.2747 90.6228 66.859 90.6228C67.4354 90.6228 67.4706 90.4192 67.4706 87.0843V83.5458L69.9981 87.008C71.7227 89.3708 72.7425 90.501 73.2088 90.5679C73.89 90.6649 73.8919 90.6524 73.8919 86.042C73.8919 81.8037 73.8472 81.4273 73.3568 81.521C72.895 81.609 72.8006 82.1042 72.6688 85.1304L72.5159 88.6377L69.9691 85.0507C66.4208 80.0531 66.2475 80.0995 66.2475 86.0432ZM76.3381 86.0432C76.3381 89.8666 76.4124 90.6228 76.787 90.6228C77.1514 90.6228 77.2523 89.9472 77.3221 87.0355L77.4083 83.4481L79.9404 87.0355C81.7115 89.5445 82.6536 90.6228 83.0747 90.6228C83.6449 90.6228 83.6767 90.3969 83.6767 86.3485C83.6767 83.9977 83.7012 81.9714 83.7315 81.8453C83.7614 81.7192 83.5593 81.5726 83.2823 81.5195C82.8404 81.4343 82.768 81.8779 82.6924 85.1243L82.6065 88.8261L80.0074 85.1588C76.4662 80.1621 76.3381 80.1929 76.3381 86.0432ZM86.1229 86.0432V90.6228H88.722C90.8285 90.6228 91.3211 90.5361 91.3211 90.1649C91.3211 89.8049 90.8964 89.7069 89.3336 89.7069H87.346V88.1804V86.6538H89.1807C90.8114 86.6538 91.0154 86.5861 91.0154 86.0432C91.0154 85.5004 90.8114 85.4326 89.1807 85.4326H87.346V83.9061V82.3796H89.3336C90.8964 82.3796 91.3211 82.2815 91.3211 81.9216C91.3211 81.5503 90.8285 81.4636 88.722 81.4636H86.1229V86.0432ZM93.1558 86.0432C93.1558 90.4192 93.183 90.6228 93.7674 90.6228C94.311 90.6228 94.3789 90.4192 94.3789 88.791C94.3789 87.1835 94.4514 86.9591 94.9703 86.9591C95.329 86.9591 96.1286 87.68 97.0028 88.791C98.0602 90.1349 98.6427 90.6228 99.1894 90.6228C99.934 90.6228 99.934 90.6225 98.9148 89.375C96.952 86.9723 96.9918 87.1591 98.191 85.9617C99.3398 84.8147 99.4502 84.4153 98.9674 83.148C98.5717 82.1087 96.9936 81.4636 94.8474 81.4636H93.1558V86.0432ZM94.3789 84.2114V86.0432H95.432C96.8918 86.0432 98.2106 84.8983 97.9489 83.8581C97.7321 82.9953 96.6215 82.3796 95.2819 82.3796C94.382 82.3796 94.3789 82.386 94.3789 84.2114ZM132.448 116.794C127.291 117.108 122.356 117.608 120.735 117.982C116.634 118.928 112.872 120.778 110.536 122.997C109.531 123.951 109.348 124.28 109.631 124.62C110.229 125.339 112.747 125.862 115.478 125.833C119.322 125.793 122.232 124.855 126.987 122.123C128.48 121.265 134.123 117.443 134.286 117.179C134.495 116.842 133.858 116.708 132.448 116.794ZM65.1772 137.029C65.0733 137.197 65.2109 137.335 65.483 137.335C65.7551 137.335 65.8928 137.197 65.7888 137.029C65.6848 136.861 65.5472 136.724 65.483 136.724C65.4188 136.724 65.2812 136.861 65.1772 137.029ZM81.5568 137.463C81.2672 137.811 81.3018 137.881 81.732 137.818C82.0265 137.775 82.3209 137.579 82.386 137.384C82.5518 136.888 81.9907 136.941 81.5568 137.463ZM97.7033 140.617C97.3232 141.101 97.3339 141.112 97.8189 140.732C98.3283 140.333 98.4901 140.082 98.2384 140.082C98.1751 140.082 97.9342 140.323 97.7033 140.617Z" fill="#2894CC"/>
</svg>
