<svg width="170" height="141" viewBox="0 0 170 141" fill="none" xmlns="http://www.w3.org/2000/svg">
<path fill-rule="evenodd" clip-rule="evenodd" d="M77.3033 0.142642C77.2256 0.220572 75.8769 0.472536 74.3065 0.703022C68.2288 1.59412 64.8644 2.24207 64.0387 2.68018C63.737 2.84017 62.8108 3.11637 61.9804 3.29371C60.455 3.61947 58.8461 4.17654 57.5883 4.81403C57.2108 5.00541 56.4079 5.31658 55.804 5.50576C55.2001 5.69521 54.0265 6.19501 53.1961 6.61688C52.3657 7.03847 51.0069 7.71202 50.1765 8.11351C47.5813 9.3681 42.9896 12.17 42.1482 13.0121C41.8833 13.2773 41.5437 13.494 41.3933 13.494C40.7043 13.494 34.3755 19.1338 30.6863 23.0356C27.5212 26.383 23.5491 31.7431 23.5491 32.6669C23.5491 33.1769 25.0776 33.4027 26.1424 33.0502C27.0323 32.7553 28.8323 30.7203 29.3736 29.3966C29.4821 29.1314 29.6674 28.9117 29.7854 28.9081C29.9034 28.9043 30.736 28.006 31.6356 26.9117C33.5772 24.5495 39.3707 19.0149 40.239 18.6927C40.928 18.4369 41.4823 18.6291 43.451 19.8068C44.2059 20.2585 45.2194 20.8309 45.7031 21.0791C47.3861 21.9429 47.3749 22.0999 45.4632 24.4344C44.4997 25.6114 43.2482 27.2812 42.6824 28.1453C42.1164 29.0094 41.5402 29.7868 41.4018 29.8727C41.2632 29.9584 40.8764 30.5785 40.5418 31.2501C40.0202 32.2979 39.987 32.5364 40.309 32.9255C40.5898 33.2648 40.9846 33.3452 41.8754 33.2446C42.5303 33.1706 43.0961 33.0643 43.1323 33.0087C43.1688 32.953 43.9347 31.9322 44.8346 30.7404C45.7344 29.5484 46.6587 28.2913 46.8884 27.9471C47.1182 27.6026 47.8904 26.6671 48.6041 25.8683C49.3179 25.0692 49.902 24.326 49.902 24.2164C49.902 23.4941 52.9299 24.2139 56.353 25.7502C57.1079 26.0889 58.2153 26.4543 58.814 26.5625C59.6869 26.72 61.2354 27.3269 61.6442 27.6717C61.6856 27.7067 61.4594 28.3414 61.1415 29.0821C59.5873 32.7022 59.609 33.3206 61.2909 33.3206C62.2431 33.3206 63.6275 32.4224 63.6275 31.8045C63.6275 31.5982 64.0148 30.8049 64.4878 30.0413L65.3484 28.6526L67.4388 28.8054C68.5887 28.8894 69.7765 29.0612 70.0785 29.1871C71.1049 29.6153 74.4618 30.0906 77.353 30.217C78.9383 30.2863 80.3899 30.4706 80.5785 30.6264C80.7673 30.7823 80.9216 31.3818 80.9216 31.9589C80.9216 33.1929 81.4237 33.4702 83.1328 33.1805C84.3318 32.9773 84.7647 32.4411 84.7647 31.1595V30.3389L87.853 30.217C90.9083 30.0963 94.1423 29.6618 95.4706 29.1937C95.8481 29.0607 97.0834 28.8759 98.2157 28.7828L100.275 28.6135L101.316 30.6636C102.081 32.1668 102.571 32.8019 103.155 33.0447C104.124 33.447 105.447 33.0882 105.582 32.386C105.668 31.9399 105.514 31.5318 104.221 28.798C103.94 28.2037 103.74 27.7045 103.776 27.6885C103.813 27.6723 104.276 27.4632 104.804 27.2239C105.332 26.9847 106.5 26.5746 107.4 26.313C108.299 26.0514 109.284 25.6623 109.588 25.4484C109.893 25.2344 110.346 25.0595 110.596 25.0595C110.845 25.0595 111.748 24.7497 112.601 24.3711C114.64 23.4665 115.231 23.5001 116.24 24.5776C117.058 25.4517 120.18 29.5395 121.549 31.5299C122.745 33.2686 122.915 33.3832 123.993 33.181C125.089 32.9756 125.667 32.5995 125.667 32.0906C125.667 31.5445 123.578 28.4524 120.965 25.1284C119.626 23.4244 118.529 21.9699 118.529 21.8961C118.529 21.6755 120.972 20.1552 123.471 18.8207C124.66 18.1852 125.716 18.4427 126.925 19.6628C127.24 19.9806 128.462 21.108 129.64 22.1681C131.865 24.1698 135.685 28.4452 137.698 31.1865C138.502 32.2822 139.048 32.771 139.47 32.7738C139.804 32.7757 140.326 32.8437 140.627 32.9247C140.929 33.0053 141.424 32.8891 141.725 32.6658C142.269 32.2641 142.269 32.2508 141.748 31.3446C141.214 30.4163 141.033 30.1726 138.499 26.9871C134.645 22.1401 130.288 17.9668 124.621 13.6933C123.2 12.6219 120.75 11.0156 120.536 11.0156C120.438 11.0156 120.162 10.8411 119.924 10.6276C118.985 9.78749 112.071 6.2454 109.882 5.48373C108.976 5.1687 108.112 4.81513 107.961 4.69865C107.553 4.38335 106.006 3.8662 103.83 3.31684C102.766 3.04835 101.654 2.70276 101.359 2.54883C100.565 2.13357 98.3757 1.658 96.4676 1.4859C95.542 1.40246 94.5373 1.2298 94.2353 1.10231C93.011 0.585438 86.5765 -0.000550353 82.1341 3.87914e-07C79.5548 0.000551129 77.381 0.0647118 77.3033 0.142642ZM78.1765 3.91522C73.6084 4.15782 68.9804 4.73637 68.9804 5.06516C68.9804 5.2001 69.2228 5.44793 69.519 5.6159C69.8152 5.78388 70.5053 6.18895 71.0527 6.51581C71.5998 6.84295 72.8977 7.37387 73.937 7.69605C80.341 9.6801 85.2632 9.64898 91.4902 7.58508C93.7827 6.82506 96.3307 5.53577 96.4904 5.05497C96.7353 4.31808 84.6972 3.5688 78.1765 3.91522ZM62.2549 6.17546C61.7265 6.37758 60.4295 6.87683 59.3726 7.28493C58.3157 7.69303 57.0997 8.13637 56.6698 8.27048C56.2402 8.40431 55.4611 8.76697 54.9384 9.07648C54.4158 9.38573 53.8871 9.63879 53.7635 9.63879C53.4253 9.63879 47.5163 12.9476 45.7413 14.1306C43.5993 15.5584 43.372 15.8688 44.0272 16.4727C44.7481 17.1371 46.3155 18.0805 48.3055 19.0474L49.9855 19.8638L51.5079 18.4C52.3454 17.5948 53.1604 16.8006 53.3191 16.6349C54.519 15.3822 60.1709 11.0432 63.2789 8.98837C64.3706 8.26662 65.3478 7.53964 65.4505 7.37304C65.6816 6.99771 64.3149 5.7792 63.6808 5.79572C63.4249 5.80233 62.7834 5.97333 62.2549 6.17546ZM100.995 6.70555C100.634 7.14228 100.849 7.35294 103.294 8.96579C106.498 11.0782 111.533 15 113.663 17.0419C115.683 18.9774 115.86 19.0862 116.421 18.7337C116.937 18.4091 117.662 18.0169 120.766 16.3859C121.053 16.2347 121.253 15.9283 121.211 15.7047C121.103 15.1451 117.163 12.7265 113.039 10.688C109.408 8.89309 109.355 8.86941 107 7.98657C106.17 7.6754 105.243 7.31659 104.941 7.18965C104.355 6.94292 101.934 6.33435 101.539 6.33435C101.409 6.33435 101.164 6.5015 100.995 6.70555ZM95.1157 10.0395C94.3921 10.3875 93.7286 10.7436 93.6416 10.8311C93.5545 10.9184 93.9614 11.6413 94.5455 12.4374C95.13 13.2338 95.7314 14.0937 95.8824 14.3487C96.0334 14.604 96.8105 15.765 97.6096 16.9292C98.4084 18.0935 99.2786 19.4387 99.543 19.9186C100.907 22.3928 102.104 23.9581 102.632 23.9581C103.426 23.9581 105.621 23.4219 106.588 22.9918C108.746 22.0316 110.918 21.2043 111.282 21.2043C112.106 21.2043 111.951 20.4146 110.929 19.4103C107.384 15.926 97.889 9.26098 96.6483 9.38518C96.5289 9.39702 95.8393 9.69166 95.1157 10.0395ZM67.1961 10.1094C63.8842 12.241 60.1245 14.8105 59.1659 15.5978C55.2596 18.805 53.4706 20.4526 53.4706 20.8425C53.4706 21.0044 54.6131 21.5439 56.0099 22.0412C57.4066 22.5385 58.6726 23.0342 58.8236 23.1427C59.3328 23.5084 62.8199 24.2654 63.2942 24.1134C63.5531 24.0305 64.12 23.3109 64.554 22.5146C65.5697 20.6506 65.817 20.2582 69.2478 15.0641L72.1214 10.7138L70.8713 10.1763C69.3741 9.5325 68.1278 9.50992 67.1961 10.1094ZM75.1133 12.715C73.4503 14.5005 69.0381 21.0934 67.6595 23.8523C66.8187 25.5348 66.9211 25.5907 71.8628 26.1423C76.9497 26.7104 80.4107 26.9959 80.6216 26.8651C80.9839 26.6407 81.2502 19.7631 81.0399 16.0613C80.8154 12.1083 80.9809 12.3143 77.7996 12.0268C75.9489 11.8594 75.8975 11.8726 75.1133 12.715ZM86.969 12.3223C86.1433 12.379 85.3094 12.5572 85.1161 12.718C84.8482 12.9413 84.7647 14.6045 84.7647 19.7234V26.4364H88.2329C90.1405 26.4364 92.1477 26.3191 92.6937 26.1759C93.2397 26.0327 94.6476 25.7667 95.8225 25.5847C98.1298 25.2275 98.4842 25.0034 97.877 24.2849C97.6609 24.0294 97.2615 23.3327 96.9895 22.7365C96.7172 22.1406 96.0789 21.0725 95.5708 20.3631C95.0627 19.6537 94.6471 18.9482 94.6471 18.7957C94.6471 18.6431 94.4451 18.3499 94.198 18.1442C93.9509 17.9385 93.4598 17.3109 93.1063 16.7494C91.633 14.4082 89.5958 12.1171 89.0325 12.1681C88.7234 12.1962 87.7951 12.2655 86.969 12.3223ZM133.765 38.3305C132.406 38.437 130.676 38.6496 129.922 38.8027C129.167 38.9558 127.759 39.2108 126.793 39.3694C125.094 39.6484 121.938 40.6692 120.478 41.4124C120.086 41.6121 118.784 42.2586 117.585 42.849C113.582 44.8204 110.745 47.3841 108.081 51.437C107.335 52.5723 106.576 54.0101 106.395 54.6321C106.214 55.2545 105.981 55.8253 105.878 55.901C105.486 56.1874 104.804 58.2078 104.804 59.0835C104.804 59.5852 104.661 60.3447 104.488 60.771C104.314 61.1972 104.05 62.2277 103.903 63.0607C103.529 65.1714 103.341 77.0236 103.663 78.206C104.246 80.3481 104.575 81.7027 104.769 82.7496C104.958 83.7768 105.581 85.2676 107.159 88.4688C109.029 92.2631 113.949 96.6867 119.078 99.1854C121.106 100.173 124.146 101.337 124.698 101.337C124.944 101.337 125.478 101.503 125.886 101.706C126.294 101.909 127.554 102.227 128.686 102.414C129.819 102.6 131.054 102.828 131.431 102.921C132.601 103.209 141.354 103.102 143.235 102.776C146.511 102.21 147.486 101.991 148.039 101.701C148.341 101.543 149.205 101.332 149.96 101.234C151.466 101.036 156.036 98.8987 158.591 97.1961C161.644 95.162 166.294 89.9894 166.294 88.628C166.294 88.3735 166.387 88.1241 166.5 88.0734C166.855 87.9153 168.49 84.1714 168.49 83.5171C168.49 82.9889 168.925 81.5545 169.556 80.0048C169.932 79.0803 170 77.6187 170 70.5045C170 63.0166 169.948 62.0005 169.52 61.2157C169.256 60.7307 169.039 60.0258 169.039 59.6485C169.039 59.2713 168.932 58.8962 168.802 58.8153C168.671 58.7343 168.496 58.1569 168.412 57.5318C168.329 56.9067 167.635 55.1319 166.869 53.5879C165.728 51.2839 165.072 50.3642 163.21 48.4594C160.722 45.9147 159.122 44.596 157.4 43.6724C156.781 43.3406 155.966 42.8666 155.588 42.6194C155.211 42.3721 154.531 42.0824 154.078 41.9755C153.625 41.8687 153.114 41.6707 152.943 41.5361C152.389 41.101 148.352 39.7241 147.078 39.5358C145.902 39.362 145.382 39.2673 141.863 38.5849C139.835 38.192 136.765 38.0956 133.765 38.3305ZM61.8432 38.7234C60.9373 38.9368 59.5362 39.2287 58.7297 39.3725C56.0653 39.8469 52.388 41.4961 50.1633 43.2142C48.5297 44.4759 45.7844 47.3524 45.7844 47.8027C45.7844 48.0009 45.6018 48.2658 45.3786 48.3911C44.9674 48.6219 43.9992 51.0933 43.6152 52.8932C43.4994 53.4348 43.3088 54.0343 43.1913 54.2248C42.9111 54.6795 42.9089 61.2495 43.1889 61.7036C43.3077 61.8967 43.4958 62.4978 43.607 63.0395C44.3092 66.4626 46.6485 69.696 50.8735 73.0825C52.38 74.29 56.3006 76.1683 59.2353 77.0886C60.8206 77.5853 62.5218 78.1711 63.0153 78.39C63.5092 78.6089 64.6898 78.9509 65.6394 79.1503C66.5889 79.3494 67.6054 79.6517 67.8986 79.8219C68.1918 79.9921 69.2961 80.3647 70.353 80.6499C72.6116 81.2596 78.3505 83.0349 80.0498 83.6498C81.4583 84.1593 82.5687 84.9804 82.5687 85.5127C82.5687 86.1879 81.4616 86.9567 80.22 87.1435C79.5559 87.2434 78.941 87.442 78.8529 87.5846C78.6503 87.9137 70.5748 87.9288 70.3725 87.6003C70.2901 87.4665 69.6343 87.269 68.9151 87.1616C68.1962 87.0542 67.4844 86.8797 67.3334 86.7736C67.1824 86.6676 66.3795 86.3515 65.5491 86.0712C64.7187 85.7908 63.854 85.4144 63.6275 85.2346C63.401 85.055 62.6176 84.5654 61.8868 84.1469C60.1945 83.1773 58.4118 81.4155 57.3171 79.6308C56.8457 78.8622 56.2377 78.1628 55.9659 78.0763C55.3357 77.8756 44.2172 78.124 43.8576 78.347C43.6885 78.4517 43.5883 82.7557 43.5883 89.9131V101.312L44.5741 101.498C45.1165 101.6 48.2972 101.575 51.6427 101.441L57.7255 101.199L57.8073 99.4784C57.8889 97.7609 58.187 97.3666 58.8796 98.0613C59.4939 98.6776 65.17 101.095 66.3693 101.252C67.0504 101.34 67.7646 101.537 67.956 101.689C69.2377 102.702 78.6693 103.572 82.1569 102.999C85.8298 102.396 87.1022 102.11 87.8266 101.725C88.2274 101.511 88.7852 101.337 89.066 101.337C89.6936 101.337 92.6116 99.9273 94.523 98.7008C96.0946 97.6923 99.0134 94.6396 99.7148 93.271C99.9638 92.7852 100.414 91.9938 100.715 91.5125C101.443 90.3488 102.333 87.1666 102.333 85.727C102.333 85.0917 102.468 84.4883 102.634 84.3859C102.811 84.276 102.871 83.79 102.781 83.1993C102.697 82.6491 102.509 81.3934 102.363 80.409C102.003 77.9841 101.468 76.4313 100.362 74.6025C98.5196 71.5569 96.1788 68.9186 94.3039 67.7745C93.7379 67.4289 93.2745 67.0538 93.2745 66.9409C93.2745 66.5777 87.8365 64.106 86.2054 63.7276C85.3376 63.5263 83.8863 63.1193 82.9804 62.8227C82.0745 62.5262 80.5304 62.071 79.5491 61.811C78.5677 61.5511 77.0853 61.094 76.2549 60.7952C75.4245 60.4964 74.251 60.1591 73.6471 60.0459C71.8367 59.7064 70.2495 59.2074 70.0738 58.9227C69.9832 58.7753 69.6456 58.6547 69.3236 58.6547C69.0018 58.6547 67.7202 58.3295 66.4758 57.9316C62.8185 56.7632 61.7954 55.0256 63.978 53.6906C64.7318 53.2294 65.3673 53.1493 68.2747 53.1484C70.1512 53.1479 72.0659 53.2666 72.5296 53.412C72.9932 53.5576 74.6079 54.0101 76.1177 54.4176C80.3794 55.5678 83.7661 57.6411 85.8666 60.386C86.4708 61.1755 87.0926 61.9765 87.2485 62.1657C87.9054 62.9646 99.5765 62.3565 100.452 61.4778C100.71 61.2195 100.766 59.0928 100.687 52.5308C100.631 47.796 100.606 43.1536 100.631 42.214C100.702 39.6299 100.772 39.6542 93.2232 39.6542C86.1376 39.6542 86.4118 39.5605 86.4118 41.9767C86.4118 42.6681 86.3053 43.234 86.1752 43.234C86.0451 43.234 84.9874 42.743 83.8245 42.143C79.067 39.6883 73.9603 38.5111 67.6079 38.4048C64.8073 38.358 62.9635 38.4599 61.8432 38.7234ZM2.10549 39.0464L0.289056 39.1268L0.0979971 41.9896C-0.186944 46.2567 0.190782 54.1607 0.700271 54.5848C0.957213 54.7984 2.56392 54.9739 5.1207 55.0667L9.13733 55.2126L9.20815 70.5645L9.27925 85.9164H5.20168C1.52929 85.9164 1.0769 85.969 0.647291 86.4454C0.219605 86.9193 0.169645 87.7311 0.165527 94.2753C0.163057 98.2907 0.254468 101.728 0.368664 101.913C0.638507 102.351 38.9167 102.086 40.091 101.638L40.8432 101.351V93.9187C40.8432 86.6847 40.8281 86.4784 40.275 86.1816C39.9104 85.9858 38.2853 85.9081 35.742 85.9651C32.3974 86.0403 31.7602 85.9894 31.6705 85.641C31.5187 85.0523 31.5014 56.1238 31.6526 55.6257C31.7561 55.2839 32.4545 55.2118 35.6928 55.2076C38.3372 55.2043 39.8083 55.0895 40.2255 54.8538C40.8429 54.5049 40.8432 54.503 40.8432 46.8042V39.1034L40.0883 39.0627C38.5991 38.9825 3.88266 38.9674 2.10549 39.0464ZM135.411 55.1798C132.962 55.8666 131.322 57.4156 130.422 59.8939C129.974 61.1265 129.922 62.2662 129.922 70.771V80.2713L130.78 82.0612C131.886 84.3694 133.048 85.4163 135.155 86.0031C137.38 86.6233 142.094 86.6313 143.941 86.018C146.359 85.2156 147.98 83.0454 148.541 79.8583C148.89 77.8825 148.894 62.7784 148.547 60.9954C147.915 57.749 146.511 56.2618 142.989 55.1058C141.816 54.7211 136.874 54.7693 135.411 55.1798ZM23.6872 107.945C23.5469 108.172 25.2162 111.07 25.7501 111.526C25.8388 111.602 26.1923 112.128 26.536 112.695C26.8794 113.262 27.306 113.819 27.4839 113.934C27.6618 114.048 28.1677 114.627 28.6086 115.219C29.3124 116.166 34.9887 121.954 36.7618 123.533C38.2216 124.833 42.6495 128.104 44.2309 129.051C45.161 129.608 46.1069 130.214 46.3334 130.398C46.5599 130.582 47.5481 131.163 48.5295 131.688C49.5108 132.214 50.6844 132.845 51.1373 133.092C52.7682 133.981 56.7834 135.758 57.1592 135.758C57.3703 135.758 58.14 136.055 58.8697 136.418C59.5993 136.78 60.6285 137.159 61.1569 137.26C61.6853 137.36 62.3648 137.547 62.6667 137.674C62.9687 137.802 63.9569 138.11 64.8628 138.36C65.7687 138.61 66.9422 138.934 67.4706 139.082C68.7452 139.437 71.8471 139.906 74.0589 140.077C75.0402 140.153 76.3724 140.389 77.0194 140.602C78.4741 141.082 87.6998 141.148 89.1588 140.689C89.6861 140.523 90.9824 140.279 92.0392 140.147C93.0961 140.015 94.8895 139.792 96.0243 139.651C97.1591 139.51 99.1974 139.068 100.554 138.667C101.91 138.267 103.699 137.751 104.529 137.521C105.36 137.29 106.533 136.911 107.137 136.678C107.741 136.445 109.028 135.956 109.996 135.592C110.964 135.227 112.308 134.62 112.982 134.242C113.655 133.864 114.32 133.555 114.459 133.555C114.669 133.555 117.512 132.018 119.303 130.936C119.557 130.783 120.382 130.29 121.137 129.842C124.794 127.672 131.483 122.126 134.659 118.631C135.389 117.828 136.39 116.737 136.883 116.207C137.376 115.677 137.984 114.902 138.233 114.486C138.483 114.07 138.774 113.729 138.88 113.729C138.986 113.729 139.354 113.264 139.699 112.696C140.042 112.128 140.398 111.602 140.489 111.526C140.753 111.305 141.969 109.527 142.342 108.816C142.832 107.88 142.569 107.671 140.901 107.671C139.267 107.671 139.589 107.38 135.899 112.188C132.982 115.989 126.549 122.272 125.595 122.252C125.257 122.245 124.548 122.002 124.02 121.712C123.491 121.422 122.626 120.957 122.098 120.678C119.368 119.238 118.574 118.48 119.313 118.022C119.684 117.792 123.498 112.693 124.95 110.485C125.686 109.366 126.2 108.302 126.113 108.076C126.004 107.789 125.534 107.672 124.509 107.675C122.996 107.679 122.691 107.793 122.235 108.524C121.404 109.859 119.7 112.262 119.284 112.687C119.02 112.957 118.804 113.281 118.804 113.407C118.804 113.533 118.087 114.416 117.21 115.369L115.616 117.103L113.46 116.357C112.274 115.946 110.628 115.311 109.804 114.945C108.979 114.579 108.078 114.28 107.802 114.28C107.526 114.28 107.016 114.164 106.67 114.023C106.323 113.882 105.699 113.694 105.284 113.605C104.318 113.398 104.305 112.743 105.229 110.896C105.644 110.069 105.896 109.154 105.847 108.653C105.767 107.836 105.721 107.808 104.411 107.808H103.056L101.94 109.942L100.824 112.075L99.6607 112.076C99.0214 112.076 97.9714 111.96 97.3274 111.817C94.3026 111.146 92.8727 110.918 89.4314 110.56C87.3932 110.348 85.5163 110.169 85.2608 110.162C84.913 110.152 84.7752 109.855 84.7118 108.979L84.6275 107.808H83.1177H81.6079L81.4706 109.02L81.3334 110.232L79.8236 110.317C76.113 110.525 72.4766 111.025 68.908 111.817C66.8769 112.267 65.9372 112.154 65.4434 111.398C65.1996 111.025 65 110.58 65 110.41C65 110.24 64.6086 109.554 64.1298 108.886C63.3063 107.735 63.1888 107.671 61.9253 107.671C60.9639 107.671 60.5442 107.792 60.4248 108.104C60.3334 108.343 60.7059 109.535 61.2522 110.754C61.7987 111.973 62.1819 113.074 62.1037 113.201C62.0257 113.328 61.2557 113.636 60.3927 113.886C58.9858 114.294 53.7734 116.124 52.1538 116.779C50.7695 117.338 50.3245 117.039 47.8432 113.887C47.3903 113.311 46.8272 112.638 46.5917 112.39C46.3564 112.142 45.7393 111.257 45.2203 110.424C43.6056 107.833 43.4005 107.671 41.7458 107.671C40.1083 107.671 39.6238 108.152 40.3982 109.011C40.6428 109.282 40.8432 109.627 40.8432 109.778C40.8432 109.93 41.152 110.344 41.5295 110.7C41.9069 111.056 42.2157 111.465 42.2157 111.609C42.2157 111.902 44.5211 115.116 46.119 117.051C46.6897 117.742 47.1569 118.514 47.1569 118.766C47.1569 119.236 45.6817 120.196 42.563 121.756L40.8514 122.612L39.8179 121.832C37.9927 120.454 32.2085 114.625 30.6685 112.612C26.6546 107.366 26.984 107.671 25.3345 107.671C24.5214 107.671 23.7799 107.794 23.6872 107.945ZM76.4682 114.158C76.384 114.242 75.3444 114.421 74.1577 114.556C71.2536 114.886 67.9085 115.402 67.7693 115.541C67.6312 115.679 68.012 116.458 69.1048 118.272C69.5608 119.03 70.017 119.821 70.1183 120.03C70.4518 120.72 73.8392 125.693 74.4547 126.396C74.7858 126.774 75.2788 127.442 75.55 127.88L76.043 128.675L78.3223 128.499C79.5757 128.403 80.797 128.249 81.0361 128.157C81.4168 128.01 81.4706 127.122 81.4706 120.997V114.004H79.0459C77.712 114.004 76.5522 114.073 76.4682 114.158ZM85.3777 121.068L85.451 128.186L86.9608 128.352C87.7912 128.443 88.8555 128.604 89.3257 128.71C90.1059 128.885 90.2769 128.786 91.2736 127.58C91.8745 126.853 92.5984 125.886 92.8825 125.432C93.1666 124.978 93.465 124.544 93.5455 124.468C93.6715 124.35 95.903 120.898 97.5506 118.272C98.376 116.957 98.7647 116.169 98.7647 115.812C98.7647 115.302 93.2723 114.445 87.8483 114.109L85.3044 113.951L85.3777 121.068ZM62.6667 116.774C59.9051 117.561 59.1003 117.832 56.5605 118.825C55.0139 119.43 53.7476 120.002 53.7468 120.096C53.7449 120.294 57.4508 123.718 59.131 125.072C61.8039 127.225 66.1135 130.041 67.9326 130.824C69.2766 131.401 70.3316 131.272 71.7955 130.351L72.4146 129.961L70.9789 127.834C70.1891 126.665 69.4474 125.666 69.3304 125.616C69.2135 125.565 69.1177 125.398 69.1177 125.245C69.1177 125.092 68.5484 124.116 67.8528 123.075C67.1569 122.035 66.3849 120.813 66.1371 120.359C65.0429 118.355 63.8466 116.485 63.6761 116.511C63.5737 116.526 63.1197 116.645 62.6667 116.774ZM101.51 118.548C100.991 119.532 100.493 120.338 100.403 120.338C100.313 120.338 100.028 120.782 99.77 121.324C99.2882 122.338 96.6724 126.369 95.0259 128.635C93.9874 130.064 94.0196 130.141 95.9688 130.901C97.0954 131.34 97.2113 131.337 98.3335 130.839C99.4378 130.349 101.833 128.896 103.934 127.442C107.356 125.073 112.745 120.184 112.329 119.826C112.119 119.646 110.583 118.997 107.686 117.867C106.356 117.348 104.002 116.758 103.261 116.758C102.547 116.758 102.344 116.965 101.51 118.548ZM48.7546 122.334C48.2324 122.675 47.1034 123.321 46.2458 123.77C45.3553 124.236 44.6918 124.768 44.6995 125.009C44.7165 125.563 47.8901 127.612 51.9801 129.708C53.7811 130.631 55.3724 131.503 55.5157 131.645C55.659 131.787 55.947 131.903 56.1551 131.903C56.3634 131.903 57.358 132.221 58.3649 132.61C64.0014 134.786 64.3533 134.875 64.9427 134.275C65.4793 133.729 65.7459 134.005 62.6535 131.903C59.6175 129.84 53.9952 125.381 52.0492 123.493C51.041 122.515 50.1008 121.715 49.9602 121.715C49.8194 121.715 49.277 121.994 48.7546 122.334ZM114.539 123.115C112.033 125.692 107.745 129.073 102.203 132.845C101.603 133.253 101.068 133.632 101.013 133.687C100.958 133.742 101.213 133.984 101.58 134.225C102.201 134.633 102.392 134.615 104.417 133.954C105.611 133.565 106.835 133.09 107.137 132.898C107.439 132.707 108.304 132.386 109.059 132.185C109.814 131.984 110.623 131.656 110.857 131.456C111.091 131.255 111.77 130.916 112.367 130.702C112.963 130.488 114.235 129.865 115.193 129.318C116.151 128.771 116.997 128.323 117.072 128.323C117.367 128.323 121.824 125.231 121.824 125.026C121.824 124.484 117.143 121.715 116.226 121.715C116.047 121.715 115.288 122.345 114.539 123.115ZM78.941 131.555L77.7647 131.896L79.4118 131.78C80.7632 131.685 80.9109 131.713 80.2353 131.935C79.7824 132.084 78.6706 132.138 77.7647 132.056C75.7592 131.873 74.6499 132.163 71.451 133.706C68.9283 134.924 67.889 135.887 68.612 136.337C69.3958 136.826 71.7387 137.253 75.1569 137.53C79.5872 137.89 80.9216 137.924 80.9216 137.678C80.9216 137.542 79.7173 137.388 78.2451 137.336C75.8728 137.252 75.9708 137.238 79.1096 137.215C81.1931 137.2 82.4932 137.287 82.2678 137.427C82.04 137.568 82.4399 137.603 83.2563 137.512C84.0104 137.428 85.7393 137.331 87.0981 137.296C88.8629 137.25 88.9609 137.261 87.4412 137.333C86.2712 137.388 85.3138 137.528 85.3138 137.644C85.3138 138.255 96.4811 137.182 97.6475 136.459C98.521 135.917 97.6338 134.708 96.0196 134.24C95.6422 134.131 95.1261 133.859 94.8727 133.636C94.6194 133.413 94.187 133.302 93.9119 133.389C93.6369 133.476 93.0412 133.425 92.5883 133.275L91.7647 133.004L92.6904 133.142C93.4494 133.255 93.56 133.212 93.3053 132.905C92.8534 132.358 90.3765 131.953 88.4327 132.107C87.5057 132.18 86.5243 132.115 86.2515 131.962C85.8806 131.754 86.0983 131.712 87.1129 131.799C88.2263 131.893 88.3529 131.863 87.8162 131.629C86.8422 131.204 80.3418 131.15 78.941 131.555ZM75.7745 132.373C75.4347 132.439 75.1569 132.616 75.1569 132.767C75.1569 133.046 76.034 132.866 76.804 132.429C77.1699 132.221 77.1699 132.199 76.804 132.225C76.5775 132.241 76.1144 132.307 75.7745 132.373ZM89.5687 132.397C89.9867 132.844 91.353 133.121 91.353 132.759C91.353 132.591 91.1987 132.452 91.0098 132.45C90.8212 132.448 90.3579 132.369 89.9804 132.275C89.5009 132.155 89.3768 132.192 89.5687 132.397ZM73.0981 133.28L72.5491 133.517H73.0981C73.4 133.517 73.8942 133.41 74.1961 133.28L74.7451 133.044H74.1961C73.8942 133.044 73.4 133.15 73.0981 133.28ZM70.5816 134.507C69.6003 134.935 68.5322 135.906 68.7746 136.149C68.8627 136.237 69.3834 136.309 69.9322 136.309C70.4806 136.309 71.0469 136.426 71.1902 136.57C71.3335 136.714 72.3157 136.905 73.3726 136.995C75.2598 137.155 75.2758 137.151 74.2645 136.766C73.6979 136.55 72.3023 136.286 71.1631 136.179C69.3318 136.007 69.1325 135.935 69.4455 135.557C69.6401 135.321 70.2945 134.907 70.8998 134.637C71.5048 134.366 71.8765 134.141 71.7255 134.137C71.5745 134.132 71.0598 134.298 70.5816 134.507ZM95.4706 134.657C95.6971 134.804 96.0677 134.924 96.2941 134.924C96.6601 134.924 96.6601 134.894 96.2941 134.657C96.0677 134.51 95.6971 134.39 95.4706 134.39C95.1047 134.39 95.1047 134.42 95.4706 134.657ZM96.8432 135.133C96.8432 135.307 96.9977 135.551 97.1863 135.673C97.4054 135.815 97.1322 135.957 96.4314 136.064L95.3334 136.231L96.3466 136.27C97.5264 136.316 97.9192 135.894 97.2873 135.26C97.0249 134.997 96.8432 134.944 96.8432 135.133ZM92.0392 136.729L90.6667 137.082L92.0736 137.109C93.7566 137.141 95.1961 136.883 95.1961 136.55C95.1961 136.218 93.6874 136.303 92.0392 136.729Z" fill="#2894CC"/>
</svg>
